<svg width="895" height="695" viewBox="0 0 895 695" fill="none" xmlns="http://www.w3.org/2000/svg">
<path fill-rule="evenodd" clip-rule="evenodd" d="M742.868 -31.2458H668.566C668.566 -40.499 661.064 -48.0002 651.811 -48.0002C642.558 -48.0002 635.057 -40.499 635.057 -31.2458H560.754V43.0564C551.501 43.0564 544 50.5576 544 59.8109C544 69.0641 551.501 76.5653 560.754 76.5653V150.868H635.057C635.057 141.614 642.558 134.113 651.811 134.113C661.064 134.113 668.566 141.614 668.566 150.868H742.868V76.5653C733.615 76.5653 726.113 69.0641 726.113 59.8109C726.113 50.5576 733.615 43.0564 742.868 43.0564V-31.2458Z" fill="#F97C7C"/>
<path fill-rule="evenodd" clip-rule="evenodd" d="M561.868 -31.2458H487.566C487.566 -40.499 480.064 -48.0002 470.811 -48.0002C461.558 -48.0002 454.057 -40.499 454.057 -31.2458H379.754V43.0564C370.501 43.0564 363 50.5576 363 59.8109C363 69.0641 370.501 76.5653 379.754 76.5653V150.868H454.057C454.057 141.614 461.558 134.113 470.811 134.113C480.064 134.113 487.566 141.614 487.566 150.868H561.868V76.5653C552.615 76.5653 545.113 69.0641 545.113 59.8109C545.113 50.5576 552.615 43.0564 561.868 43.0564V-31.2458Z" fill="#FBB5CE"/>
<path fill-rule="evenodd" clip-rule="evenodd" d="M924.768 150.754H850.465C850.465 141.501 842.964 134 833.711 134C824.458 134 816.957 141.501 816.957 150.754H742.654L742.654 225.056C733.401 225.056 725.9 232.558 725.9 241.811C725.9 251.064 733.401 258.565 742.654 258.565L742.654 332.868H816.957C816.957 323.614 824.458 316.113 833.711 316.113C842.964 316.113 850.465 323.614 850.465 332.868H924.768V258.565C915.514 258.565 908.013 251.064 908.013 241.811C908.013 232.558 915.514 225.056 924.768 225.056V150.754Z" fill="#7CAEE8"/>
<path fill-rule="evenodd" clip-rule="evenodd" d="M742.868 331.754L668.566 331.754C668.566 322.501 661.064 315 651.811 315C642.558 315 635.057 322.501 635.057 331.754L560.754 331.754L560.754 406.057C551.501 406.057 544 413.558 544 422.811C544 432.064 551.501 439.566 560.754 439.566L560.754 513.868H635.057C635.057 504.615 642.558 497.113 651.811 497.113C661.064 497.113 668.566 504.615 668.566 513.868H742.868V439.566C733.615 439.566 726.113 432.064 726.113 422.811C726.113 413.558 733.615 406.057 742.868 406.057V331.754Z" fill="#F6C451"/>
<path fill-rule="evenodd" clip-rule="evenodd" d="M379.868 150.754L305.566 150.754C305.566 141.501 298.064 134 288.811 134C279.558 134 272.057 141.501 272.057 150.754L197.754 150.754L197.754 225.057C188.501 225.057 181 232.558 181 241.811C181 251.064 188.501 258.566 197.754 258.566L197.754 332.868H272.057C272.057 323.615 279.558 316.113 288.811 316.113C298.064 316.113 305.566 323.615 305.566 332.868H379.868V258.566C370.615 258.566 363.113 251.064 363.113 241.811C363.113 232.558 370.615 225.057 379.868 225.057V150.754Z" fill="#3AA075"/>
<path fill-rule="evenodd" clip-rule="evenodd" d="M561.868 150.754H487.566C487.566 141.501 480.064 134 470.811 134C461.558 134 454.057 141.501 454.057 150.754H379.754V225.057C370.501 225.057 363 232.558 363 241.811C363 251.064 370.501 258.566 379.754 258.566V332.868H454.057C454.057 323.615 461.558 316.113 470.811 316.113C480.064 316.113 487.566 323.615 487.566 332.868H561.868V258.566C552.615 258.566 545.113 251.064 545.113 241.811C545.113 232.558 552.615 225.057 561.868 225.057V150.754Z" fill="#F97C7C"/>
<path fill-rule="evenodd" clip-rule="evenodd" d="M742.868 150.754H668.566C668.566 141.501 661.064 134 651.811 134C642.558 134 635.057 141.501 635.057 150.754H560.754V225.057C551.501 225.057 544 232.558 544 241.811C544 251.064 551.501 258.566 560.754 258.566V332.868H635.057C635.057 323.615 642.558 316.113 651.811 316.113C661.064 316.113 668.566 323.615 668.566 332.868H742.868V258.566C733.615 258.566 726.113 251.064 726.113 241.811C726.113 232.558 733.615 225.057 742.868 225.057V150.754Z" fill="#FBB5CE"/>
<path fill-rule="evenodd" clip-rule="evenodd" d="M198.868 -31.2456H124.566C124.566 -40.4988 117.064 -48 107.811 -48C98.5579 -48 91.0567 -40.4988 91.0567 -31.2456H16.7544V43.0567C7.50121 43.0567 0 50.5579 0 59.8111C0 69.0643 7.50121 76.5655 16.7544 76.5655V150.868H91.0567C91.0567 141.615 98.5579 134.113 107.811 134.113C117.064 134.113 124.566 141.615 124.566 150.868H198.868V76.5655C189.615 76.5655 182.113 69.0643 182.113 59.8111C182.113 50.5579 189.615 43.0567 198.868 43.0567V-31.2456Z" fill="#F6C451"/>
<path fill-rule="evenodd" clip-rule="evenodd" d="M924.868 512.754H850.566C850.566 503.501 843.064 496 833.811 496C824.558 496 817.057 503.501 817.057 512.754H742.754V587.057C733.501 587.057 726 594.558 726 603.811C726 613.064 733.501 620.566 742.754 620.566V694.868H817.057C817.057 685.615 824.558 678.113 833.811 678.113C843.064 678.113 850.566 685.615 850.566 694.868H924.868V620.566C915.615 620.566 908.113 613.064 908.113 603.811C908.113 594.558 915.615 587.057 924.868 587.057V512.754Z" fill="#7CAEE8"/>
</svg>
