<?xml version="1.0" encoding="utf-8"?>
<!-- Generator: Adobe Illustrator 26.0.0, SVG Export Plug-In . SVG Version: 6.00 Build 0)  -->
<svg version="1.1" id="Layer_1" xmlns="http://www.w3.org/2000/svg" xmlns:xlink="http://www.w3.org/1999/xlink" x="0px" y="0px"
	 viewBox="0 0 52.4 52.4" style="enable-background:new 0 0 52.4 52.4;" xml:space="preserve">
<style type="text/css">
	.st0{fill:#231F20;}
	.st1{fill:url(#SVGID_1_);}
	.st2{fill:none;stroke:#353641;stroke-width:1.28;stroke-linecap:round;stroke-linejoin:round;}
</style>
<path class="st0" d="M48.9,26.5c0.8,0,1.6,0.1,2.3,0.5c0.4,0.2,0.9,0,1-0.4c0,0,0,0,0,0c0.1-0.1,0.1-0.2,0.1-0.3V10.4H36.5
	c-0.4,0-0.8-0.3-0.8-0.8c0-0.1,0-0.2,0.1-0.4c0.4-0.7,0.5-1.5,0.5-2.3c-0.1-2.7-2.4-4.8-5.1-4.7c-2.7,0.1-4.8,2.4-4.7,5.1
	c0,0.7,0.2,1.3,0.5,1.9c0.2,0.4,0.1,0.8-0.3,1.1c-0.1,0.1-0.3,0.1-0.4,0.1H10.4v15.8c0,0.4-0.3,0.8-0.8,0.8c-0.1,0-0.2,0-0.3-0.1
	c-2.4-1.2-5.4-0.1-6.5,2.3S2.6,34.7,5,35.8c0.7,0.3,1.4,0.5,2.1,0.5c0.7,0,1.4-0.1,2.1-0.5c0.4-0.2,0.8-0.1,1.1,0.3
	c0.1,0.1,0.1,0.3,0.1,0.4v15.9h15.8c0.4,0,0.8-0.3,0.8-0.8c0-0.1,0-0.2-0.1-0.3c-1.2-2.4-0.1-5.4,2.3-6.5c2.4-1.2,5.4-0.1,6.5,2.3
	c0.3,0.7,0.5,1.4,0.5,2.1c0,0.7-0.2,1.4-0.5,2.1c-0.2,0.4-0.1,0.8,0.3,1.1c0.1,0.1,0.3,0.1,0.4,0.1h15.9V36.6c0-0.4-0.3-0.8-0.7-0.8
	c-0.1,0-0.3,0-0.4,0.1c-0.6,0.3-1.4,0.5-2.1,0.5c-2.7,0-4.9-2.2-4.9-4.9C44.2,28.8,46.3,26.6,48.9,26.5z"/>
<g id="Layer_2_00000090274891120294735090000002453666418585705353_">
	
		<linearGradient id="SVGID_1_" gradientUnits="userSpaceOnUse" x1="-3.697962e-03" y1="24.8165" x2="50.09" y2="24.8165" gradientTransform="matrix(1 0 0 -1 0 49.8898)">
		<stop  offset="0" style="stop-color:#7BAEE8"/>
		<stop  offset="1" style="stop-color:#39A075"/>
	</linearGradient>
	<path class="st1" d="M46.6,24.2c0.8,0,1.6,0.1,2.3,0.5c0.4,0.2,0.9,0,1-0.4c0-0.1,0.1-0.2,0.1-0.3V8.1H34.2c-0.4,0-0.8-0.3-0.8-0.8
		c0-0.1,0-0.2,0.1-0.3C33.9,6.3,34,5.5,34,4.7c-0.2-2.5-2.2-4.5-4.7-4.7c-2.7-0.1-5,2-5.1,4.7c0,0.1,0,0.1,0,0.2
		c0,0.7,0.2,1.4,0.5,2.1c0.2,0.4,0,0.9-0.4,1.1c-0.1,0-0.2,0.1-0.3,0.1H8.1V24c0,0.4-0.4,0.8-0.8,0.8c-0.1,0-0.2,0-0.3-0.1
		c-0.7-0.4-1.5-0.5-2.3-0.5c-2.5,0.2-4.5,2.2-4.7,4.7c-0.1,2.7,2,5,4.7,5.1c0.8,0,1.6-0.1,2.3-0.5c0.4-0.2,0.9,0,1.1,0.3
		c0.1,0.1,0.1,0.2,0.1,0.4v15.8H24c0.4,0,0.8-0.4,0.8-0.8c0-0.1,0-0.2-0.1-0.3c-0.4-0.7-0.5-1.5-0.5-2.3c0.2-2.5,2.2-4.5,4.7-4.7
		c2.7-0.1,5,2,5.1,4.7c0,0.8-0.1,1.6-0.5,2.3c-0.2,0.4,0,0.9,0.3,1.1c0.1,0.1,0.2,0.1,0.4,0.1h15.8V34.2c0-0.4-0.4-0.8-0.8-0.8
		c-0.1,0-0.2,0-0.4,0.1c-2.5,1.1-5.4,0.1-6.5-2.4c-1.1-2.5-0.1-5.4,2.4-6.5C45.4,24.4,46,24.2,46.6,24.2z"/>
	<polygon class="st2" points="36.2,35.9 28.8,27.2 37,22.9 	"/>
	<path class="st2" d="M30.7,15.9c0.1,2.8-1.6,5.4-4.2,6.4c-2.4,0.8-6.1-0.1-7.2-2.3c-0.7-1.5-0.3-3.4,1-4.4c1.4-0.9,3.2-0.5,4.3,0.8
		c1.9,2.5,1.5,6.1-1,8c-2,1.5-4.7,1.7-6.8,0.5"/>
	<polygon class="st2" points="23.8,29.6 28.8,36.6 21.5,32.4 	"/>
</g>
</svg>
