<?xml version="1.0" encoding="utf-8"?>
<!-- Generator: Adobe Illustrator 26.0.0, SVG Export Plug-In . SVG Version: 6.00 Build 0)  -->
<svg version="1.1" id="Layer_1" xmlns="http://www.w3.org/2000/svg" xmlns:xlink="http://www.w3.org/1999/xlink" x="0px" y="0px"
	 viewBox="0 0 52.4 52.4" style="enable-background:new 0 0 52.4 52.4;" xml:space="preserve">
<style type="text/css">
	.st0{fill:#231F20;}
	.st1{fill:url(#SVGID_1_);}
	.st2{fill:none;stroke:#353641;stroke-width:1.28;stroke-linecap:round;stroke-linejoin:round;}
</style>
<path class="st0" d="M48.9,26.5c0.8,0,1.6,0.1,2.3,0.5c0.4,0.2,0.9,0,1-0.4c0,0,0,0,0,0c0.1-0.1,0.1-0.2,0.1-0.3V10.4H36.5
	c-0.4,0-0.8-0.3-0.8-0.8c0-0.1,0-0.2,0.1-0.3c0.4-0.7,0.5-1.5,0.5-2.3c-0.1-2.7-2.4-4.8-5.1-4.7c-2.7,0.1-4.8,2.4-4.7,5.1
	c0,0.7,0.2,1.3,0.5,1.9c0.2,0.4,0.1,0.8-0.3,1.1c-0.1,0.1-0.3,0.1-0.4,0.1H10.4v15.8c0,0.4-0.3,0.8-0.8,0.8c-0.1,0-0.2,0-0.3-0.1
	c-2.4-1.2-5.4-0.1-6.5,2.3s-0.1,5.4,2.3,6.5c0.7,0.3,1.4,0.5,2.1,0.5c0.7,0,1.4-0.1,2.1-0.5c0.4-0.2,0.8-0.1,1.1,0.3
	c0.1,0.1,0.1,0.3,0.1,0.4v15.8h15.8c0.4,0,0.8-0.3,0.8-0.8c0-0.1,0-0.2-0.1-0.3c-1.2-2.4-0.1-5.4,2.3-6.5c2.4-1.2,5.4-0.1,6.5,2.3
	c0.3,0.7,0.5,1.4,0.5,2.1c0,0.7-0.2,1.4-0.5,2.1c-0.2,0.4-0.1,0.8,0.3,1.1c0.1,0.1,0.3,0.1,0.4,0.1h15.8V36.5c0-0.4-0.3-0.8-0.7-0.8
	c-0.1,0-0.3,0-0.4,0.1c-0.6,0.3-1.4,0.5-2.1,0.5c-2.7,0-4.9-2.2-4.9-4.9C44.2,28.8,46.3,26.6,48.9,26.5z"/>
<g id="Layer_2_00000101806511433188791700000013044967282820526220_">
	
		<linearGradient id="SVGID_1_" gradientUnits="userSpaceOnUse" x1="-40.43" y1="231.2429" x2="9.6637" y2="231.2429" gradientTransform="matrix(1 0 0 -1 40.43 256.3196)">
		<stop  offset="0" style="stop-color:#F6C451"/>
		<stop  offset="1" style="stop-color:#39A075"/>
	</linearGradient>
	<path class="st1" d="M46.6,24.2c0.8,0,1.6,0.1,2.3,0.5c0.4,0.2,0.9,0,1-0.4c0-0.1,0.1-0.2,0.1-0.3V8.1H34.3c-0.4,0-0.8-0.3-0.8-0.8
		c0-0.1,0-0.2,0.1-0.3C33.9,6.3,34,5.5,34,4.7c-0.2-2.5-2.2-4.5-4.7-4.7c-2.7-0.1-5,2-5.1,4.7c0,0.1,0,0.1,0,0.2
		c0,0.7,0.2,1.4,0.5,2.1c0.2,0.4,0,0.9-0.4,1.1c-0.1,0-0.2,0.1-0.3,0.1H8.1V24c0,0.4-0.4,0.8-0.8,0.8c-0.1,0-0.2,0-0.3-0.1
		c-0.7-0.4-1.5-0.5-2.3-0.5c-2.5,0.2-4.5,2.2-4.7,4.7c-0.1,2.7,2,5,4.7,5.1c0.8,0,1.6-0.1,2.3-0.5c0.4-0.2,0.9,0,1.1,0.3
		c0.1,0.1,0.1,0.2,0.1,0.4v15.8H24c0.4,0,0.8-0.4,0.8-0.8c0-0.1,0-0.2-0.1-0.3c-0.4-0.7-0.5-1.5-0.5-2.3c0.2-2.5,2.2-4.5,4.7-4.7
		c2.7-0.1,5,2,5.1,4.7c0,0.8-0.1,1.6-0.5,2.3c-0.2,0.4,0,0.9,0.3,1.1c0.1,0.1,0.2,0.1,0.4,0.1h15.8V34.3c0-0.4-0.4-0.8-0.8-0.8
		c-0.1,0-0.2,0-0.4,0.1c-2.5,1.1-5.4,0.1-6.5-2.4c-1.1-2.5-0.1-5.4,2.4-6.5C45.4,24.4,46,24.2,46.6,24.2z"/>
	<path class="st2" d="M15.9,31.3c1.6,1.4,3.8,2.8,5.8,2.3s2.2-2.9,5-4.5c0.2-0.1,4.5-2.6,7.6-0.5c1.8,1.2,3.3,4,2.2,6.2
		c-0.8,1.6-2.6,2.5-4.3,2.1c-1.2-0.5-2.1-1.5-2.4-2.7"/>
	<path class="st2" d="M25.8,24.7c-0.1-1.3-0.7-2.5-1.7-3.2c-1.3-0.8-2.5-0.4-4-1.1c-1.1-0.6-2-1.5-2.5-2.7"/>
	<path class="st2" d="M29.2,24.3c0.4-1.2,0.2-2.5-0.5-3.6c-0.9-1.1-2.1-1.1-3.3-2.1c-0.9-0.7-1.8-2.1-1.9-4.8"/>
	<path class="st2" d="M32.3,24.1c1.1-2.6,0.8-4,0.2-4.8c-0.4-0.6-0.9-0.7-1.4-1.4c-0.7-1.2-0.8-2.7-0.3-4.1"/>
</g>
</svg>
