<svg id="Layer_1" data-name="Layer 1" xmlns="http://www.w3.org/2000/svg" viewBox="0 0 128.91 128.79"><defs><style>.cls-1{fill:#231f20;}</style></defs><path class="cls-1" d="M120,62.3a12.57,12.57,0,0,1,6,1.23,2,2,0,0,0,2.66-1,2,2,0,0,0,.19-.89V20.92H88.14a2,2,0,0,1-1.86-2.85,12.45,12.45,0,0,0,1.23-6,12.62,12.62,0,1,0-24,5.93,2,2,0,0,1-1.8,3H20.92V61.68a2,2,0,0,1-2,2,2,2,0,0,1-.89-.19,12.62,12.62,0,1,0-5.45,24A12.36,12.36,0,0,0,18,86.33a2,2,0,0,1,2.73.73A2,2,0,0,1,21,88.14V128.9H61.68a2,2,0,0,0,2-2,2,2,0,0,0-.19-.89,12.62,12.62,0,1,1,24-5.45,12.48,12.48,0,0,1-1.2,5.34,2,2,0,0,0,.73,2.73,2,2,0,0,0,1.08.27H128.9V88.14A2,2,0,0,0,127,86.06a2,2,0,0,0-1.08.27,12.48,12.48,0,0,1-5.34,1.2A12.62,12.62,0,0,1,120,62.3Z" transform="translate(0.01 -0.15)"/></svg>