<?xml version="1.0" encoding="utf-8"?>
<!-- Generator: Adobe Illustrator 26.0.0, SVG Export Plug-In . SVG Version: 6.00 Build 0)  -->
<svg version="1.1" id="Layer_1" xmlns="http://www.w3.org/2000/svg" xmlns:xlink="http://www.w3.org/1999/xlink" x="0px" y="0px"
	 viewBox="0 0 52.4 52.4" style="enable-background:new 0 0 52.4 52.4;" xml:space="preserve">
<style type="text/css">
	.st0{fill:#231F20;}
	.st1{fill:url(#SVGID_1_);}
	.st2{fill:none;stroke:#353641;stroke-width:1.28;stroke-linecap:round;stroke-linejoin:round;}
</style>
<path class="st0" d="M46.5,26.5c0.8,0,1.6,0.1,2.3,0.5c0.4,0.2,0.9,0,1-0.4l0,0c0.1-0.1,0.1-0.2,0.1-0.3V10.4H34.1
	c-0.4,0-0.8-0.3-0.8-0.8c0-0.1,0-0.2,0.1-0.3c0.4-0.7,0.5-1.5,0.5-2.3c-0.1-2.7-2.4-4.8-5.1-4.7c-2.7,0.1-4.8,2.4-4.7,5.1
	c0,0.7,0.2,1.3,0.5,1.9c0.2,0.4,0.1,0.8-0.3,1.1c-0.1,0.1-0.3,0.1-0.4,0.1H8v15.8c0,0.4-0.3,0.8-0.8,0.8c-0.1,0-0.2,0-0.3-0.1
	c-2.4-1.2-5.4-0.1-6.5,2.3s-0.1,5.4,2.3,6.5c0.7,0.3,1.4,0.5,2.1,0.5s1.4-0.1,2.1-0.5c0.4-0.2,0.8-0.1,1.1,0.3
	c0.1,0.1,0.1,0.3,0.1,0.4v15.8h15.8c0.4,0,0.8-0.3,0.8-0.8c0-0.1,0-0.2-0.1-0.3c-1.2-2.4-0.1-5.4,2.3-6.5c2.4-1.2,5.4-0.1,6.5,2.3
	c0.3,0.7,0.5,1.4,0.5,2.1c0,0.7-0.2,1.4-0.5,2.1c-0.2,0.4-0.1,0.8,0.3,1.1c0.1,0.1,0.3,0.1,0.4,0.1h15.8V36.5c0-0.4-0.3-0.8-0.7-0.8
	c-0.1,0-0.3,0-0.4,0.1c-0.6,0.3-1.4,0.5-2.1,0.5c-2.7,0-4.9-2.2-4.9-4.9C41.8,28.8,43.9,26.6,46.5,26.5z"/>
<g id="Layer_2_00000042716149741652865050000009107965817330190239_">
	
		<linearGradient id="SVGID_1_" gradientUnits="userSpaceOnUse" x1="-490.5034" y1="407.5083" x2="-440.4" y2="407.5083" gradientTransform="matrix(6.123234e-17 -1 1 6.123234e-17 -380.11 -440.4)">
		<stop  offset="0" style="stop-color:#FBB5CE"/>
		<stop  offset="1" style="stop-color:#F97C7C"/>
	</linearGradient>
	<path class="st1" d="M49,24.2c0.8,0,1.6,0.1,2.3,0.5c0.4,0.2,0.9,0,1-0.4c0-0.1,0.1-0.2,0.1-0.3V8.1H36.7c-0.4,0-0.8-0.3-0.8-0.8
		c0-0.1,0-0.2,0.1-0.3c0.3-0.7,0.4-1.5,0.4-2.3c-0.2-2.5-2.2-4.5-4.7-4.7c-2.7-0.1-5,2-5.1,4.7c0,0.1,0,0.1,0,0.2
		c0,0.7,0.2,1.4,0.5,2.1c0.2,0.4,0,0.9-0.4,1.1c-0.1,0-0.2,0.1-0.3,0.1H10.5V24c0,0.4-0.4,0.8-0.8,0.8c-0.1,0-0.2,0-0.3-0.1
		c-0.7-0.4-1.5-0.5-2.3-0.5c-2.5,0.2-4.5,2.2-4.7,4.7c-0.1,2.7,2,5,4.7,5.1c0.8,0,1.6-0.1,2.3-0.5c0.4-0.2,0.9,0,1.1,0.3
		c0.1,0.1,0.1,0.2,0.1,0.4V50h15.8c0.4,0,0.8-0.4,0.8-0.8c0-0.1,0-0.2-0.1-0.3c-0.4-0.7-0.5-1.5-0.5-2.3c0.2-2.5,2.2-4.5,4.7-4.7
		c2.7-0.1,5,2,5.1,4.7c0,0.8-0.1,1.6-0.5,2.3c-0.2,0.4,0,0.9,0.3,1.1c0.1,0.1,0.2,0.1,0.4,0.1h15.8V34.3c0-0.4-0.4-0.8-0.8-0.8
		c-0.1,0-0.2,0-0.4,0.1c-2.5,1.1-5.4,0.1-6.5-2.4s-0.1-5.4,2.4-6.5C47.8,24.4,48.4,24.2,49,24.2z"/>
	<path class="st2" d="M32,16.2c-1.3-1.4-6-1.4-7.5,1.9s1.4,6.8,3.3,6.9C30.5,25.1,33.8,18.2,32,16.2z"/>
	<path class="st2" d="M29.6,29.6c0.4,1.2,2.7,2.6,4,1.3c1.3-1.3,0.5-4.2-0.4-4.8C31.8,25.2,29,27.9,29.6,29.6z"/>
	<path class="st2" d="M36.1,17.8c0.9-0.2,2.8,2.1,2.6,4.8s-2.3,3.3-3.1,2.4C34.5,23.7,34.9,18.1,36.1,17.8z"/>
	<polyline class="st2" points="17.1,24.7 23,28.3 19,30.1 25.2,33.4 22.2,35.1 27.4,38.1 	"/>
</g>
</svg>
