<svg width="153" height="63" viewBox="0 0 153 63" fill="none" xmlns="http://www.w3.org/2000/svg">
<path fill-rule="evenodd" clip-rule="evenodd" d="M76.1538 57.0843C76.0305 56.74 75.9309 56.468 75.9066 56.4094C74.7492 53.6236 73.4679 50.861 72.0386 48.204C71.6382 47.4596 70.7093 47.1806 69.9649 47.581C69.2205 47.9815 68.9414 48.9104 69.3419 49.6548C70.723 52.2217 71.9601 54.8923 73.079 57.5844C73.1644 57.7896 73.691 59.5909 74.1173 60.3625C74.5037 61.0609 75.0463 61.35 75.3654 61.4295C75.8723 61.5559 76.6949 61.45 77.4329 60.642C78.3965 59.5876 79.7985 56.656 80.0298 56.1693C80.4541 55.2738 80.8318 54.3276 81.1862 53.4061C81.8583 51.6579 82.3224 49.857 82.7573 48.0395C82.9544 47.2173 82.4466 46.3909 81.6243 46.1937C80.8028 45.9975 79.9756 46.5052 79.7793 47.3268C79.3756 49.0128 78.9517 50.6852 78.3282 52.3066C78.0007 53.1569 77.6539 54.0315 77.2625 54.8579C77.1445 55.1056 76.6799 56.131 76.1538 57.0843Z" fill="#AF9C9C"/>
<path d="M12.6454 6.74842C13.2021 12.5663 12.3176 18.0161 12.1535 23.7202C12.1279 24.6093 12.2448 26.9521 12.8535 27.4365" stroke="#AF9C9C" stroke-width="3.15" stroke-linecap="round"/>
<path d="M24.3438 5.63086H2.55819" stroke="#AF9C9C" stroke-width="3.15" stroke-linecap="round"/>
<path d="M35.2158 16.3947C30.4382 14.1611 25.771 13.0173 22.3549 18.1709C19.7667 22.0757 21.6762 26.7961 26.3379 27.3663C31.9815 28.0566 34.3124 23.7804 34.898 18.9934C35.3077 15.6435 35.298 21.3901 35.252 22.2604C35.1418 24.3424 35.3415 26.7242 35.9902 28.5469" stroke="#AF9C9C" stroke-width="3.15" stroke-linecap="round"/>
<path d="M42.6466 15.0202C43.8113 22.8872 43.8093 30.6311 43.8093 38.5487C43.8093 41.2342 43.8113 45.2125 43.8113 38.0168C43.8113 32.9944 43.6553 31.3509 43.6553 26.5181C43.6553 22.3667 44.4619 10.7842 53.5393 15.0202C62.6163 21.6769 50.2694 29.8732 43.8559 28.3336" stroke="#AF9C9C" stroke-width="3.15" stroke-linecap="round"/>
<path d="M72.8072 3.21078C74.6227 11.0778 73.9024 22.0312 73.9024 29.2324M75.8325 15.5655C77.9825 15.5655 81.8842 14.7094 84.3048 17.13C86.1203 18.9454 85.9648 23.4942 85.5154 28.6273" stroke="#AF9C9C" stroke-width="3.15" stroke-linecap="round"/>
<path d="M93.7335 22.0405C96.8131 22.5045 99.154 23.272 101.143 20.4254C102.14 18.9977 101.202 16.7932 99.5531 16.0067C96.4402 14.5215 93.4953 15.3745 92.7399 19.0236C92.0567 22.3237 91.3507 26.4704 94.7555 28.5009C98.5437 30.76 102.587 30.0897 105.486 26.9772" stroke="#AF9C9C" stroke-width="3.15" stroke-linecap="round"/>
<path d="M127.853 22.0405C130.932 22.5045 133.273 23.272 135.262 20.4254C136.26 18.9977 135.321 16.7932 133.672 16.0067C130.559 14.5215 127.614 15.3745 126.859 19.0236C126.176 22.3237 125.47 26.4704 128.875 28.5009C132.663 30.76 136.706 30.0897 139.605 26.9772" stroke="#AF9C9C" stroke-width="3.15" stroke-linecap="round"/>
<path d="M110.559 14.2134C110.559 16.1134 110.972 17.9368 110.99 19.824C111.006 21.4621 110.99 23.101 110.99 24.7392C110.99 26.2298 110.99 27.7204 110.99 29.2109M110.908 18.3394C112.253 16.1296 116.069 14.3421 118.983 15.3137C120.798 15.9188 120.846 16.524 121.451 18.3394" stroke="#AF9C9C" stroke-width="3.15" stroke-linecap="round"/>
<path d="M148.579 1.99995C149.729 8.7676 149.789 15.5388 149.789 22.5752" stroke="#AF9C9C" stroke-width="3.15" stroke-linecap="round"/>
<path d="M148.696 29.2179C148.696 29.8591 148.195 32.2095 149.272 32.2095C149.919 32.2095 151 32.4985 151 31.6485C151 30.8902 150.11 27.2105 149.08 29.2179" stroke="#AF9C9C" stroke-width="3.15" stroke-linecap="round"/>
</svg>
