<svg width="32" height="32" viewBox="0 0 32 32" fill="none" xmlns="http://www.w3.org/2000/svg">
<path fill-rule="evenodd" clip-rule="evenodd" d="M16 -5.72205e-06C7.16365 -5.72205e-06 1.52588e-05 7.16363 1.52588e-05 16C1.52588e-05 24.8364 7.16365 32 16 32C24.8364 32 32 24.8364 32 16C32 7.16363 24.8364 -5.72205e-06 16 -5.72205e-06ZM22.9353 13.2945C23.063 13.1486 23.1602 12.9785 23.2212 12.7944C23.2822 12.6103 23.3058 12.4159 23.2906 12.2225C23.2754 12.0292 23.2216 11.8408 23.1325 11.6685C23.0434 11.4963 22.9207 11.3436 22.7717 11.2194C22.6227 11.0952 22.4504 11.0021 22.2649 10.9455C22.0794 10.889 21.8844 10.87 21.6915 10.8899C21.4986 10.9098 21.3115 10.9681 21.1415 11.0613C20.9714 11.1545 20.8217 11.2808 20.7011 11.4327L14.4466 18.9367L11.2102 15.6989C10.9359 15.4339 10.5684 15.2873 10.1871 15.2907C9.80569 15.294 9.44087 15.4469 9.17119 15.7166C8.9015 15.9863 8.74853 16.3511 8.74522 16.7325C8.7419 17.1139 8.88851 17.4813 9.15347 17.7556L13.5171 22.1193C13.66 22.2621 13.8311 22.3736 14.0195 22.4466C14.2079 22.5197 14.4095 22.5527 14.6113 22.5435C14.8132 22.5343 15.0109 22.4832 15.1919 22.3934C15.3729 22.3036 15.5332 22.177 15.6626 22.0218L22.9353 13.2945Z" fill="#3AA075"/>
</svg>
