<svg width="754" height="66" viewBox="0 0 754 66" fill="none" xmlns="http://www.w3.org/2000/svg">
<path d="M207.505 57.3159C208.16 57.275 208.826 57.2331 209.499 57.1904C247.667 54.7684 271.038 53.6533 313.996 52.2048C326.995 51.7665 366.408 51.7422 403.126 52.1485L427.359 52.4165C427.902 52.4225 428.341 52.8605 428.348 53.4033C428.355 53.9461 427.928 54.3955 427.386 54.4157L409.153 55.0956C399.13 55.4693 383.557 56.1647 374.55 56.6402C350.414 57.9148 347.265 58.0527 323.527 58.8738C285.7 60.1823 246.65 61.9421 205.095 64.2112C193.718 64.8325 185.184 65.089 179.305 64.9728C176.369 64.9148 174.064 64.7635 172.387 64.5106C171.55 64.3844 170.837 64.2284 170.268 64.0327C169.729 63.8475 169.181 63.5823 168.823 63.1521L169.591 62.5123L168.823 63.152C168.529 62.7984 168.236 62.3958 168.068 61.9576C167.887 61.4823 167.84 60.9259 168.109 60.3708C168.354 59.8641 168.799 59.4955 169.288 59.2066C169.787 58.9115 170.436 58.6404 171.231 58.374C174.379 57.3198 180.6 56.0975 191.736 54.052C231.07 46.8267 266.318 41.8946 309.315 37.599C381.623 30.3749 433.576 26.2655 512.22 21.55C529.282 20.5268 539.173 19.8618 569.214 17.7166C577.211 17.1455 593.413 16.0029 605.219 15.1773C630.109 13.4372 650.336 11.9049 662.437 10.843C668.344 10.3247 676.022 9.5949 682.812 8.92057C679.042 8.90824 674.697 8.90174 669.867 8.90064C651.339 8.89643 625.685 8.97171 597.994 9.10249C542.61 9.36405 479.086 9.84754 448.136 10.3607C397.129 11.206 313.645 13.9495 245.299 17.0264L202.603 18.9482C163.331 20.7157 131.359 21.8852 89.0371 23.1021C63.8697 23.8258 56.8504 24.1159 42.2205 25.0363L42.1577 24.0383L42.2204 25.0363C35.9983 25.4276 27.8915 25.8883 24.2025 26.0602L24.2024 26.0602C20.5217 26.2314 16.2107 26.4422 14.6221 26.5281C12.3533 26.6511 9.17382 26.6087 6.56782 26.4788C5.26436 26.4138 4.08415 26.326 3.2203 26.2229C2.79403 26.172 2.41401 26.1138 2.12656 26.0455C1.99069 26.0132 1.82271 25.9667 1.66905 25.895C1.59563 25.8607 1.46839 25.7948 1.34505 25.6809C1.22604 25.571 1 25.3099 1 24.9031C1 24.6817 1.05178 24.4249 1.21046 24.1801C1.36232 23.946 1.56548 23.7951 1.74854 23.6963C2.08137 23.5168 2.50821 23.4267 2.95222 23.3625C3.87892 23.2284 5.43634 23.141 7.9589 23.0359C13.6382 22.799 23.8054 21.9277 35.589 20.6648C59.4168 18.1116 73.7699 17.2737 147.356 14.1332C167.387 13.2784 184.472 12.466 200.427 11.6101C269.278 7.91647 312.675 6.05687 373.313 4.20182C431.829 2.41166 461.986 1.95309 567.432 1.24825C612.687 0.945668 736.711 0.908872 743.366 1.19784C746.845 1.34876 749.369 1.68877 750.924 2.36485C751.715 2.7085 752.398 3.19931 752.754 3.93526C753.124 4.69833 753.039 5.50797 752.748 6.25252C752.748 6.2526 752.748 6.25268 752.748 6.25277M207.505 57.3159L197.787 57.8926C212.993 55.2216 256.785 49.0414 280.119 46.4492C345.985 39.1318 413.813 33.6722 518.049 27.2971C527.569 26.7148 546.679 25.4411 560.515 24.4668C574.351 23.4923 596.161 21.958 608.981 21.0567C658.327 17.5884 673.029 16.2966 720.453 11.2619C750.827 8.03725 750.989 8.00965 751.817 5.88896L752.748 6.25277M207.505 57.3159C212.405 56.551 218.22 55.6815 224.492 54.7739C243.084 52.0833 265.656 49.062 280.23 47.4431C346.073 40.1283 413.883 34.6699 518.11 28.2952C527.635 27.7127 546.747 26.4388 560.585 25.4644C574.421 24.4898 596.231 22.9555 609.051 22.0542C658.408 18.5851 673.122 17.2923 720.559 12.2563C735.722 10.6465 743.402 9.82915 747.384 9.14709C749.347 8.81085 750.56 8.48672 751.34 8.03495C751.763 7.7899 752.07 7.50225 752.304 7.15917C752.517 6.84708 752.645 6.51661 752.743 6.26572L752.748 6.25277M207.505 57.3159L752.748 6.25277" fill="black" stroke="black" stroke-width="2" stroke-linejoin="round"/>
</svg>
