<svg width="32" height="29" viewBox="0 0 32 29" fill="none" xmlns="http://www.w3.org/2000/svg">
<path d="M1.95826 16.4573L25.1841 16.4573L18.0753 24.9956C17.7429 25.3955 17.583 25.9111 17.6308 26.4289C17.6785 26.9468 17.93 27.4244 18.3299 27.7568C18.7298 28.0893 19.2454 28.2492 19.7633 28.2014C20.2811 28.1537 20.7588 27.9022 21.0912 27.5023L30.8828 15.7523C30.9487 15.6588 31.0076 15.5606 31.0591 15.4585C31.0591 15.3606 31.0591 15.3018 31.1962 15.2039C31.2849 14.9794 31.3314 14.7404 31.3333 14.4989C31.3314 14.2575 31.2849 14.0185 31.1962 13.7939C31.1962 13.696 31.1962 13.6373 31.0591 13.5394C31.0076 13.4372 30.9487 13.3391 30.8828 13.2456L21.0912 1.4956C20.907 1.27454 20.6765 1.09676 20.4158 0.974914C20.1552 0.853064 19.871 0.790135 19.5833 0.790603C19.1257 0.789709 18.6822 0.949069 18.3299 1.24102C18.1316 1.40542 17.9677 1.60733 17.8476 1.83517C17.7274 2.06302 17.6534 2.31233 17.6297 2.56882C17.6061 2.82532 17.6333 3.08396 17.7097 3.32994C17.7862 3.57591 17.9104 3.80438 18.0753 4.00227L25.1841 12.5406L1.95826 12.5406C1.43888 12.5406 0.940764 12.7469 0.573505 13.1142C0.206246 13.4814 -7.69573e-05 13.9795 -7.70027e-05 14.4989C-7.70481e-05 15.0183 0.206246 15.5164 0.573505 15.8837C0.940763 16.2509 1.43888 16.4573 1.95826 16.4573Z" fill="#333333"/>
</svg>
