<?xml version="1.0" encoding="utf-8"?>
<!-- Generator: Adobe Illustrator 26.0.0, SVG Export Plug-In . SVG Version: 6.00 Build 0)  -->
<svg version="1.1" id="Layer_1" xmlns="http://www.w3.org/2000/svg" xmlns:xlink="http://www.w3.org/1999/xlink" x="0px" y="0px"
	 viewBox="0 0 1054 289" style="enable-background:new 0 0 1054 289;" xml:space="preserve">
<style type="text/css">
	.st0{clip-path:url(#SVGID_00000127746974294304304040000006844560014644268418_);}
	.st1{fill:#F97C7C;}
	.st2{fill:#F6C451;}
	.st3{fill:#7CAEE8;}
	.st4{fill:#3AA075;}
</style>
<path d="M354.8,84.6c0-17.3,9.8-29.6,24.9-29.6c15.1,0,24.1,11.9,24.1,29.2c0,17.3-9.3,30.5-24.3,30.5
	C363.7,114.8,354.8,102,354.8,84.6z M404,115.6c0,5.1,0.5,9.4,0.9,11.4h15.9c-0.2-1.4-0.9-7.5-0.9-15.6V0.3h-16.3v54.4
	c-2.8-6.8-10.9-14.2-25.7-14.2c-23.8,0-39.9,20.3-39.9,44.1c0,25,15.2,44.6,39.9,44.6c13.1,0,22.1-7,26.1-15V115.6z M494.6,41.9
	c-0.9-0.2-3.1-0.5-5.4-0.5c-8.6,0-19.1,3.1-25.2,16.1V42.8h-16.1V127h16.4V84.8c0-18.5,9.3-25.9,23.1-25.9c2.3,0,4.7,0.2,7.2,0.5
	V41.9z M506.9,104.4c0,13.3,11,25.2,28.2,25.2c15,0,23.4-8.1,27.1-14c0,6.1,0.5,9.3,0.9,11.4h16.1c-0.3-2.1-1-6.5-1-13.8V71
	c0-16.5-9.8-30.8-35-30.8c-18.2,0-32.7,11.2-34.5,27.3l15.7,3.7c1.1-9.8,7.5-17,19.1-17c12.8,0,18.2,6.8,18.2,15.1
	c0,3-1.4,5.6-6.5,6.3l-22.8,3.3C517.9,81,506.9,89.4,506.9,104.4z M537.3,115.8c-8.4,0-13.6-6-13.6-12.2c0-7.5,5.2-11.6,12.2-12.6
	l25.7-3.8v3.8C561.7,109.3,550.8,115.8,537.3,115.8z M651.2,42.8l-21.9,63.4l-18.9-63.4h-18L620,127h17.3l21.9-64.1l22.4,64.1h17
	l27.3-84.2h-17.3L690,106.2l-21.9-63.4H651.2z M367,142.2h-15v13.6c0,7.4-3.9,12.9-13,12.9h-4.5v14.9h16.1v46.2
	c0,15.2,9.1,24,23.4,24c5.6,0,9.8-1.1,11.2-1.6v-14c-1.4,0.3-4.4,0.7-6.5,0.7c-8.6,0-11.7-3.9-11.7-11.6v-43.8h18.2v-14.9H367V142.2
	z M442.4,240.9c-14,0-26.2-10.5-26.2-30.1c0-19.4,12.2-29.9,26.2-29.9s26.2,10.5,26.2,29.9C468.7,230.4,456.4,240.9,442.4,240.9z
	 M442.4,166.2c-25.2,0-43.1,19.1-43.1,44.6c0,25.7,17.9,44.8,43.1,44.8c25.2,0,43-19.1,43-44.8C485.5,185.3,467.6,166.2,442.4,166.2
	z M500.4,257.5c2.1,18,17.9,31.3,38.9,31.3c31.7,0,42.2-20.8,42.2-42.2v-77.9h-16.3v11.7c-4.2-8.4-13-13.3-25.9-13.3
	c-23.1,0-38.7,18.2-38.7,40.9c0,23.8,16.3,40.8,38.7,40.8c12.6,0,21.7-6.1,25.7-13.8v12.1c0,18.2-8,27.3-25.7,27.3
	c-12.8,0-21.7-8.9-22.9-20.6L500.4,257.5z M541.7,235.1c-14.9,0-24.3-10.5-24.3-26.9c0-16.3,9.8-26.9,24.3-26.9
	c14.2,0,24,10.7,24,26.9S555.8,235.1,541.7,235.1z M618.3,202.2c0.7-10.9,9.1-21.5,22.9-21.5c14.9,0,22.8,9.4,23.1,21.5H618.3z
	 M666.8,224.1c-3.1,9.4-10,17-23.6,17c-14.2,0-25-10.5-25.4-25.6h63.4c0.2-1.1,0.3-3.2,0.3-5.2c0-26.2-14.5-44.1-40.4-44.1
	c-21.2,0-40.2,18-40.2,44.4c0,28.5,19.8,45,42.3,45c19.6,0,33.1-11.7,37.8-26.6L666.8,224.1z M724.6,142.2h-15v13.6
	c0,7.4-3.9,12.9-13,12.9H692v14.9h16.1v46.2c0,15.2,9.1,24,23.5,24c5.6,0,9.8-1.1,11.2-1.6v-14c-1.4,0.3-4.4,0.7-6.5,0.7
	c-8.6,0-11.7-3.9-11.7-11.6v-43.8h18.2v-14.9h-18.2V142.2z M781.2,203.5c0.3-12.4,7-22.2,19.6-22.2c14.7,0,19.6,9.4,19.6,21.2V253
	h16.5v-53.4c0-18.7-10-33.2-30.1-33.2c-9.6,0-19.4,3.3-25.5,12.2v-52.3h-16.5V253h16.5V203.5z M873.7,202.2
	c0.7-10.9,9.1-21.5,22.9-21.5c14.9,0,22.8,9.4,23.1,21.5H873.7z M922.1,224.1c-3.2,9.4-10,17-23.6,17c-14.2,0-25-10.5-25.4-25.6
	h63.3c0.2-1.1,0.4-3.2,0.4-5.2c0-26.2-14.5-44.1-40.4-44.1c-21.2,0-40.2,18-40.2,44.4c0,28.5,19.8,45,42.3,45
	c19.6,0,33.1-11.7,37.8-26.6L922.1,224.1z M1004.6,167.9c-0.9-0.2-3.2-0.5-5.4-0.5c-8.6,0-19.1,3.1-25.2,16.1v-14.7h-16.1V253h16.5
	v-42.2c0-18.6,9.3-25.9,23.1-25.9c2.3,0,4.7,0.2,7.2,0.5V167.9z M1004.6,241.8c0,6.8,5.2,12.1,12.1,12.1c6.8,0,12.2-5.2,12.2-12.1
	s-5.4-12.2-12.2-12.2C1009.9,229.6,1004.6,235,1004.6,241.8z"/>
<g>
	<defs>
		<rect id="SVGID_1_" y="1" width="252.9" height="252.9"/>
	</defs>
	<clipPath id="SVGID_00000028327223551103423350000000600834356955024040_">
		<use xlink:href="#SVGID_1_"  style="overflow:visible;"/>
	</clipPath>
	<g style="clip-path:url(#SVGID_00000028327223551103423350000000600834356955024040_);">
		<path class="st1" d="M192.1,188.2c8,0,15.9-1.6,23.3-4.6c7.4-3.1,14.1-7.5,19.7-13.2c5.6-5.6,10.1-12.3,13.2-19.7
			c3.1-7.4,4.6-15.3,4.6-23.3l0,0c0-16.1-6.4-31.6-17.8-43c-11.4-11.4-26.9-17.8-43-17.8h-4.9v45.9c0,0.4-0.1,0.8-0.3,1.1
			c-0.2,0.3-0.4,0.6-0.8,0.8c-0.3,0.2-0.7,0.3-1.1,0.4s-0.8,0-1.1-0.2c-2.1-1-4.4-1.5-6.8-1.4c-3.7,0.2-7.2,1.8-9.7,4.5
			c-2.5,2.7-3.9,6.3-3.8,10c0.1,3.7,1.6,7.2,4.3,9.8c2.6,2.6,6.2,4,9.9,4.1c2.1,0,4.1-0.5,6-1.3c0.3-0.2,0.7-0.3,1.1-0.2
			c0.4,0,0.8,0.1,1.1,0.3c0.3,0.2,0.6,0.5,0.8,0.8c0.2,0.3,0.3,0.7,0.3,1.1v45.9"/>
		<path class="st2" d="M65.6,66.6h45.9c0.4,0,0.7-0.1,1.1-0.3c0.3-0.2,0.6-0.5,0.8-0.8c0.2-0.3,0.3-0.7,0.3-1.1c0-0.4,0-0.8-0.2-1.1
			c-0.9-1.9-1.4-3.9-1.3-6c0-2.1,0.5-4.2,1.4-6.2s2.3-3.6,3.9-5c1.7-1.3,3.6-2.3,5.7-2.8c2.1-0.5,4.2-0.5,6.3,0
			c2.1,0.5,4,1.4,5.7,2.7c1.7,1.3,3,3,3.9,4.9c0.9,1.9,1.4,4,1.4,6.2c0,2.1-0.5,4.2-1.4,6.2c-0.2,0.3-0.2,0.7-0.2,1.1
			c0,0.4,0.1,0.8,0.4,1.1c0.2,0.3,0.5,0.6,0.8,0.8c0.3,0.2,0.7,0.3,1.1,0.3h45.9v-4.9c0-8-1.5-15.9-4.6-23.3
			c-3-7.4-7.5-14.1-13.2-19.8c-5.6-5.7-12.3-10.1-19.7-13.2S134.4,1,126.4,1l0,0c-16.1,0-31.6,6.4-43,17.8
			C72,30.2,65.6,45.7,65.6,61.8"/>
		<path class="st3" d="M65.6,188.2v-45.9c0-0.4-0.1-0.7-0.3-1.1c-0.2-0.3-0.5-0.6-0.8-0.8c-0.3-0.2-0.7-0.3-1.1-0.3
			c-0.4,0-0.8,0-1.1,0.2c-2.2,1.1-4.7,1.5-7.1,1.4c-2.4-0.2-4.8-1-6.9-2.3c-2-1.3-3.7-3.2-4.8-5.4c-1.1-2.2-1.6-4.6-1.5-7.1
			c0.2-3.6,1.6-6.9,4.1-9.4c2.5-2.5,5.9-4,9.4-4.2c2.3-0.1,4.7,0.4,6.8,1.4c0.3,0.2,0.7,0.2,1.1,0.2c0.4,0,0.8-0.1,1.1-0.4
			c0.3-0.2,0.6-0.5,0.8-0.8c0.2-0.3,0.3-0.7,0.3-1.1V66.6h-4.9c-16.1,0-31.6,6.4-43,17.8C6.4,95.8,0,111.3,0,127.4l0,0
			c0,16.1,6.4,31.6,17.8,43c11.4,11.4,26.9,17.8,43,17.8"/>
		<path class="st4" d="M187.2,188.2h-45.9c-0.4,0-0.7-0.1-1.1-0.3c-0.3-0.2-0.6-0.5-0.8-0.8c-0.2-0.3-0.3-0.7-0.3-1.1
			c0-0.4,0-0.8,0.2-1.1c1-2.2,1.5-4.6,1.3-7.1c-0.2-2.4-1-4.8-2.3-6.8c-1.3-2-3.2-3.7-5.4-4.8c-2.2-1.1-4.6-1.6-7-1.6
			c-3.6,0.2-6.9,1.6-9.4,4.2c-2.5,2.5-4,5.9-4.2,9.4c-0.1,2.3,0.4,4.7,1.4,6.8c0.2,0.3,0.2,0.7,0.2,1.1c0,0.4-0.1,0.8-0.4,1.1
			c-0.2,0.3-0.5,0.6-0.8,0.8c-0.3,0.2-0.7,0.3-1.1,0.3H65.6v4.9c0,8,1.6,15.9,4.6,23.3c3.1,7.4,7.5,14.1,13.2,19.7
			c11.4,11.4,26.9,17.8,43,17.8l0,0c16.1,0,31.6-6.4,43-17.8c11.4-11.4,17.8-26.9,17.8-43"/>
	</g>
</g>
</svg>
