<svg width="271" height="272" viewBox="0 0 271 272" fill="none" xmlns="http://www.w3.org/2000/svg">
<path d="M205.876 200.61C214.428 200.61 222.897 198.925 230.798 195.652C238.699 192.379 245.878 187.581 251.926 181.532C257.973 175.484 262.77 168.303 266.043 160.4C269.316 152.498 271 144.028 271 135.474C271 118.199 264.139 101.631 251.926 89.4154C239.713 77.2 223.148 70.3374 205.876 70.3374H200.676V119.523C200.683 119.937 200.585 120.345 200.391 120.709C200.196 121.074 199.912 121.383 199.565 121.607C199.218 121.831 198.819 121.962 198.407 121.989C197.995 122.016 197.582 121.937 197.209 121.76C194.945 120.662 192.442 120.149 189.929 120.269C185.963 120.458 182.227 122.191 179.52 125.096C176.813 128.002 175.349 131.85 175.439 135.821C175.529 139.791 177.168 143.569 180.005 146.348C182.841 149.127 186.651 150.688 190.622 150.696C192.851 150.697 195.053 150.205 197.07 149.257C197.445 149.068 197.861 148.978 198.28 148.995C198.699 149.012 199.107 149.136 199.464 149.354C199.822 149.573 200.118 149.88 200.324 150.245C200.53 150.61 200.639 151.022 200.641 151.441V200.61" fill="#F97C7C"/>
<path d="M70.3416 70.3376H119.501C119.906 70.3273 120.303 70.2171 120.655 70.0167C121.008 69.8163 121.305 69.5319 121.521 69.1888C121.737 68.8457 121.865 68.4545 121.894 68.05C121.922 67.6455 121.851 67.2402 121.685 66.8701C120.729 64.8552 120.237 62.6511 120.246 60.4206C120.241 58.1322 120.751 55.8721 121.74 53.8083C122.729 51.7444 124.17 49.9301 125.956 48.5002C127.742 47.0704 129.828 46.0617 132.058 45.5494C134.288 45.037 136.604 45.0341 138.836 45.5408C141.067 46.0476 143.155 47.051 144.945 48.4764C146.735 49.9017 148.181 51.7124 149.174 53.7737C150.168 55.835 150.684 58.0939 150.685 60.3823C150.685 62.6708 150.17 64.9298 149.177 66.9915C149 67.3648 148.921 67.7772 148.947 68.1895C148.974 68.6018 149.106 69.0005 149.33 69.3478C149.554 69.695 149.863 69.9793 150.227 70.1738C150.592 70.3682 151 70.4664 151.413 70.459H200.572V65.2578C200.588 56.6937 198.915 48.2106 195.65 40.2939C192.384 32.3771 187.59 25.1822 181.541 19.1209C175.492 13.0596 168.307 8.25079 160.398 4.9698C152.489 1.6888 144.011 -1.48649e-05 135.448 0V0C118.176 0 101.612 6.86256 89.3986 19.078C77.1855 31.2935 70.3242 47.8611 70.3242 65.1364" fill="#F6C451"/>
<path d="M70.3241 200.61V151.441C70.3138 151.036 70.2036 150.64 70.0032 150.287C69.8029 149.935 69.5185 149.637 69.1755 149.421C68.8325 149.205 68.4414 149.077 68.0369 149.048C67.6325 149.019 67.2273 149.091 66.8573 149.257C64.4896 150.399 61.8664 150.907 59.2437 150.732C56.6211 150.556 54.0887 149.704 51.8936 148.258C49.6986 146.812 47.916 144.821 46.7197 142.48C45.5235 140.139 44.9546 137.528 45.0684 134.902C45.2395 131.097 46.8194 127.491 49.501 124.786C52.1827 122.082 55.7742 120.472 59.577 120.269C62.0847 120.149 64.5822 120.662 66.84 121.76C67.2132 121.937 67.6255 122.016 68.0377 121.989C68.45 121.962 68.8486 121.831 69.1958 121.607C69.543 121.383 69.8272 121.074 70.0216 120.709C70.2161 120.345 70.3142 119.937 70.3068 119.523V70.3374H65.1066C47.8376 70.342 31.2776 77.2066 19.0682 89.4215C6.85887 101.636 -6.1172e-07 118.202 0 135.474H0C0 152.749 6.86125 169.317 19.0743 181.532C31.2874 193.748 47.852 200.61 65.1239 200.61" fill="#7CAEE8"/>
<path d="M200.572 200.645H151.413C151.007 200.635 150.611 200.525 150.258 200.324C149.906 200.124 149.609 199.839 149.392 199.496C149.176 199.153 149.048 198.762 149.02 198.357C148.991 197.953 149.063 197.548 149.229 197.178C150.336 194.814 150.818 192.205 150.626 189.601C150.435 186.998 149.577 184.487 148.136 182.311C146.695 180.135 144.718 178.366 142.396 177.174C140.074 175.982 137.484 175.408 134.876 175.506C131.071 175.685 127.469 177.27 124.766 179.954C122.063 182.638 120.452 186.231 120.246 190.035C120.126 192.543 120.639 195.041 121.737 197.299C121.914 197.672 121.993 198.085 121.966 198.497C121.939 198.909 121.808 199.308 121.584 199.655C121.36 200.002 121.051 200.287 120.687 200.481C120.322 200.676 119.914 200.774 119.501 200.766H70.3242V205.968C70.3242 214.521 72.0087 222.991 75.2815 230.894C78.5543 238.797 83.3513 245.977 89.3986 252.026C101.612 264.241 118.176 271.104 135.448 271.104C152.72 271.104 169.285 264.241 181.498 252.026C193.711 239.81 200.572 223.243 200.572 205.968" fill="#3AA075"/>
</svg>
