<svg width="1054" height="289" viewBox="0 0 1054 289" fill="none" xmlns="http://www.w3.org/2000/svg">
<path d="M354.8 84.6498C354.8 67.3248 364.6 55.0748 379.65 55.0748C394.7 55.0748 403.8 66.9748 403.8 84.2998C403.8 101.625 394.525 114.75 379.475 114.75C363.725 114.75 354.8 101.975 354.8 84.6498ZM403.975 115.625C403.975 120.7 404.5 125.075 404.85 127H420.775C420.6 125.6 419.9 119.475 419.9 111.425V0.299749H403.625V54.7248C400.825 47.8998 392.775 40.5498 377.9 40.5498C354.1 40.5498 338 60.8498 338 84.6498C338 109.675 353.225 129.275 377.9 129.275C391.025 129.275 399.95 122.275 403.975 114.225V115.625ZM494.606 41.9498C493.731 41.7748 491.456 41.4248 489.181 41.4248C480.606 41.4248 470.106 44.5748 463.981 57.5248V42.8247H447.881V127H464.331V84.8248C464.331 66.2748 473.606 58.9248 487.431 58.9248C489.706 58.9248 492.156 59.0998 494.606 59.4498V41.9498ZM506.889 104.425C506.889 117.725 517.914 129.625 535.064 129.625C550.114 129.625 558.514 121.575 562.189 115.625C562.189 121.75 562.714 124.9 563.064 127H579.164C578.814 124.9 578.114 120.525 578.114 113.175V70.9998C578.114 54.5497 568.314 40.1998 543.114 40.1998C524.914 40.1998 510.389 51.3998 508.639 67.4998L524.389 71.1748C525.439 61.3748 531.914 54.1998 543.464 54.1998C556.239 54.1998 561.664 61.0248 561.664 69.2498C561.664 72.2248 560.264 74.8498 555.189 75.5498L532.439 78.8748C517.914 80.9748 506.889 89.3748 506.889 104.425ZM537.339 115.8C528.939 115.8 523.689 109.85 523.689 103.55C523.689 96.0248 528.939 91.9998 535.939 90.9498L561.664 87.0998V90.9498C561.664 109.325 550.814 115.8 537.339 115.8ZM651.165 42.8247L629.29 106.175L610.39 42.8247H592.365L620.015 127H637.34L659.215 62.9498L681.615 127H698.59L725.89 42.8247H708.565L690.015 106.175L668.14 42.8247H651.165ZM367.05 142.225H352V155.875C352 163.225 348.15 168.825 339.05 168.825H334.5V183.7H350.6V229.9C350.6 245.125 359.7 253.875 374.05 253.875C379.65 253.875 383.85 252.825 385.25 252.3V238.3C383.85 238.65 380.875 239 378.775 239C370.2 239 367.05 235.15 367.05 227.45V183.7H385.25V168.825H367.05V142.225ZM442.403 240.925C428.403 240.925 416.153 230.425 416.153 210.825C416.153 191.4 428.403 180.9 442.403 180.9C456.403 180.9 468.653 191.4 468.653 210.825C468.653 230.425 456.403 240.925 442.403 240.925ZM442.403 166.2C417.203 166.2 399.353 185.275 399.353 210.825C399.353 236.55 417.203 255.625 442.403 255.625C467.603 255.625 485.453 236.55 485.453 210.825C485.453 185.275 467.603 166.2 442.403 166.2ZM500.374 257.55C502.474 275.575 518.224 288.875 539.224 288.875C570.899 288.875 581.399 268.05 581.399 246.7V168.825H565.124V180.55C560.924 172.15 552.174 167.25 539.224 167.25C516.124 167.25 500.549 185.45 500.549 208.2C500.549 232 516.824 248.975 539.224 248.975C551.824 248.975 560.924 242.85 564.949 235.15V247.225C564.949 265.425 556.899 274.525 539.224 274.525C526.449 274.525 517.524 265.6 516.299 253.875L500.374 257.55ZM541.674 235.15C526.799 235.15 517.349 224.65 517.349 208.2C517.349 191.925 527.149 181.25 541.674 181.25C555.849 181.25 565.649 191.925 565.649 208.2C565.649 224.475 555.849 235.15 541.674 235.15ZM618.346 202.25C619.046 191.4 627.446 180.725 641.271 180.725C656.146 180.725 664.021 190.175 664.371 202.25H618.346ZM666.821 224.125C663.671 233.575 656.846 241.1 643.196 241.1C629.021 241.1 618.171 230.6 617.821 215.55H681.171C681.346 214.5 681.521 212.4 681.521 210.3C681.521 184.05 666.996 166.2 641.096 166.2C619.921 166.2 600.846 184.225 600.846 210.65C600.846 239.175 620.621 255.625 643.196 255.625C662.796 255.625 676.271 243.9 680.996 229.025L666.821 224.125ZM724.57 142.225H709.52V155.875C709.52 163.225 705.67 168.825 696.57 168.825H692.02V183.7H708.12V229.9C708.12 245.125 717.22 253.875 731.57 253.875C737.17 253.875 741.37 252.825 742.77 252.3V238.3C741.37 238.65 738.395 239 736.295 239C727.72 239 724.57 235.15 724.57 227.45V183.7H742.77V168.825H724.57V142.225ZM781.177 203.475C781.527 191.05 788.177 181.25 800.777 181.25C815.477 181.25 820.377 190.7 820.377 202.425V253H836.827V199.625C836.827 180.9 826.852 166.375 806.727 166.375C797.102 166.375 787.302 169.7 781.177 178.625V126.3H764.727V253H781.177V203.475ZM873.668 202.25C874.368 191.4 882.768 180.725 896.593 180.725C911.468 180.725 919.343 190.175 919.693 202.25H873.668ZM922.143 224.125C918.993 233.575 912.168 241.1 898.518 241.1C884.343 241.1 873.493 230.6 873.143 215.55H936.493C936.668 214.5 936.843 212.4 936.843 210.3C936.843 184.05 922.318 166.2 896.418 166.2C875.243 166.2 856.168 184.225 856.168 210.65C856.168 239.175 875.943 255.625 898.518 255.625C918.118 255.625 931.593 243.9 936.318 229.025L922.143 224.125ZM1004.57 167.95C1003.69 167.775 1001.42 167.425 999.142 167.425C990.567 167.425 980.067 170.575 973.942 183.525V168.825H957.842V253H974.292V210.825C974.292 192.275 983.567 184.925 997.392 184.925C999.667 184.925 1002.12 185.1 1004.57 185.45V167.95ZM1004.63 241.8C1004.63 248.625 1009.88 253.875 1016.7 253.875C1023.53 253.875 1028.95 248.625 1028.95 241.8C1028.95 234.975 1023.53 229.55 1016.7 229.55C1009.88 229.55 1004.63 234.975 1004.63 241.8Z" fill="black"/>
<g clip-path="url(#clip0_111:14134)">
<path d="M205.876 203.61C214.428 203.61 222.897 201.925 230.798 198.652C238.699 195.379 245.878 190.581 251.926 184.532C257.973 178.484 262.77 171.303 266.043 163.4C269.316 155.498 271 147.028 271 138.474V138.474C271 121.199 264.139 104.631 251.926 92.4154C239.713 80.2 223.148 73.3374 205.876 73.3374H200.676V122.523C200.683 122.937 200.585 123.345 200.391 123.709C200.196 124.074 199.912 124.383 199.565 124.607C199.218 124.831 198.819 124.962 198.407 124.989C197.995 125.016 197.582 124.937 197.209 124.76C194.945 123.662 192.442 123.149 189.929 123.269C185.963 123.458 182.227 125.191 179.52 128.096C176.813 131.002 175.349 134.85 175.439 138.821C175.529 142.791 177.168 146.569 180.005 149.348C182.841 152.127 186.651 153.688 190.622 153.696C192.851 153.697 195.053 153.205 197.07 152.257C197.445 152.068 197.861 151.978 198.28 151.995C198.699 152.012 199.107 152.136 199.464 152.354C199.822 152.573 200.118 152.88 200.324 153.245C200.53 153.61 200.639 154.022 200.641 154.441V203.61" fill="#F97C7C"/>
<path d="M70.3416 73.3376H119.501C119.906 73.3273 120.303 73.2171 120.655 73.0167C121.008 72.8163 121.305 72.5319 121.521 72.1888C121.737 71.8457 121.865 71.4545 121.894 71.05C121.922 70.6455 121.851 70.2402 121.685 69.8701C120.729 67.8552 120.237 65.6511 120.246 63.4206C120.241 61.1322 120.751 58.8721 121.74 56.8083C122.729 54.7445 124.17 52.9301 125.956 51.5002C127.742 50.0704 129.828 49.0617 132.058 48.5494C134.288 48.037 136.604 48.0341 138.836 48.5408C141.067 49.0476 143.155 50.051 144.945 51.4764C146.735 52.9017 148.181 54.7124 149.174 56.7737C150.168 58.835 150.684 61.0939 150.685 63.3823C150.685 65.6708 150.17 67.9298 149.177 69.9915C149 70.3648 148.921 70.7772 148.947 71.1895C148.974 71.6018 149.106 72.0005 149.33 72.3478C149.554 72.695 149.863 72.9793 150.227 73.1738C150.592 73.3682 151 73.4664 151.413 73.459H200.572V68.2578C200.588 59.6937 198.915 51.2106 195.65 43.2939C192.384 35.3771 187.59 28.1822 181.541 22.1209C175.492 16.0596 168.307 11.2508 160.398 7.9698C152.489 4.6888 144.011 2.99999 135.448 3V3C118.176 3 101.612 9.86256 89.3986 22.078C77.1855 34.2935 70.3242 50.8611 70.3242 68.1364" fill="#F6C451"/>
<path d="M70.3241 203.61V154.441C70.3138 154.036 70.2036 153.64 70.0032 153.287C69.8029 152.935 69.5185 152.637 69.1755 152.421C68.8325 152.205 68.4414 152.077 68.0369 152.048C67.6325 152.019 67.2273 152.091 66.8573 152.257C64.4896 153.399 61.8664 153.907 59.2437 153.732C56.6211 153.556 54.0887 152.704 51.8936 151.258C49.6986 149.812 47.916 147.821 46.7197 145.48C45.5235 143.139 44.9546 140.528 45.0684 137.902C45.2395 134.097 46.8194 130.491 49.501 127.786C52.1827 125.082 55.7742 123.472 59.577 123.269C62.0847 123.149 64.5822 123.662 66.84 124.76C67.2132 124.937 67.6255 125.016 68.0377 124.989C68.45 124.962 68.8486 124.831 69.1958 124.607C69.543 124.383 69.8272 124.074 70.0216 123.709C70.2161 123.345 70.3142 122.937 70.3068 122.523V73.3374H65.1066C47.8376 73.342 31.2776 80.2066 19.0682 92.4215C6.85887 104.636 -6.1172e-07 121.202 0 138.474H0C0 155.749 6.86125 172.317 19.0743 184.532C31.2874 196.748 47.852 203.61 65.1239 203.61" fill="#7CAEE8"/>
<path d="M200.572 203.645H151.413C151.007 203.635 150.611 203.525 150.258 203.324C149.906 203.124 149.609 202.839 149.392 202.496C149.176 202.153 149.048 201.762 149.02 201.357C148.991 200.953 149.063 200.548 149.229 200.178C150.336 197.814 150.818 195.205 150.626 192.601C150.435 189.998 149.577 187.487 148.136 185.311C146.695 183.135 144.718 181.366 142.396 180.174C140.074 178.982 137.484 178.408 134.876 178.506C131.071 178.685 127.469 180.27 124.766 182.954C122.063 185.638 120.452 189.231 120.246 193.035C120.126 195.543 120.639 198.041 121.737 200.299C121.914 200.672 121.993 201.085 121.966 201.497C121.939 201.909 121.808 202.308 121.584 202.655C121.36 203.002 121.051 203.287 120.687 203.481C120.322 203.676 119.914 203.774 119.501 203.766H70.3242V208.968C70.3242 217.521 72.0087 225.991 75.2815 233.894C78.5543 241.797 83.3513 248.977 89.3986 255.026C101.612 267.241 118.176 274.104 135.448 274.104V274.104C152.72 274.104 169.285 267.241 181.498 255.026C193.711 242.81 200.572 226.243 200.572 208.968" fill="#3AA075"/>
</g>
<defs>
<clipPath id="clip0_111:14134">
<rect width="271" height="271" fill="white" transform="translate(0 3)"/>
</clipPath>
</defs>
</svg>
