<svg id="Layer_1" data-name="Layer 1" xmlns="http://www.w3.org/2000/svg" viewBox="0 0 293.46 118.03"><defs><style>.cls-1{fill:#f6c451;stroke:#171720;stroke-width:11px;}.cls-2{fill:#171720;}.cls-3{fill:#353641;}</style></defs><path class="cls-1" d="M273.46,5.5A14.5,14.5,0,0,1,288,20h0V98a14.5,14.5,0,0,1-14.5,14.5H107.88a54.58,54.58,0,0,1-28.18-7.84L6.23,60.32a1.5,1.5,0,0,1-.51-2.06,1.46,1.46,0,0,1,.51-.51L79.7,13.32a54.46,54.46,0,0,1,28.18-7.85Z" transform="translate(0 0.03)"/><rect class="cls-2" x="164.46" y="0.03" width="129" height="118" rx="20"/><path class="cls-2" d="M39.46,76,17.86,64.79a7,7,0,0,1-.25-12.29L39.46,40Z" transform="translate(0 0.03)"/><path class="cls-2" d="M110.46,0h163a20,20,0,0,1,20,20h0a20,20,0,0,1-20,20h-163a20,20,0,0,1-20-20h0a20,20,0,0,1,20-20Z" transform="translate(0 0.03)"/><path class="cls-3" d="M90.46,58.5A19.5,19.5,0,0,1,110,39h183.5V78H110A19.5,19.5,0,0,1,90.46,58.5Z" transform="translate(0 0.03)"/><path class="cls-2" d="M110.46,77.19h163a20.17,20.17,0,0,1,20,20.34v.07h0A20.17,20.17,0,0,1,273.52,118H110.46a20.17,20.17,0,0,1-20-20.34V97.6h0a20.17,20.17,0,0,1,19.93-20.41Z" transform="translate(0 0.03)"/><rect class="cls-2" x="252.17" y="77.22" width="41.29" height="17.87"/></svg>