<svg id="Layer_1" data-name="Layer 1" xmlns="http://www.w3.org/2000/svg" viewBox="0 0 293.46 118"><defs><style>.cls-1{fill:#f6c451;stroke:#171720;stroke-width:11px;}.cls-2{fill:#171720;}.cls-3{fill:#353641;}</style></defs><path class="cls-1" d="M280,6.18a14.5,14.5,0,0,1,14.5,14.5v78a14.5,14.5,0,0,1-14.5,14.5H114.42a54.58,54.58,0,0,1-28.18-7.84L12.77,61a1.5,1.5,0,0,1,0-2.57L86.24,14a54.49,54.49,0,0,1,28.18-7.85Z" transform="translate(-6.54 -0.68)"/><rect class="cls-2" x="164.46" width="129" height="118" rx="20"/><path class="cls-2" d="M46,76.68,24.4,65.47a7,7,0,0,1-.25-12.29L46,40.68Z" transform="translate(-6.54 -0.68)"/><path class="cls-2" d="M117,.68H280a20,20,0,0,1,20,20h0a20,20,0,0,1-20,20H117a20,20,0,0,1-20-20h0A20,20,0,0,1,117,.68Z" transform="translate(-6.54 -0.68)"/><path class="cls-3" d="M97,59.18a19.5,19.5,0,0,1,19.5-19.5H300v39H116.5A19.5,19.5,0,0,1,97,59.18Z" transform="translate(-6.54 -0.68)"/><path class="cls-2" d="M117,78.55H280a20,20,0,0,1,20,20.07h0a20,20,0,0,1-20,20.06H117A20,20,0,0,1,97,98.62h0A20,20,0,0,1,117,78.55Z" transform="translate(-6.54 -0.68)"/></svg>