<svg width="38" height="40" viewBox="0 0 38 40" fill="none" xmlns="http://www.w3.org/2000/svg">
<path d="M18.9368 0.623323C13.889 0.632593 9.30582 2.66695 5.92211 5.97409L3.20171 3.19186C2.04999 2.01397 0.0808716 2.84816 0.0808716 4.51388L0.0808717 14.9575C0.0808717 15.9901 0.899339 16.8272 1.909 16.8272L12.1205 16.8272C13.7492 16.8272 14.5649 14.8133 13.4132 13.6354L10.2331 10.3829C12.584 8.13162 15.6261 6.88455 18.858 6.85603C25.8961 6.79387 31.8288 12.6191 31.7679 20.0561C31.7102 27.1111 26.1176 33.031 18.9715 33.031C15.8388 33.031 12.878 31.8875 10.5446 29.7937C10.1833 29.4695 9.6377 29.4892 9.29782 29.8367L6.27669 32.9265C5.90558 33.3061 5.92394 33.9249 6.31341 34.2846C9.66314 37.379 14.1021 39.2632 18.9715 39.2632C29.4045 39.2632 37.862 30.6134 37.8621 19.9434C37.8622 9.2856 29.3578 0.604236 18.9368 0.623323Z" fill="#443E3E"/>
</svg>
