<svg width="40" height="66" viewBox="0 0 40 66" fill="none" xmlns="http://www.w3.org/2000/svg">
<path d="M2.30846 2.14171C1.76769 2.68138 1.33867 3.32239 1.04594 4.02807C0.753215 4.73375 0.602539 5.49023 0.602539 6.25421C0.602539 7.0182 0.753215 7.77468 1.04594 8.48036C1.33867 9.18603 1.76769 9.82705 2.30846 10.3667L24.9418 33L2.30846 55.6334C1.21776 56.7241 0.605009 58.2034 0.605009 59.7459C0.605009 61.2884 1.21776 62.7677 2.30846 63.8584C3.39917 64.9491 4.87848 65.5618 6.42096 65.5618C7.96345 65.5618 9.44276 64.9491 10.5335 63.8584L37.3085 37.0834C37.8492 36.5437 38.2783 35.9027 38.571 35.197C38.8637 34.4913 39.0144 33.7349 39.0144 32.9709C39.0144 32.2069 38.8637 31.4504 38.571 30.7447C38.2783 30.0391 37.8492 29.398 37.3085 28.8584L10.5335 2.08338C8.3168 -0.133287 4.58346 -0.133286 2.30846 2.14171Z" fill="#353641"/>
</svg>
