<svg width="36" height="36" viewBox="0 0 36 36" fill="none" xmlns="http://www.w3.org/2000/svg">
<path d="M13.3714 0C16.9178 0 20.3188 1.40877 22.8265 3.9164C25.3341 6.42403 26.7429 9.82511 26.7429 13.3714C26.7429 16.6834 25.5291 19.728 23.5337 22.0731L24.0891 22.6286H25.7143L36 32.9143L32.9143 36L22.6286 25.7143V24.0891L22.0731 23.5337C19.6468 25.6048 16.5615 26.7427 13.3714 26.7429C9.82511 26.7429 6.42403 25.3341 3.9164 22.8265C1.40877 20.3188 0 16.9178 0 13.3714C0 9.82511 1.40877 6.42403 3.9164 3.9164C6.42403 1.40877 9.82511 0 13.3714 0ZM13.3714 4.11429C8.22857 4.11429 4.11429 8.22857 4.11429 13.3714C4.11429 18.5143 8.22857 22.6286 13.3714 22.6286C18.5143 22.6286 22.6286 18.5143 22.6286 13.3714C22.6286 8.22857 18.5143 4.11429 13.3714 4.11429Z" fill="white"/>
</svg>
