<?xml version="1.0" encoding="utf-8"?>
<!-- Generator: Adobe Illustrator 26.0.1, SVG Export Plug-In . SVG Version: 6.00 Build 0)  -->
<svg version="1.1" id="Layer_1" xmlns="http://www.w3.org/2000/svg" xmlns:xlink="http://www.w3.org/1999/xlink" x="0px" y="0px"
	 viewBox="0 0 143.6 238.5" style="enable-background:new 0 0 143.6 238.5;" xml:space="preserve">
<style type="text/css">
	.st0{fill:url(#SVGID_1_);}
	.st1{fill:url(#SVGID_00000162348811186206513920000008077130309944326066_);}
	
		.st2{fill:none;stroke:url(#SVGID_00000179606896857615684260000004359744599482339243_);stroke-width:3;stroke-linecap:round;stroke-miterlimit:10;}
	
		.st3{fill:none;stroke:url(#SVGID_00000180357731153679382290000006087144641033787030_);stroke-width:3;stroke-linecap:round;stroke-miterlimit:10;}
	
		.st4{fill:none;stroke:url(#SVGID_00000178891514816984234360000002882153251962885782_);stroke-width:3;stroke-linecap:round;stroke-miterlimit:10;}
	
		.st5{fill:none;stroke:url(#SVGID_00000128483237520738747350000014298977131740973201_);stroke-width:3;stroke-linecap:round;stroke-miterlimit:10;}
	.st6{fill:url(#SVGID_00000128468709452941716830000012171323541918685072_);}
	.st7{fill:#353641;}
	.st8{opacity:0.51;}
	
		.st9{fill:none;stroke:url(#SVGID_00000147915373148509359060000001350153155444728468_);stroke-width:2;stroke-linecap:round;stroke-miterlimit:10;}
	
		.st10{fill:none;stroke:url(#SVGID_00000116233787610055757440000008782744672046264249_);stroke-width:2;stroke-linecap:round;stroke-miterlimit:10;}
	
		.st11{fill:none;stroke:url(#SVGID_00000006676122297859059870000016750072553896308876_);stroke-width:2;stroke-linecap:round;stroke-miterlimit:10;}
	
		.st12{fill:none;stroke:url(#SVGID_00000120531361700463471830000011776094390107824772_);stroke-width:2;stroke-linecap:round;stroke-miterlimit:10;}
	.st13{fill:url(#SVGID_00000089536003517042878500000016704489348722026421_);}
	
		.st14{fill:none;stroke:url(#SVGID_00000039848814735915567400000004640674905790486698_);stroke-linecap:round;stroke-miterlimit:10;}
	
		.st15{fill:none;stroke:url(#SVGID_00000036934660167228648200000006909428811816388772_);stroke-linecap:round;stroke-miterlimit:10;}
	
		.st16{fill:none;stroke:url(#SVGID_00000062889262655849590520000013323487922917262523_);stroke-linecap:round;stroke-miterlimit:10;}
	
		.st17{fill:none;stroke:url(#SVGID_00000122699965620389464070000010773041182519554965_);stroke-linecap:round;stroke-miterlimit:10;}
	.st18{fill:url(#SVGID_00000165916740481960722920000001583869934444671902_);}
	.st19{fill:url(#SVGID_00000008828696719095690580000000062905610384946345_);}
	.st20{fill:url(#SVGID_00000038414920618279557590000005273458930243443098_);}
	.st21{fill:url(#SVGID_00000036242043406103108080000002162275208486825362_);}
	.st22{fill:url(#SVGID_00000045577476062744293200000013501951488276039098_);}
	.st23{fill:url(#SVGID_00000183249335655739161100000005780239421930543782_);}
	.st24{fill:url(#SVGID_00000050645375337368724330000017750743465732470198_);}
	.st25{fill:url(#SVGID_00000144326030733408643290000004037895520749702811_);}
	.st26{fill:url(#SVGID_00000062874313066751529260000001954966006897340591_);}
	.st27{opacity:0.7;}
	.st28{fill:url(#SVGID_00000124152617514826603880000016809109586153090705_);}
	.st29{fill:url(#SVGID_00000173844728906144295330000001136257287497162155_);}
	.st30{fill:url(#SVGID_00000165210488792363041690000011699656304135616665_);}
	.st31{fill:url(#SVGID_00000078046608785491172750000015192360808595743364_);}
	.st32{fill:url(#SVGID_00000051344905885943936050000012295031695314558610_);}
	.st33{fill:url(#SVGID_00000103251780000139773070000007733420454252837798_);}
	.st34{fill:url(#SVGID_00000096039319375960935860000013783781119634131888_);}
</style>
<g id="Layer_2_00000072988430506511329050000012886075820415305383_">
	<g id="Layer_1-2">
		
			<linearGradient id="SVGID_1_" gradientUnits="userSpaceOnUse" x1="1.5334" y1="109.8557" x2="18.3041" y2="109.8557" gradientTransform="matrix(0.8741 -0.4857 -0.4857 -0.8741 65.2203 231.0195)">
			<stop  offset="0" style="stop-color:#F97C7C"/>
			<stop  offset="0.26" style="stop-color:#F98080"/>
			<stop  offset="0.51" style="stop-color:#FA8B8B"/>
			<stop  offset="0.76" style="stop-color:#FB9F9F"/>
			<stop  offset="1" style="stop-color:#FCB9B9"/>
		</linearGradient>
		<path class="st0" d="M9.9,128.2c0,0,16.3,8.1,20.3,4.4c1.4-1.3-3.2-7.9-3.2-7.9L9.9,128.2z"/>
		
			<linearGradient id="SVGID_00000115489491451375550230000012390978442753235090_" gradientUnits="userSpaceOnUse" x1="1.9334" y1="132.968" x2="18.7441" y2="132.968" gradientTransform="matrix(0.8741 -0.4857 -0.4857 -0.8741 65.2203 231.0195)">
			<stop  offset="0" style="stop-color:#F97C7C"/>
			<stop  offset="0.26" style="stop-color:#F98080"/>
			<stop  offset="0.51" style="stop-color:#FA8B8B"/>
			<stop  offset="0.76" style="stop-color:#FB9F9F"/>
			<stop  offset="1" style="stop-color:#FCB9B9"/>
		</linearGradient>
		<path style="fill:url(#SVGID_00000115489491451375550230000012390978442753235090_);" d="M5.7,119.9c0,0,1.8-18.1,7-19.5
			c1.8-0.5,5,6.9,5,6.9L5.7,119.9z"/>
		
			<linearGradient id="SVGID_00000166649010431190810200000012286631334761158790_" gradientUnits="userSpaceOnUse" x1="75.3034" y1="118.6593" x2="155.9334" y2="118.6593" gradientTransform="matrix(0.8741 -0.4857 -0.4857 -0.8741 65.2203 231.0195)">
			<stop  offset="0" style="stop-color:#F97C7C"/>
			<stop  offset="0.26" style="stop-color:#F98080"/>
			<stop  offset="0.51" style="stop-color:#FA8B8B"/>
			<stop  offset="0.76" style="stop-color:#FB9F9F"/>
			<stop  offset="1" style="stop-color:#FCB9B9"/>
		</linearGradient>
		
			<path style="fill:none;stroke:url(#SVGID_00000166649010431190810200000012286631334761158790_);stroke-width:3;stroke-linecap:round;stroke-miterlimit:10;" d="
			M74.9,90.3c7.6-1.6,14.9-4.5,21.4-8.7c10.1-6.4,12.6-12.2,22.9-19.6c6.9-4.9,14.5-8.6,22.6-11.1"/>
		
			<linearGradient id="SVGID_00000102532633467201723790000014289197642173970567_" gradientUnits="userSpaceOnUse" x1="76.1734" y1="127.7397" x2="162.7534" y2="127.7397" gradientTransform="matrix(0.8741 -0.4857 -0.4857 -0.8741 65.2203 231.0195)">
			<stop  offset="0" style="stop-color:#F97C7C"/>
			<stop  offset="0.26" style="stop-color:#F98080"/>
			<stop  offset="0.51" style="stop-color:#FA8B8B"/>
			<stop  offset="0.76" style="stop-color:#FB9F9F"/>
			<stop  offset="1" style="stop-color:#FCB9B9"/>
		</linearGradient>
		
			<path style="fill:none;stroke:url(#SVGID_00000102532633467201723790000014289197642173970567_);stroke-width:3;stroke-linecap:round;stroke-miterlimit:10;" d="
			M72.8,84.8c10.5-2.9,16.7-7.4,20.5-11c5.2-5.1,6.4-9.1,13.4-14.1c4.9-3.5,7.9-4,13.1-6.5c8.3-4,15.8-9.7,21.8-16.7"/>
		
			<linearGradient id="SVGID_00000122000535305488715260000018267907102522269366_" gradientUnits="userSpaceOnUse" x1="75.3634" y1="136.1107" x2="131.4734" y2="136.1107" gradientTransform="matrix(0.8741 -0.4857 -0.4857 -0.8741 65.2203 231.0195)">
			<stop  offset="0" style="stop-color:#F97C7C"/>
			<stop  offset="0.26" style="stop-color:#F98080"/>
			<stop  offset="0.51" style="stop-color:#FA8B8B"/>
			<stop  offset="0.76" style="stop-color:#FB9F9F"/>
			<stop  offset="1" style="stop-color:#FCB9B9"/>
		</linearGradient>
		
			<path style="fill:none;stroke:url(#SVGID_00000122000535305488715260000018267907102522269366_);stroke-width:3;stroke-linecap:round;stroke-miterlimit:10;" d="
			M69.4,80.3c3.3-5.1,7.6-9.5,12.6-12.9c6.5-4.4,10.6-4.5,16.3-8.8c3.3-2.5,7.8-7,11.3-15.2"/>
		
			<linearGradient id="SVGID_00000090281789307337654330000016197907104647136656_" gradientUnits="userSpaceOnUse" x1="72.6734" y1="109.1807" x2="130.7534" y2="109.1807" gradientTransform="matrix(0.8741 -0.4857 -0.4857 -0.8741 65.2203 231.0195)">
			<stop  offset="0" style="stop-color:#F97C7C"/>
			<stop  offset="0.26" style="stop-color:#F98080"/>
			<stop  offset="0.51" style="stop-color:#FA8B8B"/>
			<stop  offset="0.76" style="stop-color:#FB9F9F"/>
			<stop  offset="1" style="stop-color:#FCB9B9"/>
		</linearGradient>
		
			<path style="fill:none;stroke:url(#SVGID_00000090281789307337654330000016197907104647136656_);stroke-width:3;stroke-linecap:round;stroke-miterlimit:10;" d="
			M75.5,96.8c8.5,0.7,14.3-1.1,17.9-2.9c8.7-4.3,10.8-11,20.6-15.4c4-1.8,8.3-2.8,12.7-3"/>
		
			<linearGradient id="SVGID_00000039820411676734097810000003610338691381472903_" gradientUnits="userSpaceOnUse" x1="-6.9644" y1="122.0184" x2="80.684" y2="122.0184" gradientTransform="matrix(0.8741 -0.4857 -0.4857 -0.8741 65.2203 231.0195)">
			<stop  offset="0" style="stop-color:#F97C7C"/>
			<stop  offset="0.26" style="stop-color:#F98080"/>
			<stop  offset="0.51" style="stop-color:#FA8B8B"/>
			<stop  offset="0.76" style="stop-color:#FB9F9F"/>
			<stop  offset="1" style="stop-color:#FCB9B9"/>
		</linearGradient>
		<path style="fill:url(#SVGID_00000039820411676734097810000003610338691381472903_);" d="M0.2,128.3c-3.5-4.6,48.9-51.6,61.7-52
			C75,75.8,82.5,91.2,76,101.6C67.8,114.5,4.6,134.1,0.2,128.3z"/>
		<path class="st7" d="M68.7,104c0.3,0.3,1.3,0,2-0.8c0.7-0.8,1-1.7,0.5-2.1c-0.5-0.4-1.3,0-2,0.8C68.5,102.7,68.4,103.7,68.7,104z"
			/>
		<path class="st7" d="M57.3,81.6c0.2,0.4,1.2,0.6,2.2,0.2c1-0.4,1.7-1.1,1.4-1.7s-1.2-0.6-2.2-0.2C57.7,80.3,57.1,81.1,57.3,81.6z"
			/>
	</g>
</g>
<g id="Layer_2_00000023252177959967896450000009209615305920422829_">
	<g id="Layer_1-2_00000018938260724025892650000013664960852150853822_">
		<g class="st8">
			
				<image style="overflow:visible;enable-background:new    ;" width="120" height="106" xlink:href="19091211.png"  transform="matrix(0.1893 -0.3125 0.3125 0.1893 34.5346 37.4966)">
			</image>
		</g>
		
			<linearGradient id="SVGID_00000149364659674297812010000000514858502957278864_" gradientUnits="userSpaceOnUse" x1="54.3394" y1="195.0948" x2="54.3394" y2="179.2565" gradientTransform="matrix(0.5181 -0.8553 -0.8553 -0.5181 198.3887 181.9003)">
			<stop  offset="0" style="stop-color:#7BAEE8"/>
			<stop  offset="0.73" style="stop-color:#B0CEF1"/>
			<stop  offset="1" style="stop-color:#C5DBF5"/>
		</linearGradient>
		
			<path style="fill:none;stroke:url(#SVGID_00000149364659674297812010000000514858502957278864_);stroke-width:2;stroke-linecap:round;stroke-miterlimit:10;" d="
			M71.8,43c-0.1-2.3-0.7-3.1-1.2-3.3c-1-0.5-2,0.5-3.1,0c-1.1-0.6-0.6-1.9-1.8-2.6c-1-0.6-1.8,0.1-3-0.4c-1-0.5-1.4-1.6-1.7-2.4"/>
		
			<linearGradient id="SVGID_00000013174117183773456170000000032391438695200396_" gradientUnits="userSpaceOnUse" x1="59.265" y1="195.4126" x2="59.265" y2="176.407" gradientTransform="matrix(0.5181 -0.8553 -0.8553 -0.5181 198.3887 181.9003)">
			<stop  offset="0" style="stop-color:#7BAEE8"/>
			<stop  offset="0.73" style="stop-color:#B0CEF1"/>
			<stop  offset="1" style="stop-color:#C5DBF5"/>
		</linearGradient>
		
			<path style="fill:none;stroke:url(#SVGID_00000013174117183773456170000000032391438695200396_);stroke-width:2;stroke-linecap:round;stroke-miterlimit:10;" d="
			M62.5,30.9c0.6-0.1,1.2,0,1.7,0.3c1.3,0.7,1,1.9,1.8,2.8c1.5,1.6,3.9-1,5.5,0.7c0.8,0.9,0.4,1.7,1.4,2.2c1,0.5,2-0.3,3,0.1
			c0.9,0.3,1.3,1.2,1.5,2.1"/>
		
			<linearGradient id="SVGID_00000085966994631642064120000016603867863751563428_" gradientUnits="userSpaceOnUse" x1="64.2283" y1="195.4126" x2="64.2283" y2="176.776" gradientTransform="matrix(0.5181 -0.8553 -0.8553 -0.5181 198.3887 181.9003)">
			<stop  offset="0" style="stop-color:#7BAEE8"/>
			<stop  offset="0.73" style="stop-color:#B0CEF1"/>
			<stop  offset="1" style="stop-color:#C5DBF5"/>
		</linearGradient>
		
			<path style="fill:none;stroke:url(#SVGID_00000085966994631642064120000016603867863751563428_);stroke-width:2;stroke-linecap:round;stroke-miterlimit:10;" d="
			M64.4,27.8c0.9-0.4,2.1-0.7,3.1-0.3c2.2,0.7,1.8,3.5,4,4c1.3,0.2,1.9-0.7,3.3-0.2c1.1,0.4,1.1,1.1,2.2,1.7
			c0.7,0.4,1.8,0.7,3.6,0.3"/>
		
			<linearGradient id="SVGID_00000030461579751272768030000012518367781156124607_" gradientUnits="userSpaceOnUse" x1="68.2938" y1="195.5039" x2="68.2938" y2="181.9891" gradientTransform="matrix(0.5181 -0.8553 -0.8553 -0.5181 198.3887 181.9003)">
			<stop  offset="0" style="stop-color:#7BAEE8"/>
			<stop  offset="0.73" style="stop-color:#B0CEF1"/>
			<stop  offset="1" style="stop-color:#C5DBF5"/>
		</linearGradient>
		
			<path style="fill:none;stroke:url(#SVGID_00000030461579751272768030000012518367781156124607_);stroke-width:2;stroke-linecap:round;stroke-miterlimit:10;" d="
			M78.1,27.4c-0.8,0.3-1.9,0.7-2.8,0.3s-0.9-1.1-2-1.7c-1.1-0.6-1.8-0.1-3.3-0.4c-1.3-0.2-2.4-0.9-3.2-1.9"/>
		
			<linearGradient id="SVGID_00000152253909104901675150000015669178371197781399_" gradientUnits="userSpaceOnUse" x1="60.616" y1="208.1588" x2="60.616" y2="194.8985" gradientTransform="matrix(0.5181 -0.8553 -0.8553 -0.5181 198.3887 181.9003)">
			<stop  offset="0" style="stop-color:#7BAEE8"/>
			<stop  offset="0.24" style="stop-color:#7FB0E9"/>
			<stop  offset="0.47" style="stop-color:#8AB7EB"/>
			<stop  offset="0.69" style="stop-color:#9EC3EE"/>
			<stop  offset="0.92" style="stop-color:#B9D4F3"/>
			<stop  offset="1" style="stop-color:#C5DBF5"/>
		</linearGradient>
		<path style="fill:url(#SVGID_00000152253909104901675150000015669178371197781399_);" d="M57.6,38.1c-1.1,1.8-10.7-6.7-6.3-15.2
			c4.8-9.2,17.3-4.7,16.8-3.6c-0.7,1.5-2.2,1.2-3,2.6c-0.7,1.2,0.1,2.3-0.6,3.6c-0.7,1.2-1.8,0.9-2.8,2.5c-1.2,2.1,0,2.5-1,4.1
			c-1.1,1.9-1.8,0.9-2.7,2.6C57.2,36.4,58.3,37.1,57.6,38.1z"/>
	</g>
</g>
<g id="Layer_2_00000116918622663842793980000004592832528306541503_">
	<g id="Layer_1-2_00000114760097382807438700000012280189319042416283_">
		<g class="st8">
			
				<image style="overflow:visible;enable-background:new    ;" width="120" height="106" xlink:href="19091213.png"  transform="matrix(0.1765 -0.1065 0.1065 0.1765 72.8924 5.069)">
			</image>
		</g>
		
			<linearGradient id="SVGID_00000178899322490572248440000000952414271699372707_" gradientUnits="userSpaceOnUse" x1="87.5011" y1="182.6317" x2="87.5011" y2="173.822" gradientTransform="matrix(0.8561 -0.5168 -0.5168 -0.8561 105.7809 211.7135)">
			<stop  offset="0" style="stop-color:#7BAEE8"/>
			<stop  offset="0.73" style="stop-color:#B0CEF1"/>
			<stop  offset="1" style="stop-color:#C5DBF5"/>
		</linearGradient>
		
			<path style="fill:none;stroke:url(#SVGID_00000178899322490572248440000000952414271699372707_);stroke-linecap:round;stroke-miterlimit:10;" d="
			M90.1,17.6c0.6-1.2,0.5-1.7,0.2-2c-0.4-0.5-1.1-0.2-1.5-0.8c-0.4-0.6,0.2-1.1-0.2-1.8c-0.4-0.6-1-0.4-1.4-1
			c-0.4-0.5-0.3-1.2-0.2-1.6"/>
		
			<linearGradient id="SVGID_00000090294639994141157050000004458220060560267401_" gradientUnits="userSpaceOnUse" x1="90.2809" y1="182.8111" x2="90.2809" y2="172.2139" gradientTransform="matrix(0.8561 -0.5168 -0.5168 -0.8561 105.7809 211.7135)">
			<stop  offset="0" style="stop-color:#7BAEE8"/>
			<stop  offset="0.73" style="stop-color:#B0CEF1"/>
			<stop  offset="1" style="stop-color:#C5DBF5"/>
		</linearGradient>
		
			<path style="fill:none;stroke:url(#SVGID_00000090294639994141157050000004458220060560267401_);stroke-linecap:round;stroke-miterlimit:10;" d="
			M88.6,9.1c0.3,0.1,0.6,0.3,0.8,0.6c0.5,0.7,0,1.2,0.2,1.9c0.3,1.2,2.2,0.5,2.6,1.8c0.2,0.6-0.3,1,0.1,1.5c0.4,0.5,1.1,0.4,1.5,0.9
			c0.3,0.4,0.3,0.9,0.2,1.4"/>
		
			<linearGradient id="SVGID_00000147936698059356770460000009676538961589060530_" gradientUnits="userSpaceOnUse" x1="93.082" y1="182.8111" x2="93.082" y2="172.4221" gradientTransform="matrix(0.8561 -0.5168 -0.5168 -0.8561 105.7809 211.7135)">
			<stop  offset="0" style="stop-color:#7BAEE8"/>
			<stop  offset="0.73" style="stop-color:#B0CEF1"/>
			<stop  offset="1" style="stop-color:#C5DBF5"/>
		</linearGradient>
		
			<path style="fill:none;stroke:url(#SVGID_00000147936698059356770460000009676538961589060530_);stroke-linecap:round;stroke-miterlimit:10;" d="
			M90.4,8.1c0.5,0,1.2,0.2,1.6,0.6c0.9,0.9,0,2.3,0.9,3c0.6,0.5,1.1,0.1,1.7,0.7c0.5,0.5,0.3,0.9,0.7,1.4c0.2,0.4,0.7,0.8,1.7,1.1"
			/>
		
			<linearGradient id="SVGID_00000175295544477596612520000016164148896530489253_" gradientUnits="userSpaceOnUse" x1="95.3764" y1="182.8626" x2="95.3764" y2="175.3642" gradientTransform="matrix(0.8561 -0.5168 -0.5168 -0.8561 105.7809 211.7135)">
			<stop  offset="0" style="stop-color:#7BAEE8"/>
			<stop  offset="0.73" style="stop-color:#B0CEF1"/>
			<stop  offset="1" style="stop-color:#C5DBF5"/>
		</linearGradient>
		
			<path style="fill:none;stroke:url(#SVGID_00000175295544477596612520000016164148896530489253_);stroke-linecap:round;stroke-miterlimit:10;" d="
			M97.3,11.4c-0.5,0-1.1-0.2-1.5-0.6s-0.2-0.8-0.5-1.4c-0.4-0.6-0.9-0.5-1.5-1c-0.6-0.4-1-1.1-1.1-1.8"/>
		
			<linearGradient id="SVGID_00000051376751946639109820000004036177715476136352_" gradientUnits="userSpaceOnUse" x1="91.0433" y1="190.0688" x2="91.0433" y2="182.5853" gradientTransform="matrix(0.8561 -0.5168 -0.5168 -0.8561 105.7809 211.7135)">
			<stop  offset="0" style="stop-color:#7BAEE8"/>
			<stop  offset="0.24" style="stop-color:#7FB0E9"/>
			<stop  offset="0.47" style="stop-color:#8AB7EB"/>
			<stop  offset="0.69" style="stop-color:#9EC3EE"/>
			<stop  offset="0.92" style="stop-color:#B9D4F3"/>
			<stop  offset="1" style="stop-color:#C5DBF5"/>
		</linearGradient>
		<path style="fill:url(#SVGID_00000051376751946639109820000004036177715476136352_);" d="M84.3,11.4c-1,0.6-3.6-6.2,0.8-9.2
			c4.8-3.3,9.8,2.2,9.3,2.6c-0.7,0.6-1.4,0-2.2,0.5c-0.7,0.4-0.5,1.2-1.2,1.6c-0.7,0.4-1.1-0.1-2,0.5c-1.1,0.7-0.7,1.3-1.5,1.8
			c-1.1,0.6-1.1,0-2,0.6C84.5,10.5,84.9,11.1,84.3,11.4z"/>
	</g>
</g>
<g id="Layer_2_00000170977558920768194930000005651175660522968989_">
	<g id="Layer_1-2_00000144311190220415386500000013078588489713245601_">
		
			<linearGradient id="SVGID_00000018942332606134659780000017855357111290192817_" gradientUnits="userSpaceOnUse" x1="81.2749" y1="-27.8319" x2="65.1339" y2="22.1886" gradientTransform="matrix(1 0 0 -1 0 210.8995)">
			<stop  offset="0" style="stop-color:#39A075"/>
			<stop  offset="0.51" style="stop-color:#7CC0A4"/>
			<stop  offset="1" style="stop-color:#C1E1D4"/>
		</linearGradient>
		<path style="fill:url(#SVGID_00000018942332606134659780000017855357111290192817_);" d="M68,195.8c-5.3,1-7.4,6.8-7,14.7
			c1.5,26.5,36.6,31.3,31.6,26.2C75.1,218.9,79.5,193.7,68,195.8z"/>
		
			<linearGradient id="SVGID_00000008149819112976199770000012853546243041237905_" gradientUnits="userSpaceOnUse" x1="115.7926" y1="9.2434" x2="133.2867" y2="-12.5805" gradientTransform="matrix(1 0 0 -1 0 210.8995)">
			<stop  offset="0" style="stop-color:#C1E1D4"/>
			<stop  offset="1" style="stop-color:#39A075"/>
		</linearGradient>
		<path style="fill:url(#SVGID_00000008149819112976199770000012853546243041237905_);" d="M115.5,200.5c-3.2,1.9-4.8,4.4-2.5,9.6
			c7.9,17.5,30.2,9.6,25.6,7.3C122.8,209.6,122.4,196.4,115.5,200.5z"/>
		
			<linearGradient id="SVGID_00000059288114957118360560000008761561996458511245_" gradientUnits="userSpaceOnUse" x1="30.3897" y1="18.8165" x2="63.9451" y2="18.8165" gradientTransform="matrix(1 0 0 -1 0 210.8995)">
			<stop  offset="0" style="stop-color:#39A075"/>
			<stop  offset="0.51" style="stop-color:#7CC0A4"/>
			<stop  offset="1" style="stop-color:#C1E1D4"/>
		</linearGradient>
		<path style="fill:url(#SVGID_00000059288114957118360560000008761561996458511245_);" d="M41.4,183.5c-4.5-0.2-10.5,2.2-11,6.5
			c-0.4,3.2,4,8.2,10.1,8.6c5.2,0.4,15.7,3.6,23,1.1C67.1,198.5,47.4,183.7,41.4,183.5z"/>
		
			<linearGradient id="SVGID_00000173840921124220669620000012767201966672008322_" gradientUnits="userSpaceOnUse" x1="90.2072" y1="-1.5632" x2="101.9834" y2="42.7656" gradientTransform="matrix(1 0 0 -1 0 210.8995)">
			<stop  offset="1.000000e-02" style="stop-color:#39A075"/>
			<stop  offset="0.51" style="stop-color:#7CC0A4"/>
			<stop  offset="1" style="stop-color:#C1E1D4"/>
		</linearGradient>
		<path style="fill:url(#SVGID_00000173840921124220669620000012767201966672008322_);" d="M49.6,190.5c1.3-8.5,21-14,33.5-14.6
			c25.6-1.1,57.2,18.1,56.9,24c-0.3,6.6-39,17.5-64.2,8.7C64.4,204.8,48.7,196.1,49.6,190.5z"/>
		<path class="st7" d="M36.2,192c-0.6-0.1-1.1-0.7-1-1.4c0.2-0.6,0.8-1,1.4-0.8c0,0,0.1,0,0.1,0c0.9,0.2,1.2,0.8,1.1,1.4
			C37.5,191.8,36.8,192.1,36.2,192z"/>
	</g>
</g>
<g id="Layer_2_00000046327562144411533720000007671702582922056894_">
	<g id="Layer_1-2_00000062883796904332547680000017472850203401294501_">
		
			<linearGradient id="SVGID_00000152250457246734713780000016608301147852746161_" gradientUnits="userSpaceOnUse" x1="115.2217" y1="39.1916" x2="109.0099" y2="58.4415" gradientTransform="matrix(1 0 0 -1 0 210.8995)">
			<stop  offset="0" style="stop-color:#39A075"/>
			<stop  offset="0.51" style="stop-color:#7CC0A4"/>
			<stop  offset="1" style="stop-color:#C1E1D4"/>
		</linearGradient>
		<path style="fill:url(#SVGID_00000152250457246734713780000016608301147852746161_);" d="M110.1,155.2c-2,0.4-2.9,2.6-2.7,5.7
			c0.6,10.2,14.1,12,12.1,10.1C112.9,164.1,114.5,154.4,110.1,155.2z"/>
		
			<linearGradient id="SVGID_00000147210710651046578180000011595685554257354113_" gradientUnits="userSpaceOnUse" x1="128.5055" y1="53.4597" x2="135.2379" y2="45.061" gradientTransform="matrix(1 0 0 -1 0 210.8995)">
			<stop  offset="0" style="stop-color:#C1E1D4"/>
			<stop  offset="1" style="stop-color:#39A075"/>
		</linearGradient>
		<path style="fill:url(#SVGID_00000147210710651046578180000011595685554257354113_);" d="M128.4,157c-1.2,0.7-1.9,1.7-1,3.7
			c3,6.7,11.6,3.7,9.9,2.8C131.2,160.5,131.1,155.4,128.4,157z"/>
		
			<linearGradient id="SVGID_00000027600626925840554460000018072855266331366575_" gradientUnits="userSpaceOnUse" x1="95.639" y1="57.1438" x2="108.5524" y2="57.1438" gradientTransform="matrix(1 0 0 -1 0 210.8995)">
			<stop  offset="0" style="stop-color:#39A075"/>
			<stop  offset="0.51" style="stop-color:#7CC0A4"/>
			<stop  offset="1" style="stop-color:#C1E1D4"/>
		</linearGradient>
		<path style="fill:url(#SVGID_00000027600626925840554460000018072855266331366575_);" d="M99.9,150.5c-1.7-0.1-4,0.9-4.2,2.5
			c-0.2,1.2,1.6,3.2,3.9,3.3c2,0.1,6,1.4,8.8,0.4C109.8,156.2,102.2,150.5,99.9,150.5z"/>
		
			<linearGradient id="SVGID_00000109723472732718004260000000401670770637722792_" gradientUnits="userSpaceOnUse" x1="118.6591" y1="49.3009" x2="123.1911" y2="66.3604" gradientTransform="matrix(1 0 0 -1 0 210.8995)">
			<stop  offset="1.000000e-02" style="stop-color:#39A075"/>
			<stop  offset="0.51" style="stop-color:#7CC0A4"/>
			<stop  offset="1" style="stop-color:#C1E1D4"/>
		</linearGradient>
		<path style="fill:url(#SVGID_00000109723472732718004260000000401670770637722792_);" d="M103,153.2c0.5-3.3,8.1-5.4,12.9-5.6
			c9.8-0.4,22,7,21.9,9.2c-0.1,2.6-15,6.7-24.7,3.4C108.7,158.6,102.7,155.3,103,153.2z"/>
		<path class="st7" d="M97.9,153.7c-0.2,0-0.4-0.3-0.4-0.5c0.1-0.2,0.3-0.4,0.5-0.3c0,0,0,0,0,0c0.4,0.1,0.5,0.3,0.4,0.5
			C98.4,153.6,98.1,153.8,97.9,153.7z"/>
	</g>
</g>
<g id="Layer_2_00000011021995295754702410000007273052334964941459_">
	<g id="Layer_1-2_00000115506955946288071690000016666647380638026149_">
		<g class="st27">
			
				<linearGradient id="SVGID_00000148661250018024260480000015334461113784401561_" gradientUnits="userSpaceOnUse" x1="15.7107" y1="25.5845" x2="15.7107" y2="30.2092" gradientTransform="matrix(-1 0 0 -1 40.2459 210.8995)">
				<stop  offset="0" style="stop-color:#7BAEE8"/>
				<stop  offset="0.24" style="stop-color:#7FB0E9"/>
				<stop  offset="0.47" style="stop-color:#8AB7EB"/>
				<stop  offset="0.69" style="stop-color:#9EC3EE"/>
				<stop  offset="0.92" style="stop-color:#B9D4F3"/>
				<stop  offset="1" style="stop-color:#C5DBF5"/>
			</linearGradient>
			<circle style="fill:url(#SVGID_00000148661250018024260480000015334461113784401561_);" cx="24.5" cy="183" r="2.3"/>
			
				<linearGradient id="SVGID_00000160173223147616131750000015553434916045107879_" gradientUnits="userSpaceOnUse" x1="18.9625" y1="33.1418" x2="18.9625" y2="37.0861" gradientTransform="matrix(-1 0 0 -1 40.2459 210.8995)">
				<stop  offset="0" style="stop-color:#7BAEE8"/>
				<stop  offset="0.24" style="stop-color:#7FB0E9"/>
				<stop  offset="0.47" style="stop-color:#8AB7EB"/>
				<stop  offset="0.69" style="stop-color:#9EC3EE"/>
				<stop  offset="0.92" style="stop-color:#B9D4F3"/>
				<stop  offset="1" style="stop-color:#C5DBF5"/>
			</linearGradient>
			<circle style="fill:url(#SVGID_00000160173223147616131750000015553434916045107879_);" cx="21.3" cy="175.8" r="2"/>
			
				<linearGradient id="SVGID_00000124883025783870083800000009022840124934570914_" gradientUnits="userSpaceOnUse" x1="15.7107" y1="37.0861" x2="15.7107" y2="42.4636" gradientTransform="matrix(-1 0 0 -1 40.2459 210.8995)">
				<stop  offset="0" style="stop-color:#7BAEE8"/>
				<stop  offset="0.24" style="stop-color:#7FB0E9"/>
				<stop  offset="0.47" style="stop-color:#8AB7EB"/>
				<stop  offset="0.69" style="stop-color:#9EC3EE"/>
				<stop  offset="0.92" style="stop-color:#B9D4F3"/>
				<stop  offset="1" style="stop-color:#C5DBF5"/>
			</linearGradient>
			<circle style="fill:url(#SVGID_00000124883025783870083800000009022840124934570914_);" cx="24.5" cy="171.1" r="2.7"/>
			
				<linearGradient id="SVGID_00000044868763365298781640000004856986258271900551_" gradientUnits="userSpaceOnUse" x1="18.6373" y1="42.3311" x2="18.6373" y2="45.631" gradientTransform="matrix(-1 0 0 -1 40.2459 210.8995)">
				<stop  offset="0" style="stop-color:#7BAEE8"/>
				<stop  offset="0.24" style="stop-color:#7FB0E9"/>
				<stop  offset="0.47" style="stop-color:#8AB7EB"/>
				<stop  offset="0.69" style="stop-color:#9EC3EE"/>
				<stop  offset="0.92" style="stop-color:#B9D4F3"/>
				<stop  offset="1" style="stop-color:#C5DBF5"/>
			</linearGradient>
			<circle style="fill:url(#SVGID_00000044868763365298781640000004856986258271900551_);" cx="21.6" cy="166.9" r="1.6"/>
			
				<linearGradient id="SVGID_00000073695959968606139640000013337498183279641475_" gradientUnits="userSpaceOnUse" x1="19.3057" y1="29.6372" x2="19.3057" y2="32.1964" gradientTransform="matrix(-1 0 0 -1 40.2459 210.8995)">
				<stop  offset="0" style="stop-color:#7BAEE8"/>
				<stop  offset="0.24" style="stop-color:#7FB0E9"/>
				<stop  offset="0.47" style="stop-color:#8AB7EB"/>
				<stop  offset="0.69" style="stop-color:#9EC3EE"/>
				<stop  offset="0.92" style="stop-color:#B9D4F3"/>
				<stop  offset="1" style="stop-color:#C5DBF5"/>
			</linearGradient>
			<circle style="fill:url(#SVGID_00000073695959968606139640000013337498183279641475_);" cx="20.9" cy="180" r="1.3"/>
			
				<linearGradient id="SVGID_00000109029006651994623750000009363788021444182450_" gradientUnits="userSpaceOnUse" x1="16.7224" y1="46.3356" x2="16.7224" y2="48.8888" gradientTransform="matrix(-1 0 0 -1 40.2459 210.8995)">
				<stop  offset="0" style="stop-color:#7BAEE8"/>
				<stop  offset="0.24" style="stop-color:#7FB0E9"/>
				<stop  offset="0.47" style="stop-color:#8AB7EB"/>
				<stop  offset="0.69" style="stop-color:#9EC3EE"/>
				<stop  offset="0.92" style="stop-color:#B9D4F3"/>
				<stop  offset="1" style="stop-color:#C5DBF5"/>
			</linearGradient>
			<circle style="fill:url(#SVGID_00000109029006651994623750000009363788021444182450_);" cx="23.5" cy="163.3" r="1.3"/>
			
				<linearGradient id="SVGID_00000062871045654668342120000005240999151811755157_" gradientUnits="userSpaceOnUse" x1="16.0841" y1="31.4256" x2="16.0841" y2="32.7022" gradientTransform="matrix(-1 0 0 -1 40.2459 210.8995)">
				<stop  offset="0" style="stop-color:#7BAEE8"/>
				<stop  offset="0.24" style="stop-color:#7FB0E9"/>
				<stop  offset="0.47" style="stop-color:#8AB7EB"/>
				<stop  offset="0.69" style="stop-color:#9EC3EE"/>
				<stop  offset="0.92" style="stop-color:#B9D4F3"/>
				<stop  offset="1" style="stop-color:#C5DBF5"/>
			</linearGradient>
			<circle style="fill:url(#SVGID_00000062871045654668342120000005240999151811755157_);" cx="24.2" cy="178.8" r="0.6"/>
		</g>
	</g>
</g>
</svg>
