<?xml version="1.0" encoding="utf-8"?>
<!-- Generator: Adobe Illustrator 26.0.1, SVG Export Plug-In . SVG Version: 6.00 Build 0)  -->
<svg version="1.1" id="Layer_1" xmlns="http://www.w3.org/2000/svg" xmlns:xlink="http://www.w3.org/1999/xlink" x="0px" y="0px"
	 viewBox="0 0 129 206.6" style="enable-background:new 0 0 129 206.6;" xml:space="preserve">
<style type="text/css">
	.st0{fill:url(#SVGID_1_);}
	.st1{fill:url(#SVGID_00000052824955319858846250000003851631888485473211_);}
	.st2{fill:url(#SVGID_00000120522446956894012630000007146312607709732767_);}
	.st3{fill:url(#SVGID_00000171699300034896408720000010289198874005907855_);}
	.st4{fill:#353641;}
	.st5{fill:url(#SVGID_00000042734452646457702360000009587101930427015819_);}
	.st6{fill:url(#SVGID_00000143592683922942094160000002032715269261583758_);}
	.st7{fill:url(#SVGID_00000049182620936009435990000001152726878479172792_);}
	.st8{fill:url(#SVGID_00000165914366346339416810000013571381964201881509_);}
	.st9{fill:url(#SVGID_00000126297938852684794380000011963388435520212669_);}
	.st10{fill:url(#SVGID_00000145751284771678413200000003402659041766636474_);}
	.st11{fill:url(#SVGID_00000069358591438050921600000015600450139298877348_);}
	.st12{fill:url(#SVGID_00000028283339227538140800000007349424555434890384_);}
	.st13{fill:url(#SVGID_00000036250413070815726420000018083204382780441516_);}
	.st14{fill:url(#SVGID_00000068637766671757060910000004661628512445101751_);}
	.st15{fill:url(#SVGID_00000041974073994741136070000011706875283539525017_);}
	.st16{fill:url(#SVGID_00000059996623244515676160000006779748628143125678_);}
	.st17{fill:url(#SVGID_00000030478966992891197170000006888845391039332017_);}
	.st18{fill:url(#SVGID_00000139271713713945443080000017885062870514324148_);}
	.st19{fill:url(#SVGID_00000129926729454369970200000005431674000187891876_);}
	.st20{fill:url(#SVGID_00000108269478224058798890000012659088709708371100_);}
	.st21{fill:url(#SVGID_00000008131106155218957130000002820600507678405543_);}
	.st22{opacity:0.7;}
	.st23{fill:url(#SVGID_00000045612577336635096890000003367049767416843956_);}
	.st24{fill:url(#SVGID_00000155126642769364481320000008542631404796370094_);}
	.st25{fill:url(#SVGID_00000070104376700879246760000007536640059964447652_);}
	.st26{fill:url(#SVGID_00000158745074613147477860000013410389356666005405_);}
	.st27{fill:url(#SVGID_00000010994551550975822200000002500179496931887544_);}
	.st28{fill:url(#SVGID_00000183949986584560559130000015784483944677654427_);}
	.st29{fill:url(#SVGID_00000111912661842638006180000002223846800323884714_);}
	.st30{fill:url(#SVGID_00000065062501755541602270000009517623805399973555_);}
	.st31{fill:url(#SVGID_00000021837127550156198430000001671149453685355686_);}
	.st32{fill:url(#SVGID_00000163767345483685180750000011654323950574073256_);}
	.st33{fill:url(#SVGID_00000111191016940492978380000001061048562882757011_);}
	.st34{fill:url(#SVGID_00000164502255336383673200000008227671338774984322_);}
	.st35{fill:url(#SVGID_00000155134091648091067320000016447543088061251212_);}
	.st36{fill:url(#SVGID_00000064342547539801914230000012520401639732948614_);}
</style>
<g id="Layer_2_00000133521281061357839120000012491739936683259569_">
	<g id="Layer_1-2">
		
			<linearGradient id="SVGID_1_" gradientUnits="userSpaceOnUse" x1="-402.0992" y1="682.9062" x2="-377.5405" y2="682.9062" gradientTransform="matrix(-1 0 0 1 -306.8992 -582.479)">
			<stop  offset="0" style="stop-color:#FBB5CE"/>
			<stop  offset="1" style="stop-color:#FEE7EF"/>
		</linearGradient>
		<path class="st0" d="M95.2,104c-8-7.6-15.8-9.7-24.6-8.4l1.5,9.2C74.9,107.1,95.2,104,95.2,104z"/>
		
			<linearGradient id="SVGID_00000160897723493074159730000013415850435368895646_" gradientUnits="userSpaceOnUse" x1="-386.7992" y1="709.4395" x2="-372.7418" y2="709.4395" gradientTransform="matrix(-1 0 0 1 -306.8992 -582.479)">
			<stop  offset="0" style="stop-color:#FBB5CE"/>
			<stop  offset="1" style="stop-color:#FEE7EF"/>
		</linearGradient>
		<path style="fill:url(#SVGID_00000160897723493074159730000013415850435368895646_);" d="M79.9,125.2c-3.8,3.4-9,5-14.1,4.2
			l0.8-4.6C68.3,123.6,79.9,125.2,79.9,125.2z"/>
		
			<linearGradient id="SVGID_00000138537427993876777940000011222010119369551004_" gradientUnits="userSpaceOnUse" x1="-435.9138" y1="695.2612" x2="-306.887" y2="695.2612" gradientTransform="matrix(-1 0 0 1 -306.8992 -582.479)">
			<stop  offset="0" style="stop-color:#FBB5CE"/>
			<stop  offset="1" style="stop-color:#FEE7EF"/>
		</linearGradient>
		<path style="fill:url(#SVGID_00000138537427993876777940000011222010119369551004_);" d="M129,110.8c0.7,5.9-24,15.7-43.6,15.6
			c-29.4-0.2-31.8-8.1-52.5-8.8c-11.4-0.4-17.2,9.2-31.5,9.4c-3.1,0,11.9-14.2,11.9-14.2s-15.7-14.2-13-14.2c13.7,0,25.4,10,32.6,10
			c15.6,0.2,46.7-7,66.7-7C117.9,101.7,128.4,106.2,129,110.8z"/>
		
			<linearGradient id="SVGID_00000039827867182410733710000009945944617338555533_" gradientUnits="userSpaceOnUse" x1="-402.1884" y1="700.1987" x2="-384.7992" y2="700.1987" gradientTransform="matrix(-1 0 0 1 -306.8992 -582.479)">
			<stop  offset="0" style="stop-color:#FBB5CE"/>
			<stop  offset="1" style="stop-color:#FEE7EF"/>
		</linearGradient>
		<path style="fill:url(#SVGID_00000039827867182410733710000009945944617338555533_);" d="M95.2,119.3c-5.6-5.7-11.1-7.3-17.3-6.2
			l9.5,9.6C96.7,122.7,95.2,119.3,95.2,119.3z"/>
		<path class="st4" d="M114.7,108.7c0,0.5,0.7,1.2,1.6,1.2s1.7-0.4,1.7-1.2c0-0.8-0.7-1.2-1.7-1.2S114.7,108.2,114.7,108.7z"/>
	</g>
</g>
<g id="Layer_2_00000031912741376201784080000006010753878148213687_">
	<g id="Layer_1-2_00000167358031607183599650000016144880646111460499_">
		
			<linearGradient id="SVGID_00000168801471448510164130000000279743623078290850_" gradientUnits="userSpaceOnUse" x1="-447.2204" y1="767.5125" x2="-439.633" y2="767.5125" gradientTransform="matrix(-1 0 0 1 -395.8535 -582.479)">
			<stop  offset="0" style="stop-color:#F6C451"/>
			<stop  offset="0.84" style="stop-color:#FADE9D"/>
			<stop  offset="1" style="stop-color:#FBE3AC"/>
		</linearGradient>
		<path style="fill:url(#SVGID_00000168801471448510164130000000279743623078290850_);" d="M51.4,184.6c0,0-1.2,2.8-7.6,3.4
			c0,0,1.1-3.3,1.6-6C45.4,182,46.2,182.6,51.4,184.6z"/>
		
			<linearGradient id="SVGID_00000127009371348864717210000012233271916845942716_" gradientUnits="userSpaceOnUse" x1="-449.2156" y1="743.5977" x2="-435.2" y2="743.5977" gradientTransform="matrix(-1 0 0 1 -395.8535 -582.479)">
			<stop  offset="0" style="stop-color:#F6C451"/>
			<stop  offset="0.84" style="stop-color:#FADE9D"/>
			<stop  offset="1" style="stop-color:#FBE3AC"/>
		</linearGradient>
		<path style="fill:url(#SVGID_00000127009371348864717210000012233271916845942716_);" d="M42.6,164c0.3-1.7-3.2-5.6-3.2-5.6
			c6.1-0.3,9.4-1.2,14,4.8"/>
		
			<linearGradient id="SVGID_00000106842940790234931050000016735217871391662002_" gradientUnits="userSpaceOnUse" x1="-465.7535" y1="756.1625" x2="-406.4535" y2="756.1625" gradientTransform="matrix(-1 0 0 1 -395.8535 -582.479)">
			<stop  offset="0" style="stop-color:#F6C451"/>
			<stop  offset="0.84" style="stop-color:#FADE9D"/>
			<stop  offset="1" style="stop-color:#FBE3AC"/>
		</linearGradient>
		<path style="fill:url(#SVGID_00000106842940790234931050000016735217871391662002_);" d="M69.9,174.5c0,4.6-13.6,10.5-22.6,10.5
			s-12.4-6.7-15.1-7c-3.8-0.3-10.4,7-20.2,6.6c0,0,8.3-7.2,8.3-11c0-3.2-9.7-11-9.7-11c8.6-0.7,18.2,7.2,21.2,7.2s4.7-7.5,14.6-7.5
			S69.9,168.9,69.9,174.5z"/>
		
			<linearGradient id="SVGID_00000159470366901774106630000000649687638319024004_" gradientUnits="userSpaceOnUse" x1="-451.3724" y1="760.4086" x2="-436.5067" y2="760.4086" gradientTransform="matrix(-1 0 0 1 -395.8535 -582.479)">
			<stop  offset="0" style="stop-color:#F6C451"/>
			<stop  offset="0.84" style="stop-color:#FADE9D"/>
			<stop  offset="1" style="stop-color:#FBE3AC"/>
		</linearGradient>
		<path style="fill:url(#SVGID_00000159470366901774106630000000649687638319024004_);" d="M55.5,181.1c-3.7-6.3-9.6-7.6-14.9-7.5
			l6.8,8.1C49.1,183.1,55.5,181.1,55.5,181.1z"/>
		<path class="st4" d="M63,173c0,0.5,0.4,1,1,1c0.5,0,1-0.4,1-0.9V173c0.1-0.5-0.3-1-0.8-1c-0.1,0-0.1,0-0.2,0
			C63.4,172.1,63,172.5,63,173z"/>
	</g>
</g>
<g id="Layer_2_00000149348020878778285530000018202878339151422093_">
	<g id="Layer_1-2_00000034774955355708444240000017197077027716363667_">
		
			<linearGradient id="SVGID_00000032621009853726508630000011174405716407941310_" gradientUnits="userSpaceOnUse" x1="-359.6405" y1="647.1434" x2="-348.8405" y2="647.1434" gradientTransform="matrix(-1 0 0 1 -269.8812 -582.479)">
			<stop  offset="0" style="stop-color:#F97C7C"/>
			<stop  offset="0.26" style="stop-color:#F98080"/>
			<stop  offset="0.51" style="stop-color:#FA8B8B"/>
			<stop  offset="0.76" style="stop-color:#FB9F9F"/>
			<stop  offset="1" style="stop-color:#FCB9B9"/>
		</linearGradient>
		<path style="fill:url(#SVGID_00000032621009853726508630000011174405716407941310_);" d="M89.8,64.2c0,0-1.7,4-10.8,4.8
			c0,0,1.5-4.6,2.3-8.6C81.3,60.4,82.4,61.3,89.8,64.2z"/>
		
			<linearGradient id="SVGID_00000059279453629108856020000006078861504738891411_" gradientUnits="userSpaceOnUse" x1="-362.4812" y1="613.1548" x2="-342.5312" y2="613.1548" gradientTransform="matrix(-1 0 0 1 -269.8812 -582.479)">
			<stop  offset="0" style="stop-color:#F97C7C"/>
			<stop  offset="0.26" style="stop-color:#F98080"/>
			<stop  offset="0.51" style="stop-color:#FA8B8B"/>
			<stop  offset="0.76" style="stop-color:#FB9F9F"/>
			<stop  offset="1" style="stop-color:#FCB9B9"/>
		</linearGradient>
		<path style="fill:url(#SVGID_00000059279453629108856020000006078861504738891411_);" d="M77.2,34.9c0.4-2.5-4.6-8-4.6-8
			c8.7-0.5,13.3-1.8,20,6.8"/>
		
			<linearGradient id="SVGID_00000102521717052193104960000008792422715975115653_" gradientUnits="userSpaceOnUse" x1="-385.9812" y1="631.0934" x2="-301.5812" y2="631.0934" gradientTransform="matrix(-1 0 0 1 -269.8812 -582.479)">
			<stop  offset="0" style="stop-color:#F97C7C"/>
			<stop  offset="0.26" style="stop-color:#F98080"/>
			<stop  offset="0.51" style="stop-color:#FA8B8B"/>
			<stop  offset="0.76" style="stop-color:#FB9F9F"/>
			<stop  offset="1" style="stop-color:#FCB9B9"/>
		</linearGradient>
		<path style="fill:url(#SVGID_00000102521717052193104960000008792422715975115653_);" d="M116.1,49.8c0,6.5-19.4,14.9-32.2,14.9
			s-17.6-9.6-21.4-9.9c-5.4-0.5-14.8,10-28.7,9.4c0,0,11.8-10.2,11.8-15.6C45.5,44.1,31.7,33,31.7,33C44,32.1,57.6,43.3,61.8,43.3
			s6.7-10.7,20.9-10.7S116.1,41.9,116.1,49.8z"/>
		
			<linearGradient id="SVGID_00000003814694267566663970000003043049764781396637_" gradientUnits="userSpaceOnUse" x1="-365.5505" y1="637.1888" x2="-344.3905" y2="637.1888" gradientTransform="matrix(-1 0 0 1 -269.8812 -582.479)">
			<stop  offset="0" style="stop-color:#F97C7C"/>
			<stop  offset="0.26" style="stop-color:#F98080"/>
			<stop  offset="0.51" style="stop-color:#FA8B8B"/>
			<stop  offset="0.76" style="stop-color:#FB9F9F"/>
			<stop  offset="1" style="stop-color:#FCB9B9"/>
		</linearGradient>
		<path style="fill:url(#SVGID_00000003814694267566663970000003043049764781396637_);" d="M95.7,59.3c-5.3-9-13.7-10.9-21.2-10.6
			l9.7,11.4C86.6,62.1,95.7,59.3,95.7,59.3z"/>
		<path class="st4" d="M106.3,47.7c0,0.8,0.6,1.4,1.4,1.5c0.7,0.1,1.4-0.5,1.4-1.2c0-0.1,0-0.1,0-0.2c0.1-0.7-0.4-1.4-1.1-1.5
			c-0.1,0-0.2,0-0.3,0C106.9,46.3,106.3,47,106.3,47.7z"/>
	</g>
</g>
<g id="Layer_2_00000112615604269188759730000011460670947067631779_">
	<g id="Layer_1-2_00000061443000688554208800000016614332017056371887_">
		
			<linearGradient id="SVGID_00000155128537793310096450000002806924788802253190_" gradientUnits="userSpaceOnUse" x1="-344.2709" y1="774.2886" x2="-336.3149" y2="774.2886" gradientTransform="matrix(-0.9999 1.354423e-02 1.354423e-02 0.9999 -261.9465 -580.7007)">
			<stop  offset="0" style="stop-color:#F97C7C"/>
			<stop  offset="0.26" style="stop-color:#F98080"/>
			<stop  offset="0.51" style="stop-color:#FA8B8B"/>
			<stop  offset="0.76" style="stop-color:#FB9F9F"/>
			<stop  offset="1" style="stop-color:#FCB9B9"/>
		</linearGradient>
		<path style="fill:url(#SVGID_00000155128537793310096450000002806924788802253190_);" d="M86.6,190.8c0.1-1.2-1.8-3.5-1.8-3.5
			c4-1.3,6.9,1.9,8,3.2"/>
		
			<linearGradient id="SVGID_00000078032994951438118040000014565958377081078438_" gradientUnits="userSpaceOnUse" x1="-352.2231" y1="782.7867" x2="-321.9631" y2="782.7867" gradientTransform="matrix(-0.9999 1.354423e-02 1.354423e-02 0.9999 -261.9465 -580.7007)">
			<stop  offset="0" style="stop-color:#F97C7C"/>
			<stop  offset="0.26" style="stop-color:#F98080"/>
			<stop  offset="0.51" style="stop-color:#FA8B8B"/>
			<stop  offset="0.76" style="stop-color:#FB9F9F"/>
			<stop  offset="1" style="stop-color:#FCB9B9"/>
		</linearGradient>
		<path style="fill:url(#SVGID_00000078032994951438118040000014565958377081078438_);" d="M100.9,197.7c0,3-4.5,7.1-10.5,7.1
			s-8.3-4.5-10.1-4.5c-1.8,0-2.2,4.7-8.7,4.5c1.3-2.1,2-4.5,2.1-6.9c0-3.4-3.3-7.6-3.3-7.6c5.7-0.5,7.5,4.7,9.5,4.7s3.1-5,9.7-5.1
			C96.2,189.8,100.8,194,100.9,197.7z"/>
		
			<linearGradient id="SVGID_00000118365706240207184040000009805864894566053781_" gradientUnits="userSpaceOnUse" x1="-345.4731" y1="788.8781" x2="-336.0021" y2="788.8781" gradientTransform="matrix(-0.9999 1.354423e-02 1.354423e-02 0.9999 -261.9465 -580.7007)">
			<stop  offset="0" style="stop-color:#F97C7C"/>
			<stop  offset="0.26" style="stop-color:#F98080"/>
			<stop  offset="0.51" style="stop-color:#FA8B8B"/>
			<stop  offset="0.76" style="stop-color:#FB9F9F"/>
			<stop  offset="1" style="stop-color:#FCB9B9"/>
		</linearGradient>
		<path style="fill:url(#SVGID_00000118365706240207184040000009805864894566053781_);" d="M94.1,201.1c0,0-4.7,6.4-9.4,5.3
			c0,0,2.3-3.9,2-5.7C86.8,200.8,88.7,199.8,94.1,201.1z"/>
		<path class="st4" d="M94.7,195.9c0,0.6,0.5,1.4,1.1,1.3c0.6,0,1.1-0.5,1.1-1.4s-0.5-1.3-1.1-1.3C95.1,194.5,94.7,195.3,94.7,195.9
			z"/>
	</g>
</g>
<g id="Layer_2_00000155840835014978192980000012185631414202296726_">
	<g id="Layer_1-2_00000109716801196053785060000000257365117178992282_">
		
			<linearGradient id="SVGID_00000118371053137817044790000016742780460623212977_" gradientUnits="userSpaceOnUse" x1="-368.7666" y1="730.229" x2="-360.8066" y2="730.229" gradientTransform="matrix(-1 0 0 1 -262.743 -582.479)">
			<stop  offset="0" style="stop-color:#39A075"/>
			<stop  offset="0.51" style="stop-color:#7CC0A4"/>
			<stop  offset="1" style="stop-color:#C1E1D4"/>
		</linearGradient>
		<path style="fill:url(#SVGID_00000118371053137817044790000016742780460623212977_);" d="M99.8,149.7c0.2-1.1-1.8-3.6-1.8-3.6
			c4-1.2,6.9,2,8,3.3"/>
		
			<linearGradient id="SVGID_00000137821623990081918610000005830180463584470452_" gradientUnits="userSpaceOnUse" x1="-376.743" y1="738.8104" x2="-346.4831" y2="738.8104" gradientTransform="matrix(-1 0 0 1 -262.743 -582.479)">
			<stop  offset="0" style="stop-color:#39A075"/>
			<stop  offset="0.51" style="stop-color:#7CC0A4"/>
			<stop  offset="1" style="stop-color:#C1E1D4"/>
		</linearGradient>
		<path style="fill:url(#SVGID_00000137821623990081918610000005830180463584470452_);" d="M114,156.8c0,3-4.6,7-10.6,7
			s-8.2-4.6-10-4.6s-2.2,4.7-8.8,4.4c1.3-2.1,2-4.4,2.2-6.9c0-3.4-3.2-7.6-3.2-7.6c5.7-0.4,7.4,4.8,9.4,4.8s3.1-5,9.7-5
			C109.5,148.8,114,153.1,114,156.8z"/>
		
			<linearGradient id="SVGID_00000021096600937944660540000004887522154792521398_" gradientUnits="userSpaceOnUse" x1="-369.9766" y1="744.8491" x2="-360.4967" y2="744.8491" gradientTransform="matrix(-1 0 0 1 -262.743 -582.479)">
			<stop  offset="0" style="stop-color:#39A075"/>
			<stop  offset="0.51" style="stop-color:#7CC0A4"/>
			<stop  offset="1" style="stop-color:#C1E1D4"/>
		</linearGradient>
		<path style="fill:url(#SVGID_00000021096600937944660540000004887522154792521398_);" d="M107.2,160.1c0,0-4.7,6.3-9.5,5.2
			c0,0,2.3-3.8,2.1-5.7C99.9,159.7,101.8,158.7,107.2,160.1z"/>
		<path class="st4" d="M107.8,154.9c0,0.6,0.5,1.4,1.1,1.4s1.1-0.5,1.1-1.4s-0.5-1.4-1.1-1.4S107.8,154.3,107.8,154.9z"/>
	</g>
</g>
<g id="Layer_2_00000100347746419188373850000012916207375787460266_">
	<g id="Layer_1-2_00000036972518715719416440000003899359380406124949_">
		
			<linearGradient id="SVGID_00000009558001736643187230000014460321219392495288_" gradientUnits="userSpaceOnUse" x1="-321.3547" y1="584.4112" x2="-313.3947" y2="584.4112" gradientTransform="matrix(-1 0 0 1 -261.163 -582.479)">
			<stop  offset="0" style="stop-color:#7BAEE8"/>
			<stop  offset="0.24" style="stop-color:#7FB0E9"/>
			<stop  offset="0.47" style="stop-color:#8AB7EB"/>
			<stop  offset="0.69" style="stop-color:#9EC3EE"/>
			<stop  offset="0.92" style="stop-color:#B9D4F3"/>
			<stop  offset="1" style="stop-color:#C5DBF5"/>
		</linearGradient>
		<path style="fill:url(#SVGID_00000009558001736643187230000014460321219392495288_);" d="M54,3.9c0.1-1.1-1.8-3.6-1.8-3.6
			c4-1.2,6.9,2,8,3.3"/>
		
			<linearGradient id="SVGID_00000139262496377820392260000012783751446264186269_" gradientUnits="userSpaceOnUse" x1="-329.3147" y1="593.0434" x2="-299.0547" y2="593.0434" gradientTransform="matrix(-1 0 0 1 -261.163 -582.479)">
			<stop  offset="0" style="stop-color:#7BAEE8"/>
			<stop  offset="0.24" style="stop-color:#7FB0E9"/>
			<stop  offset="0.47" style="stop-color:#8AB7EB"/>
			<stop  offset="0.69" style="stop-color:#9EC3EE"/>
			<stop  offset="0.92" style="stop-color:#B9D4F3"/>
			<stop  offset="1" style="stop-color:#C5DBF5"/>
		</linearGradient>
		<path style="fill:url(#SVGID_00000139262496377820392260000012783751446264186269_);" d="M68.2,11.1c0,3-4.6,7-10.6,7
			s-8.2-4.6-10-4.6s-2.2,4.6-8.8,4.4c1.3-2.1,2-4.4,2.2-6.9c0-3.4-3.2-7.7-3.2-7.7c5.8-0.4,7.5,4.8,9.5,4.8s3.1-5,9.7-5
			S68.2,7.4,68.2,11.1z"/>
		
			<linearGradient id="SVGID_00000053505411161796857240000009714690422266164635_" gradientUnits="userSpaceOnUse" x1="-322.563" y1="599.1312" x2="-313.083" y2="599.1312" gradientTransform="matrix(-1 0 0 1 -261.163 -582.479)">
			<stop  offset="0" style="stop-color:#7BAEE8"/>
			<stop  offset="0.24" style="stop-color:#7FB0E9"/>
			<stop  offset="0.47" style="stop-color:#8AB7EB"/>
			<stop  offset="0.69" style="stop-color:#9EC3EE"/>
			<stop  offset="0.92" style="stop-color:#B9D4F3"/>
			<stop  offset="1" style="stop-color:#C5DBF5"/>
		</linearGradient>
		<path style="fill:url(#SVGID_00000053505411161796857240000009714690422266164635_);" d="M61.4,14.4c0,0-4.7,6.3-9.5,5.2
			c0,0,2.3-3.8,2.1-5.7C54,14,56,13,61.4,14.4z"/>
		<path class="st4" d="M62,9.2c0,0.6,0.5,1.4,1.1,1.4s1.1-0.5,1.1-1.4s-0.5-1.4-1.1-1.4S62,8.5,62,9.2z"/>
	</g>
</g>
<g id="Layer_2_00000075849777070666976170000003901056855136635779_">
	<g id="Layer_1-2_00000094616595393993368090000003510557327992550298_">
		<g class="st22">
			
				<linearGradient id="SVGID_00000103962362953641091050000018063042681524714411_" gradientUnits="userSpaceOnUse" x1="-341.1402" y1="620.7583" x2="-341.1402" y2="617.0529" gradientTransform="matrix(-1 0 0 1 -219.2402 -582.479)">
				<stop  offset="0" style="stop-color:#7BAEE8"/>
				<stop  offset="0.24" style="stop-color:#7FB0E9"/>
				<stop  offset="0.47" style="stop-color:#8AB7EB"/>
				<stop  offset="0.69" style="stop-color:#9EC3EE"/>
				<stop  offset="0.92" style="stop-color:#B9D4F3"/>
				<stop  offset="1" style="stop-color:#C5DBF5"/>
			</linearGradient>
			<circle style="fill:url(#SVGID_00000103962362953641091050000018063042681524714411_);" cx="121.9" cy="36.5" r="1.9"/>
			
				<linearGradient id="SVGID_00000080927477666474767580000000217653466883450254_" gradientUnits="userSpaceOnUse" x1="-338.5402" y1="614.7033" x2="-338.5402" y2="611.5431" gradientTransform="matrix(-1 0 0 1 -219.2402 -582.479)">
				<stop  offset="0" style="stop-color:#7BAEE8"/>
				<stop  offset="0.24" style="stop-color:#7FB0E9"/>
				<stop  offset="0.47" style="stop-color:#8AB7EB"/>
				<stop  offset="0.69" style="stop-color:#9EC3EE"/>
				<stop  offset="0.92" style="stop-color:#B9D4F3"/>
				<stop  offset="1" style="stop-color:#C5DBF5"/>
			</linearGradient>
			<circle style="fill:url(#SVGID_00000080927477666474767580000000217653466883450254_);" cx="119.3" cy="30.7" r="1.6"/>
			
				<linearGradient id="SVGID_00000160157975075602320720000016317009427804732862_" gradientUnits="userSpaceOnUse" x1="-341.1402" y1="611.5434" x2="-341.1402" y2="607.2349" gradientTransform="matrix(-1 0 0 1 -219.2402 -582.479)">
				<stop  offset="0" style="stop-color:#7BAEE8"/>
				<stop  offset="0.24" style="stop-color:#7FB0E9"/>
				<stop  offset="0.47" style="stop-color:#8AB7EB"/>
				<stop  offset="0.69" style="stop-color:#9EC3EE"/>
				<stop  offset="0.92" style="stop-color:#B9D4F3"/>
				<stop  offset="1" style="stop-color:#C5DBF5"/>
			</linearGradient>
			<circle style="fill:url(#SVGID_00000160157975075602320720000016317009427804732862_);" cx="121.9" cy="26.9" r="2.2"/>
			
				<linearGradient id="SVGID_00000124883787497272502170000014933651306106235574_" gradientUnits="userSpaceOnUse" x1="-338.7402" y1="607.3407" x2="-338.7402" y2="604.6968" gradientTransform="matrix(-1 0 0 1 -219.2402 -582.479)">
				<stop  offset="0" style="stop-color:#7BAEE8"/>
				<stop  offset="0.24" style="stop-color:#7FB0E9"/>
				<stop  offset="0.47" style="stop-color:#8AB7EB"/>
				<stop  offset="0.69" style="stop-color:#9EC3EE"/>
				<stop  offset="0.92" style="stop-color:#B9D4F3"/>
				<stop  offset="1" style="stop-color:#C5DBF5"/>
			</linearGradient>
			<circle style="fill:url(#SVGID_00000124883787497272502170000014933651306106235574_);" cx="119.5" cy="23.6" r="1.3"/>
			
				<linearGradient id="SVGID_00000002346544229912065610000006265613558672247719_" gradientUnits="userSpaceOnUse" x1="-338.2402" y1="617.5113" x2="-338.2402" y2="615.4607" gradientTransform="matrix(-1 0 0 1 -219.2402 -582.479)">
				<stop  offset="0" style="stop-color:#7BAEE8"/>
				<stop  offset="0.24" style="stop-color:#7FB0E9"/>
				<stop  offset="0.47" style="stop-color:#8AB7EB"/>
				<stop  offset="0.69" style="stop-color:#9EC3EE"/>
				<stop  offset="0.92" style="stop-color:#B9D4F3"/>
				<stop  offset="1" style="stop-color:#C5DBF5"/>
			</linearGradient>
			<circle style="fill:url(#SVGID_00000002346544229912065610000006265613558672247719_);" cx="119" cy="34" r="1"/>
			
				<linearGradient id="SVGID_00000173152302656301565990000016983087608071824512_" gradientUnits="userSpaceOnUse" x1="-340.3402" y1="604.1323" x2="-340.3402" y2="602.0866" gradientTransform="matrix(-1 0 0 1 -219.2402 -582.479)">
				<stop  offset="0" style="stop-color:#7BAEE8"/>
				<stop  offset="0.24" style="stop-color:#7FB0E9"/>
				<stop  offset="0.47" style="stop-color:#8AB7EB"/>
				<stop  offset="0.69" style="stop-color:#9EC3EE"/>
				<stop  offset="0.92" style="stop-color:#B9D4F3"/>
				<stop  offset="1" style="stop-color:#C5DBF5"/>
			</linearGradient>
			<circle style="fill:url(#SVGID_00000173152302656301565990000016983087608071824512_);" cx="121.1" cy="20.7" r="1"/>
			
				<linearGradient id="SVGID_00000173839724331473722020000006432700562895960747_" gradientUnits="userSpaceOnUse" x1="-340.8402" y1="616.0783" x2="-340.8402" y2="615.0555" gradientTransform="matrix(-1 0 0 1 -219.2402 -582.479)">
				<stop  offset="0" style="stop-color:#7BAEE8"/>
				<stop  offset="0.24" style="stop-color:#7FB0E9"/>
				<stop  offset="0.47" style="stop-color:#8AB7EB"/>
				<stop  offset="0.69" style="stop-color:#9EC3EE"/>
				<stop  offset="0.92" style="stop-color:#B9D4F3"/>
				<stop  offset="1" style="stop-color:#C5DBF5"/>
			</linearGradient>
			<circle style="fill:url(#SVGID_00000173839724331473722020000006432700562895960747_);" cx="121.6" cy="33.1" r="0.5"/>
		</g>
	</g>
</g>
<g id="Layer_2_00000151514622160041079620000001426916628217575857_">
	<g id="Layer_1-2_00000131368868149756245240000006446152911075940796_">
		<g class="st22">
			
				<linearGradient id="SVGID_00000016775889600866717690000003101357248054352280_" gradientUnits="userSpaceOnUse" x1="-309.5341" y1="763.6631" x2="-309.5341" y2="760.5107" gradientTransform="matrix(-1 0 0 1 -208.6341 -582.479)">
				<stop  offset="0" style="stop-color:#7BAEE8"/>
				<stop  offset="0.24" style="stop-color:#7FB0E9"/>
				<stop  offset="0.47" style="stop-color:#8AB7EB"/>
				<stop  offset="0.69" style="stop-color:#9EC3EE"/>
				<stop  offset="0.92" style="stop-color:#B9D4F3"/>
				<stop  offset="1" style="stop-color:#C5DBF5"/>
			</linearGradient>
			<circle style="fill:url(#SVGID_00000016775889600866717690000003101357248054352280_);" cx="100.9" cy="179.6" r="1.6"/>
			
				<linearGradient id="SVGID_00000006670173524730193270000009065101337949038519_" gradientUnits="userSpaceOnUse" x1="-308.2341" y1="768.798" x2="-308.2341" y2="766.1053" gradientTransform="matrix(-1 0 0 1 -208.6341 -582.479)">
				<stop  offset="0" style="stop-color:#7BAEE8"/>
				<stop  offset="0.24" style="stop-color:#7FB0E9"/>
				<stop  offset="0.47" style="stop-color:#8AB7EB"/>
				<stop  offset="0.69" style="stop-color:#9EC3EE"/>
				<stop  offset="0.92" style="stop-color:#B9D4F3"/>
				<stop  offset="1" style="stop-color:#C5DBF5"/>
			</linearGradient>
			<circle style="fill:url(#SVGID_00000006670173524730193270000009065101337949038519_);" cx="99.6" cy="184.9" r="1.3"/>
			
				<linearGradient id="SVGID_00000112615608151150808740000014225967036027774129_" gradientUnits="userSpaceOnUse" x1="-311.9341" y1="770.1937" x2="-311.9341" y2="766.5281" gradientTransform="matrix(-1 0 0 1 -208.6341 -582.479)">
				<stop  offset="0" style="stop-color:#7BAEE8"/>
				<stop  offset="0.24" style="stop-color:#7FB0E9"/>
				<stop  offset="0.47" style="stop-color:#8AB7EB"/>
				<stop  offset="0.69" style="stop-color:#9EC3EE"/>
				<stop  offset="0.92" style="stop-color:#B9D4F3"/>
				<stop  offset="1" style="stop-color:#C5DBF5"/>
			</linearGradient>
			<circle style="fill:url(#SVGID_00000112615608151150808740000014225967036027774129_);" cx="103.3" cy="185.9" r="1.8"/>
			
				<linearGradient id="SVGID_00000036972172821498650360000003355817747292228498_" gradientUnits="userSpaceOnUse" x1="-310.3341" y1="772.9396" x2="-310.3341" y2="770.6902" gradientTransform="matrix(-1 0 0 1 -208.6341 -582.479)">
				<stop  offset="0" style="stop-color:#7BAEE8"/>
				<stop  offset="0.24" style="stop-color:#7FB0E9"/>
				<stop  offset="0.47" style="stop-color:#8AB7EB"/>
				<stop  offset="0.69" style="stop-color:#9EC3EE"/>
				<stop  offset="0.92" style="stop-color:#B9D4F3"/>
				<stop  offset="1" style="stop-color:#C5DBF5"/>
			</linearGradient>
			<circle style="fill:url(#SVGID_00000036972172821498650360000003355817747292228498_);" cx="101.7" cy="189.3" r="1.1"/>
			
				<linearGradient id="SVGID_00000114035551221124078210000008150606401363217331_" gradientUnits="userSpaceOnUse" x1="-311.1341" y1="760.3793" x2="-311.1341" y2="758.6349" gradientTransform="matrix(-1 0 0 1 -208.6341 -582.479)">
				<stop  offset="0" style="stop-color:#7BAEE8"/>
				<stop  offset="0.24" style="stop-color:#7FB0E9"/>
				<stop  offset="0.47" style="stop-color:#8AB7EB"/>
				<stop  offset="0.69" style="stop-color:#9EC3EE"/>
				<stop  offset="0.92" style="stop-color:#B9D4F3"/>
				<stop  offset="1" style="stop-color:#C5DBF5"/>
			</linearGradient>
			<circle style="fill:url(#SVGID_00000114035551221124078210000008150606401363217331_);" cx="102.5" cy="177" r="0.9"/>
			
				<linearGradient id="SVGID_00000121240213302434996500000003622995365912587140_" gradientUnits="userSpaceOnUse" x1="-311.5341" y1="765.3994" x2="-311.5341" y2="763.6591" gradientTransform="matrix(-1 0 0 1 -208.6341 -582.479)">
				<stop  offset="0" style="stop-color:#7BAEE8"/>
				<stop  offset="0.24" style="stop-color:#7FB0E9"/>
				<stop  offset="0.47" style="stop-color:#8AB7EB"/>
				<stop  offset="0.69" style="stop-color:#9EC3EE"/>
				<stop  offset="0.92" style="stop-color:#B9D4F3"/>
				<stop  offset="1" style="stop-color:#C5DBF5"/>
			</linearGradient>
			<circle style="fill:url(#SVGID_00000121240213302434996500000003622995365912587140_);" cx="102.9" cy="182" r="0.9"/>
			
				<linearGradient id="SVGID_00000090252596493687361020000011595990210426918293_" gradientUnits="userSpaceOnUse" x1="-309.9341" y1="758.1999" x2="-309.9341" y2="757.3297" gradientTransform="matrix(-1 0 0 1 -208.6341 -582.479)">
				<stop  offset="0" style="stop-color:#7BAEE8"/>
				<stop  offset="0.24" style="stop-color:#7FB0E9"/>
				<stop  offset="0.47" style="stop-color:#8AB7EB"/>
				<stop  offset="0.69" style="stop-color:#9EC3EE"/>
				<stop  offset="0.92" style="stop-color:#B9D4F3"/>
				<stop  offset="1" style="stop-color:#C5DBF5"/>
			</linearGradient>
			<circle style="fill:url(#SVGID_00000090252596493687361020000011595990210426918293_);" cx="101.3" cy="175.3" r="0.4"/>
		</g>
	</g>
</g>
</svg>
