<svg width="1366" height="623" viewBox="0 0 1366 623" fill="none" xmlns="http://www.w3.org/2000/svg">
<path d="M548.976 205.498L620.562 246.143L606.588 257.83L548.976 205.498Z" fill="#E8CE8D" stroke="black" stroke-width="5" stroke-linecap="square"/>
<path d="M617.236 314.625C548.481 301.472 596.691 253.91 606.727 244.374C621.773 230.074 664.87 201.851 716.883 203.354C781.901 205.233 770.105 318.317 822.635 293.421C905.016 254.378 774.577 486.051 773.697 371.327C741.57 345.767 685.991 327.779 617.236 314.625Z" fill="#4C8CD7" stroke="black" stroke-width="5"/>
<path d="M760.727 312.99C796.848 316.154 771.49 344.448 769.836 348.639C762.834 356.798 742.109 373.608 715.227 375.567C681.625 378.017 670.198 359.15 657.657 331.775C645.116 304.401 671.928 282.962 685.487 299.344C699.046 315.726 724.606 309.826 760.727 312.99Z" fill="#7FB0EB" stroke="black" stroke-width="5"/>
<path d="M604.74 262.833C608.708 259.207 618.484 255.178 625.848 268.065" stroke="black" stroke-width="5" stroke-linecap="round"/>
<path d="M428.518 369.871C465.175 362.182 466.66 346.144 468.041 331.227C462.507 310.114 461.594 290.86 405.633 296.761C370.795 300.435 365.434 339.468 348.056 320.118C316.781 285.297 341.721 424.364 363.526 366.549C379.531 355.45 391.62 377.61 428.518 369.871Z" fill="#3AA075" stroke="black" stroke-width="5"/>
<path d="M400 326L383 343L404 346.5" stroke="black" stroke-width="5" stroke-linecap="round" stroke-linejoin="round"/>
<path d="M467 336.5C464 340.167 456 346.4 448 342" stroke="black" stroke-width="5" stroke-linecap="round"/>
<path d="M428.347 329.531C429.859 324.373 436.127 315.857 449.107 323.055" stroke="black" stroke-width="5" stroke-linecap="round"/>
<path d="M185.518 332.871C222.175 325.182 223.66 309.144 225.041 294.227C219.507 273.114 218.594 253.86 162.633 259.761C127.795 263.435 122.434 302.468 105.056 283.118C73.7808 248.297 98.7212 387.364 120.526 329.549C136.531 318.45 148.62 340.61 185.518 332.871Z" fill="#3AA075" stroke="black" stroke-width="5"/>
<path d="M157 289L140 306L161 309.5" stroke="black" stroke-width="5" stroke-linecap="round" stroke-linejoin="round"/>
<path d="M224 299.5C221 303.167 213 309.4 205 305" stroke="black" stroke-width="5" stroke-linecap="round"/>
<path d="M185.347 292.532C186.859 287.374 193.127 278.858 206.107 286.056" stroke="black" stroke-width="5" stroke-linecap="round"/>
<path d="M114.518 235.871C151.175 228.182 152.66 212.144 154.041 197.227C148.507 176.114 147.594 156.86 91.6328 162.761C56.7946 166.435 51.4344 205.468 34.0555 186.118C2.78083 151.297 27.7212 290.364 49.5261 232.549C65.5307 221.45 77.6196 243.61 114.518 235.871Z" fill="#FBB5CE" stroke="black" stroke-width="5"/>
<path d="M86 192L69 209L90 212.5" stroke="black" stroke-width="5" stroke-linecap="round" stroke-linejoin="round"/>
<path d="M153 202.5C150 206.167 142 212.4 134 208" stroke="black" stroke-width="5" stroke-linecap="round"/>
<path d="M114.347 195.532C115.859 190.374 122.127 181.858 135.107 189.056" stroke="black" stroke-width="5" stroke-linecap="round"/>
<path d="M95.518 516.871C132.175 509.182 133.66 493.144 135.041 478.227C129.507 457.114 128.594 437.86 72.6328 443.761C37.7946 447.435 32.4344 486.468 15.0555 467.118C-16.2192 432.297 8.72124 571.364 30.5261 513.549C46.5307 502.45 58.6196 524.61 95.518 516.871Z" fill="#4C8CD7" stroke="black" stroke-width="5"/>
<path d="M67 473L50 490L71 493.5" stroke="black" stroke-width="5" stroke-linecap="round" stroke-linejoin="round"/>
<path d="M134 483.5C131 487.167 123 493.4 115 489" stroke="black" stroke-width="5" stroke-linecap="round"/>
<path d="M95.3472 476.531C96.8587 471.373 103.127 462.857 116.107 470.055" stroke="black" stroke-width="5" stroke-linecap="round"/>
<path d="M320.605 293.396C345.91 288.088 346.935 277.017 347.888 266.719C344.068 252.144 343.438 238.852 304.806 242.926C280.756 245.462 277.056 272.408 265.058 259.05C243.468 235.012 260.685 331.015 275.738 291.103C286.787 283.441 295.132 298.739 320.605 293.396Z" fill="#F97C7C" stroke="black" stroke-width="5"/>
<path d="M300.917 263.111L289.182 274.847L303.679 277.263" stroke="black" stroke-width="5" stroke-linecap="round" stroke-linejoin="round"/>
<path d="M347.17 270.359C345.099 272.891 339.576 277.194 334.054 274.156" stroke="black" stroke-width="5" stroke-linecap="round"/>
<path d="M320.487 265.549C321.53 261.988 325.857 256.109 334.818 261.078" stroke="black" stroke-width="5" stroke-linecap="round"/>
<path d="M347.605 488.396C372.91 483.088 373.935 472.017 374.888 461.719C371.068 447.144 370.438 433.852 331.806 437.926C307.756 440.462 304.056 467.408 292.058 454.05C270.468 430.012 287.685 526.015 302.738 486.103C313.787 478.441 322.132 493.739 347.605 488.396Z" fill="#F97C7C" stroke="black" stroke-width="5"/>
<path d="M327.917 458.111L316.182 469.847L330.679 472.263" stroke="black" stroke-width="5" stroke-linecap="round" stroke-linejoin="round"/>
<path d="M374.17 465.359C372.099 467.891 366.576 472.194 361.054 469.156" stroke="black" stroke-width="5" stroke-linecap="round"/>
<path d="M347.487 460.549C348.53 456.988 352.857 451.109 361.818 456.078" stroke="black" stroke-width="5" stroke-linecap="round"/>
<path d="M33.6043 165.396C58.9097 160.088 59.9349 149.017 60.8882 138.719C57.0682 124.144 56.438 110.852 17.8058 114.926C-6.2444 117.462 -9.94471 144.408 -21.942 131.05C-43.5321 107.012 -26.3148 203.015 -11.2621 163.103C-0.213549 155.441 8.13193 170.739 33.6043 165.396Z" fill="#F97C7C" stroke="black" stroke-width="5"/>
<path d="M13.9171 135.111L2.1814 146.847L16.6785 149.263" stroke="black" stroke-width="5" stroke-linecap="round" stroke-linejoin="round"/>
<path d="M60.1699 142.359C58.0989 144.891 52.5762 149.194 47.0535 146.156" stroke="black" stroke-width="5" stroke-linecap="round"/>
<path d="M33.4863 137.549C34.5298 133.988 38.8569 128.109 47.8179 133.078" stroke="black" stroke-width="5" stroke-linecap="round"/>
<path d="M248.604 219.396C273.909 214.088 274.935 203.017 275.888 192.719C272.068 178.144 271.438 164.852 232.806 168.926C208.755 171.462 205.055 198.408 193.058 185.05C171.468 161.012 188.685 257.015 203.738 217.103C214.786 209.441 223.132 224.739 248.604 219.396Z" fill="#F97C7C" stroke="black" stroke-width="5"/>
<path d="M227.735 189L216 200.736L230.497 203.152" stroke="black" stroke-width="5" stroke-linecap="round" stroke-linejoin="round"/>
<path d="M275.17 196.359C273.099 198.891 267.576 203.194 262.053 200.156" stroke="black" stroke-width="5" stroke-linecap="round"/>
<path d="M248.486 191.549C249.53 187.988 253.857 182.109 262.818 187.078" stroke="black" stroke-width="5" stroke-linecap="round"/>
<path d="M228.605 467.396C253.91 462.088 254.935 451.017 255.888 440.719C252.068 426.144 251.438 412.852 212.806 416.926C188.756 419.462 185.056 446.408 173.058 433.05C151.468 409.012 168.685 505.015 183.738 465.103C194.787 457.441 203.132 472.739 228.605 467.396Z" fill="#F97C7C" stroke="black" stroke-width="5"/>
<path d="M208.917 437.111L197.182 448.847L211.679 451.263" stroke="black" stroke-width="5" stroke-linecap="round" stroke-linejoin="round"/>
<path d="M255.17 444.359C253.099 446.891 247.576 451.194 242.054 448.156" stroke="black" stroke-width="5" stroke-linecap="round"/>
<path d="M228.487 439.549C229.53 435.988 233.857 430.109 242.818 435.078" stroke="black" stroke-width="5" stroke-linecap="round"/>
<path d="M407.252 226.993C425.076 223.254 425.798 215.456 426.47 208.203C423.779 197.937 423.335 188.574 396.125 191.444C379.185 193.23 376.578 212.21 368.128 202.801C352.921 185.87 365.048 253.49 375.651 225.378C383.433 219.981 389.311 230.756 407.252 226.993Z" fill="#F6C451" stroke="black" stroke-width="5"/>
<path d="M393.386 205.661L385.12 213.927L395.331 215.629" stroke="black" stroke-width="5" stroke-linecap="round" stroke-linejoin="round"/>
<path d="M425.964 210.767C424.505 212.549 420.615 215.58 416.725 213.441" stroke="black" stroke-width="5" stroke-linecap="round"/>
<path d="M407.169 207.378C407.904 204.87 410.952 200.729 417.264 204.229" stroke="black" stroke-width="5" stroke-linecap="round"/>
<path d="M164.252 393.993C182.076 390.254 182.798 382.456 183.47 375.202C180.779 364.937 180.335 355.574 153.125 358.444C136.185 360.23 133.578 379.209 125.128 369.801C109.921 352.869 122.048 420.489 132.651 392.377C140.433 386.981 146.311 397.756 164.252 393.993Z" fill="#F6C451" stroke="black" stroke-width="5"/>
<path d="M150.386 372.66L142.12 380.926L152.331 382.628" stroke="black" stroke-width="5" stroke-linecap="round" stroke-linejoin="round"/>
<path d="M182.964 377.766C181.505 379.549 177.615 382.579 173.725 380.44" stroke="black" stroke-width="5" stroke-linecap="round"/>
<path d="M164.169 374.378C164.904 371.87 167.952 367.729 174.264 371.229" stroke="black" stroke-width="5" stroke-linecap="round"/>
<path d="M60.4689 397.776C81.7125 393.32 82.5731 384.026 83.3735 375.381C80.1666 363.145 79.6375 351.987 47.2063 355.407C27.0165 357.536 23.9101 380.156 13.8385 368.943C-4.28608 348.763 10.1676 429.356 22.8042 395.851C32.0793 389.419 39.0852 402.261 60.4689 397.776Z" fill="#4C8CD7" stroke="black" stroke-width="5"/>
<path d="M43.9419 372.352L34.0898 382.204L46.26 384.232" stroke="black" stroke-width="5" stroke-linecap="round" stroke-linejoin="round"/>
<path d="M82.7703 378.437C81.0318 380.561 76.3955 384.174 71.7593 381.624" stroke="black" stroke-width="5" stroke-linecap="round"/>
<path d="M60.3699 374.397C61.2458 371.408 64.8784 366.473 72.4011 370.644" stroke="black" stroke-width="5" stroke-linecap="round"/>
<path d="M279.252 376.993C297.076 373.254 297.798 365.456 298.47 358.202C295.779 347.937 295.335 338.574 268.125 341.444C251.185 343.23 248.578 362.209 240.128 352.801C224.921 335.869 237.048 403.489 247.651 375.377C255.433 369.981 261.311 380.756 279.252 376.993Z" fill="#FBB5CE" stroke="black" stroke-width="5"/>
<path d="M265.386 355.661L257.12 363.927L267.331 365.629" stroke="black" stroke-width="5" stroke-linecap="round" stroke-linejoin="round"/>
<path d="M297.964 360.767C296.505 362.549 292.615 365.58 288.725 363.441" stroke="black" stroke-width="5" stroke-linecap="round"/>
<path d="M279.169 357.378C279.904 354.87 282.952 350.729 289.264 354.229" stroke="black" stroke-width="5" stroke-linecap="round"/>
<path d="M25.2524 317.993C43.0764 314.254 43.7984 306.456 44.4699 299.202C41.7793 288.937 41.3354 279.574 14.1246 282.444C-2.81519 284.23 -5.42152 303.209 -13.8719 293.801C-29.079 276.869 -16.9519 344.489 -6.34944 316.377C1.43267 310.981 7.31084 321.756 25.2524 317.993Z" fill="#F6C451" stroke="black" stroke-width="5"/>
<path d="M11.3858 296.661L3.11963 304.927L13.3307 306.629" stroke="black" stroke-width="5" stroke-linecap="round" stroke-linejoin="round"/>
<path d="M43.9639 301.767C42.5052 303.549 38.6153 306.58 34.7253 304.441" stroke="black" stroke-width="5" stroke-linecap="round"/>
<path d="M25.1692 298.378C25.9041 295.87 28.952 291.729 35.2637 295.229" stroke="black" stroke-width="5" stroke-linecap="round"/>
<path d="M967.617 222.001C946.817 87.6008 1194.62 32.6674 1321.12 22.0008C1613.5 -2.65343 1716.32 768.001 1309.12 592.001C940.074 432.493 936.869 371.276 991.617 356.613L1030.56 321.001V360.729L1070.62 331.001V374.061L1117.13 341.501V388.167L1147.12 341.501L1159.62 399.653L1197.62 360.729L1212.12 411.618L1238.12 360.729L1247.75 417.906L1280.62 360.729L1306.57 423.143C1388.45 423.86 1421.98 387.368 1321.12 272.501C1316.2 266.903 1311.35 261.573 1306.57 256.501L1264.62 272.501V222.001L1224.12 256.501V189.112L1185.62 232.001V172.962L1147.12 222.001L1117.13 172.962L1096.62 232.001L1070.62 196.691V256.501L1030.56 232.001V297.001C1014.31 281.112 1000.98 270.726 991.439 264.398C985.824 265.786 981.081 263.656 977.069 256.501C973.317 249.808 970.204 238.72 967.617 222.001Z" fill="#9CA9BC"/>
<path d="M1224.12 189.112V256.501L1264.62 222.001V272.501L1306.57 256.501M1224.12 189.112L1185.62 232.001V172.962M1224.12 189.112C1210.61 181.607 1197.79 176.348 1185.62 172.962M1224.12 189.112C1249.18 203.042 1276.59 224.71 1306.57 256.501M1185.62 172.962L1147.12 222.001L1117.13 172.962M1185.62 172.962C1160.04 165.85 1137.32 167.002 1117.13 172.962M1306.57 256.501C1311.35 261.573 1316.2 266.903 1321.12 272.501C1421.98 387.368 1388.45 423.86 1306.57 423.143M1117.13 172.962L1096.62 232.001L1070.62 196.691M1117.13 172.962C1099.84 178.068 1084.4 186.702 1070.62 196.691M1070.62 196.691V256.501L1030.56 232.001M1070.62 196.691C1055.31 207.782 1042.05 220.544 1030.56 232.001M1030.56 232.001V297.001C1002.6 269.656 983.252 258.607 977.069 256.501M1030.56 232.001C1005.05 257.415 988.23 276.408 977.069 256.501M977.069 256.501C973.317 249.808 970.204 238.72 967.617 222.001C946.817 87.6008 1194.62 32.6674 1321.12 22.0008C1613.5 -2.65343 1716.32 768.001 1309.12 592.001C940.074 432.493 936.869 371.276 991.617 356.613M991.617 356.613C997.278 355.097 1003.56 354.079 1010.12 353.501C1016.77 355.901 1023.59 358.315 1030.56 360.729M991.617 356.613L1030.56 321.001V360.729M1030.56 360.729L1070.62 331.001V374.061M1030.56 360.729C1043.48 365.205 1056.89 369.68 1070.62 374.061M1070.62 374.061L1117.13 341.501V388.167M1070.62 374.061C1085.83 378.919 1101.43 383.662 1117.13 388.167M1117.13 388.167L1147.12 341.501L1159.62 399.653M1117.13 388.167C1131.26 392.219 1145.49 396.078 1159.62 399.653M1159.62 399.653L1197.62 360.729L1212.12 411.618M1159.62 399.653C1177.39 404.151 1195.02 408.2 1212.12 411.618M1212.12 411.618L1238.12 360.729L1247.75 417.906M1212.12 411.618C1224.31 414.057 1236.23 416.174 1247.75 417.906M1247.75 417.906L1280.62 360.729L1306.57 423.143M1247.75 417.906C1269.03 421.106 1288.92 422.989 1306.57 423.143" stroke="black" stroke-width="9"/>
<path d="M1026 195.5C1026 201.742 1024.06 207.245 1021.11 211.102C1018.16 214.956 1014.38 217 1010.5 217C1006.62 217 1002.84 214.956 999.889 211.102C996.939 207.245 995 201.742 995 195.5C995 189.259 996.939 183.756 999.889 179.899C1002.84 176.045 1006.62 174 1010.5 174C1014.38 174 1018.16 176.045 1021.11 179.899C1024.06 183.756 1026 189.259 1026 195.5Z" fill="white" stroke="black" stroke-width="8"/>
<path d="M1238.18 64.3631C1234.54 62.3426 1232.56 57.7089 1232.6 51.4673C1232.63 45.2675 1234.67 37.7327 1238.77 30.3682C1242.86 23.0037 1248.18 17.2903 1253.42 13.9866C1258.71 10.6606 1263.69 9.89634 1267.32 11.9169C1270.96 13.9374 1272.94 18.5711 1272.91 24.8127C1272.87 31.0125 1270.83 38.5473 1266.74 45.9118C1262.65 53.2763 1257.33 58.9897 1252.08 62.2934C1246.8 65.6194 1241.82 66.3837 1238.18 64.3631Z" fill="#DC9DB4" stroke="#6C243F" stroke-width="2"/>
<path d="M1251.01 56.2214C1249.15 59.9438 1244.61 62.1303 1238.38 62.3737C1232.18 62.6154 1224.56 60.9113 1217.02 57.1513C1209.48 53.3913 1203.54 48.3315 1200 43.2377C1196.45 38.1096 1195.46 33.1671 1197.32 29.4446C1199.17 25.7222 1203.71 23.5357 1209.95 23.2923C1216.15 23.0506 1223.76 24.7547 1231.3 28.5147C1238.84 32.2747 1244.79 37.3345 1248.32 42.4283C1251.88 47.5564 1252.87 52.4989 1251.01 56.2214Z" fill="#DC9DB4" stroke="#6C243F" stroke-width="2"/>
<path d="M1246.74 42.687C1250.09 45.1576 1251.46 50.0074 1250.62 56.1928C1249.79 62.3369 1246.8 69.5471 1241.8 76.3253C1236.79 83.1035 1230.78 88.0865 1225.15 90.6894C1219.49 93.3097 1214.45 93.4281 1211.1 90.9575C1207.76 88.4869 1206.39 83.6371 1207.22 77.4516C1208.05 71.3076 1211.05 64.0974 1216.05 57.3192C1221.05 50.541 1227.06 45.5579 1232.69 42.9551C1238.36 40.3347 1243.39 40.2164 1246.74 42.687Z" fill="#DC9DB4" stroke="#6C243F" stroke-width="2"/>
<path d="M1234.38 47.9085C1236.51 44.333 1241.2 42.4873 1247.43 42.7045C1253.63 42.9202 1261.1 45.1814 1268.34 49.4871C1275.59 53.7928 1281.14 59.2772 1284.29 64.6177C1287.46 69.9942 1288.08 74.9959 1285.95 78.5714C1283.83 82.1469 1279.14 83.9926 1272.9 83.7754C1266.71 83.5597 1259.23 81.2985 1251.99 76.9928C1244.75 72.6871 1239.19 67.2027 1236.04 61.8622C1232.87 56.4856 1232.26 51.484 1234.38 47.9085Z" fill="#DC9DB4" stroke="#6C243F" stroke-width="2"/>
<path d="M1248.29 50.4069C1249.27 54.4496 1247.2 59.0478 1242.59 63.2532C1238.01 67.4304 1231.09 71.0369 1222.9 73.0207C1214.71 75.0044 1206.9 74.9666 1200.92 73.3492C1194.89 71.721 1190.95 68.5769 1189.97 64.5342C1189 60.4914 1191.06 55.8933 1195.67 51.6878C1200.25 47.5106 1207.18 43.9041 1215.36 41.9204C1223.55 39.9366 1231.36 39.9745 1237.34 41.5918C1243.37 43.22 1247.31 46.3641 1248.29 50.4069Z" fill="#FBB5CE" stroke="#C25D81" stroke-width="2"/>
<path d="M1247.33 63.097C1243.43 64.5494 1238.62 63.0468 1233.9 58.9664C1229.2 54.9134 1224.8 48.4669 1221.86 40.5719C1218.92 32.677 1218.03 24.9212 1218.92 18.7863C1219.83 12.61 1222.48 8.32587 1226.38 6.87343C1230.28 5.42099 1235.09 6.92361 1239.81 11.004C1244.5 15.0571 1248.9 21.5036 1251.85 29.3985C1254.79 37.2934 1255.68 45.0492 1254.78 51.1841C1253.88 57.3604 1251.23 61.6446 1247.33 63.097Z" fill="#FBB5CE" stroke="#C25D81" stroke-width="2"/>
<path d="M1239.76 49.6252C1239.29 45.4927 1241.9 41.1836 1247 37.5784C1252.06 33.9973 1259.38 31.2711 1267.75 30.3111C1276.12 29.3511 1283.86 30.3503 1289.6 32.6926C1295.38 35.0507 1298.9 38.656 1299.37 42.7886C1299.85 46.9212 1297.23 51.2302 1292.14 54.8355C1287.08 58.4166 1279.76 61.1427 1271.39 62.1027C1263.02 63.0627 1255.28 62.0635 1249.54 59.7213C1243.76 57.3632 1240.24 53.7578 1239.76 49.6252Z" fill="#FBB5CE" stroke="#C25D81" stroke-width="2"/>
<path d="M1241.6 42.736C1245.64 41.7626 1250.24 43.8324 1254.43 48.4509C1258.6 53.0384 1262.2 59.9674 1264.17 68.1586C1266.14 76.3499 1266.09 84.1563 1264.47 90.1392C1262.83 96.1623 1259.68 100.096 1255.64 101.07C1251.59 102.043 1247 99.9735 1242.8 95.355C1238.63 90.7675 1235.03 83.8386 1233.06 75.6473C1231.09 67.456 1231.14 59.6496 1232.76 53.6668C1234.4 47.6436 1237.55 43.7095 1241.6 42.736Z" fill="#FBB5CE" stroke="#C25D81" stroke-width="2"/>
<circle cx="1241.83" cy="47.7852" r="17" fill="#F6C451" stroke="#8F6A13" stroke-width="2"/>
</svg>
