<?xml version="1.0" encoding="utf-8"?>
<!-- Generator: Adobe Illustrator 26.0.1, SVG Export Plug-In . SVG Version: 6.00 Build 0)  -->
<svg version="1.1" id="Layer_1" xmlns="http://www.w3.org/2000/svg" xmlns:xlink="http://www.w3.org/1999/xlink" x="0px" y="0px"
	 viewBox="0 0 153.1 100.1" style="enable-background:new 0 0 153.1 100.1;" xml:space="preserve">
<style type="text/css">
	.st0{fill:none;stroke:url(#SVGID_1_);stroke-width:3.79;stroke-linecap:round;stroke-miterlimit:10;}
	
		.st1{fill:none;stroke:url(#SVGID_00000104701899512096749270000000246936111275238022_);stroke-width:3.79;stroke-linecap:round;stroke-miterlimit:10;}
	
		.st2{fill:none;stroke:url(#SVGID_00000095331251604184928760000012655236089921582263_);stroke-width:3.79;stroke-linecap:round;stroke-miterlimit:10;}
	
		.st3{fill:none;stroke:url(#SVGID_00000153705062009580643920000008361174310254212283_);stroke-width:3.79;stroke-linecap:round;stroke-miterlimit:10;}
	
		.st4{fill:none;stroke:url(#SVGID_00000090294960917930270340000010513707586832060311_);stroke-width:3.79;stroke-linecap:round;stroke-miterlimit:10;}
	
		.st5{fill:none;stroke:url(#SVGID_00000003797237271264095910000015732658662882486687_);stroke-width:3.79;stroke-linecap:round;stroke-miterlimit:10;}
	
		.st6{fill:none;stroke:url(#SVGID_00000003063414533263336200000009911976221349088918_);stroke-width:3.79;stroke-linecap:round;stroke-miterlimit:10;}
	
		.st7{fill:none;stroke:url(#SVGID_00000025409524581468716080000016206586966658606470_);stroke-width:3.79;stroke-linecap:round;stroke-miterlimit:10;}
</style>
<g id="Layer_2_00000003825783631792911060000006390830648990036146_">
	<g id="Layer_1-2">
		
			<linearGradient id="SVGID_1_" gradientUnits="userSpaceOnUse" x1="-519.2391" y1="-1117.7057" x2="-519.2391" y2="-1067.5944" gradientTransform="matrix(0.9471 -0.3209 -0.3209 -0.9471 147.7308 -1126.3665)">
			<stop  offset="0" style="stop-color:#FAF4F4"/>
			<stop  offset="6.000000e-02" style="stop-color:#DFE8E2"/>
			<stop  offset="0.17" style="stop-color:#B3D5C5"/>
			<stop  offset="0.29" style="stop-color:#8EC5AD"/>
			<stop  offset="0.41" style="stop-color:#6FB798"/>
			<stop  offset="0.54" style="stop-color:#57AD89"/>
			<stop  offset="0.67" style="stop-color:#46A67E"/>
			<stop  offset="0.82" style="stop-color:#3CA177"/>
			<stop  offset="1" style="stop-color:#39A075"/>
		</linearGradient>
		<path class="st0" d="M12.1,97.7c-2.8-1.8-6.4-4.7-6.8-8.8C4.8,84,9.6,82,9.3,76.8s-5.2-6.1-6.9-12c-0.9-3.2-0.8-7.5,2.3-13.5"/>
		
			<linearGradient id="SVGID_00000150081665770519400940000015701080323723450008_" gradientUnits="userSpaceOnUse" x1="-346.665" y1="-1014.5696" x2="-346.665" y2="-953.1245" gradientTransform="matrix(0.9729 -0.2314 -0.2314 -0.9729 126.0988 -968.3082)">
			<stop  offset="0" style="stop-color:#FAF4F4"/>
			<stop  offset="6.000000e-02" style="stop-color:#DFE8E2"/>
			<stop  offset="0.17" style="stop-color:#B3D5C5"/>
			<stop  offset="0.29" style="stop-color:#8EC5AD"/>
			<stop  offset="0.41" style="stop-color:#6FB798"/>
			<stop  offset="0.54" style="stop-color:#57AD89"/>
			<stop  offset="0.67" style="stop-color:#46A67E"/>
			<stop  offset="0.82" style="stop-color:#3CA177"/>
			<stop  offset="1" style="stop-color:#39A075"/>
		</linearGradient>
		
			<path style="fill:none;stroke:url(#SVGID_00000150081665770519400940000015701080323723450008_);stroke-width:3.79;stroke-linecap:round;stroke-miterlimit:10;" d="
			M20,97.9c-6.2-5.6-7.2-9.7-6.9-12.6c0.6-6.1,7.6-8.4,7-13.8c-0.5-4.3-5.1-5-5.1-9.4c0-3.6,3.2-4.6,4.3-8.5c0.8-2.7,0.6-7-4.3-13.7
			"/>
		
			<linearGradient id="SVGID_00000041279501985798060200000015394049792231502229_" gradientUnits="userSpaceOnUse" x1="36.3606" y1="-703.8853" x2="36.3606" y2="-663.2952" gradientTransform="matrix(1 0 0 -1 0 -603.7971)">
			<stop  offset="0" style="stop-color:#FAF4F4"/>
			<stop  offset="6.000000e-02" style="stop-color:#DFE8E2"/>
			<stop  offset="0.17" style="stop-color:#B3D5C5"/>
			<stop  offset="0.29" style="stop-color:#8EC5AD"/>
			<stop  offset="0.41" style="stop-color:#6FB798"/>
			<stop  offset="0.54" style="stop-color:#57AD89"/>
			<stop  offset="0.67" style="stop-color:#46A67E"/>
			<stop  offset="0.82" style="stop-color:#3CA177"/>
			<stop  offset="1" style="stop-color:#39A075"/>
		</linearGradient>
		
			<path style="fill:none;stroke:url(#SVGID_00000041279501985798060200000015394049792231502229_);stroke-width:3.79;stroke-linecap:round;stroke-miterlimit:10;" d="
			M33.3,98.2c-1.7-2.4-3.4-5.8-2.6-9.2c1.2-5.3,7.2-6.1,10.1-11.5c1.6-3,2.5-7.9-0.9-16.1"/>
		
			<linearGradient id="SVGID_00000172438178512080430780000012872235028916156817_" gradientUnits="userSpaceOnUse" x1="27.6054" y1="-703.6852" x2="27.6054" y2="-633.4952" gradientTransform="matrix(1 0 0 -1 0 -603.7971)">
			<stop  offset="0" style="stop-color:#FAF4F4"/>
			<stop  offset="6.000000e-02" style="stop-color:#DFE8E2"/>
			<stop  offset="0.17" style="stop-color:#B3D5C5"/>
			<stop  offset="0.29" style="stop-color:#8EC5AD"/>
			<stop  offset="0.41" style="stop-color:#6FB798"/>
			<stop  offset="0.54" style="stop-color:#57AD89"/>
			<stop  offset="0.67" style="stop-color:#46A67E"/>
			<stop  offset="0.82" style="stop-color:#3CA177"/>
			<stop  offset="1" style="stop-color:#39A075"/>
		</linearGradient>
		
			<path style="fill:none;stroke:url(#SVGID_00000172438178512080430780000012872235028916156817_);stroke-width:3.79;stroke-linecap:round;stroke-miterlimit:10;" d="
			M26.2,98c-3.4-4.5-3.7-8-3.4-10.3c0.6-4.6,4.1-6.2,5.4-11.3c1.2-4.8-2.2-6-1.3-11c0.9-4.6,3.5-4.7,4.1-8.8
			c0.6-4.6-2.4-6.4-3.1-11.3c-0.4-3.1,0.1-7.6,4.6-13.7"/>
	</g>
</g>
<g id="Layer_2_00000183955997111422823140000017048343609233054868_">
	<g id="Layer_1-2_00000038412087793307577420000013598649761620436613_">
		
			<linearGradient id="SVGID_00000060012895796590302860000009648421963593159591_" gradientUnits="userSpaceOnUse" x1="-944.1767" y1="-972.7105" x2="-944.1767" y2="-902.4933" gradientTransform="matrix(-0.9471 -0.3209 0.3209 -0.9471 -449.1219 -1126.3665)">
			<stop  offset="0" style="stop-color:#FAF4F4"/>
			<stop  offset="6.000000e-02" style="stop-color:#DFE8E2"/>
			<stop  offset="0.17" style="stop-color:#B3D5C5"/>
			<stop  offset="0.29" style="stop-color:#8EC5AD"/>
			<stop  offset="0.41" style="stop-color:#6FB798"/>
			<stop  offset="0.54" style="stop-color:#57AD89"/>
			<stop  offset="0.67" style="stop-color:#46A67E"/>
			<stop  offset="0.82" style="stop-color:#3CA177"/>
			<stop  offset="1" style="stop-color:#39A075"/>
		</linearGradient>
		
			<path style="fill:none;stroke:url(#SVGID_00000060012895796590302860000009648421963593159591_);stroke-width:3.79;stroke-linecap:round;stroke-miterlimit:10;" d="
			M136.3,97c4-2.6,9.2-6.7,9.8-12.6c0.7-7-6.2-9.9-5.7-17.4c0.4-7.5,7.5-8.7,9.9-17.2c1.3-4.6,1.1-10.8-3.3-19.4"/>
		
			<linearGradient id="SVGID_00000176000891606037585210000009690464325773019835_" gradientUnits="userSpaceOnUse" x1="-779.3476" y1="-910.7071" x2="-779.3476" y2="-824.3124" gradientTransform="matrix(-0.9729 -0.2314 0.2314 -0.9729 -427.4899 -968.3082)">
			<stop  offset="0" style="stop-color:#FAF4F4"/>
			<stop  offset="6.000000e-02" style="stop-color:#DFE8E2"/>
			<stop  offset="0.17" style="stop-color:#B3D5C5"/>
			<stop  offset="0.29" style="stop-color:#8EC5AD"/>
			<stop  offset="0.41" style="stop-color:#6FB798"/>
			<stop  offset="0.54" style="stop-color:#57AD89"/>
			<stop  offset="0.67" style="stop-color:#46A67E"/>
			<stop  offset="0.82" style="stop-color:#3CA177"/>
			<stop  offset="1" style="stop-color:#39A075"/>
		</linearGradient>
		
			<path style="fill:none;stroke:url(#SVGID_00000176000891606037585210000009690464325773019835_);stroke-width:3.79;stroke-linecap:round;stroke-miterlimit:10;" d="
			M125,97.3c8.9-8,10.3-13.9,9.9-18.1c-0.9-8.7-10.9-12-10-19.8c0.7-6.2,7.3-7.2,7.3-13.5c0-5.2-4.6-6.6-6.2-12.2
			c-1.1-3.9-0.9-10,6.2-19.6"/>
		
			<linearGradient id="SVGID_00000115496732888667318200000003142320230724949908_" gradientUnits="userSpaceOnUse" x1="-402.8521" y1="-703.4886" x2="-402.8521" y2="-646.8987" gradientTransform="matrix(-1 0 0 -1 -301.3911 -603.7971)">
			<stop  offset="0" style="stop-color:#FAF4F4"/>
			<stop  offset="6.000000e-02" style="stop-color:#DFE8E2"/>
			<stop  offset="0.17" style="stop-color:#B3D5C5"/>
			<stop  offset="0.29" style="stop-color:#8EC5AD"/>
			<stop  offset="0.41" style="stop-color:#6FB798"/>
			<stop  offset="0.54" style="stop-color:#57AD89"/>
			<stop  offset="0.67" style="stop-color:#46A67E"/>
			<stop  offset="0.82" style="stop-color:#3CA177"/>
			<stop  offset="1" style="stop-color:#39A075"/>
		</linearGradient>
		
			<path style="fill:none;stroke:url(#SVGID_00000115496732888667318200000003142320230724949908_);stroke-width:3.79;stroke-linecap:round;stroke-miterlimit:10;" d="
			M105.9,97.8c2.4-3.4,4.9-8.3,3.7-13.2c-1.7-7.6-10.3-8.7-14.5-16.5c-2.3-4.3-3.6-11.3,1.3-23.1"/>
		
			<linearGradient id="SVGID_00000076592289993223664680000000370390086137801094_" gradientUnits="userSpaceOnUse" x1="-415.4802" y1="-703.1887" x2="-415.4802" y2="-604.1987" gradientTransform="matrix(-1 0 0 -1 -301.3911 -603.7971)">
			<stop  offset="0" style="stop-color:#FAF4F4"/>
			<stop  offset="6.000000e-02" style="stop-color:#DFE8E2"/>
			<stop  offset="0.17" style="stop-color:#B3D5C5"/>
			<stop  offset="0.29" style="stop-color:#8EC5AD"/>
			<stop  offset="0.41" style="stop-color:#6FB798"/>
			<stop  offset="0.54" style="stop-color:#57AD89"/>
			<stop  offset="0.67" style="stop-color:#46A67E"/>
			<stop  offset="0.82" style="stop-color:#3CA177"/>
			<stop  offset="1" style="stop-color:#39A075"/>
		</linearGradient>
		
			<path style="fill:none;stroke:url(#SVGID_00000076592289993223664680000000370390086137801094_);stroke-width:3.79;stroke-linecap:round;stroke-miterlimit:10;" d="
			M116.1,97.5C121,91,121.4,86,121,82.7c-0.9-6.6-5.9-8.9-7.7-16.2c-1.7-6.9,3.2-8.6,1.9-15.8c-1.3-6.6-5-6.7-5.9-12.6
			c-0.9-6.6,3.4-9.2,4.4-16.2c0.6-4.4-0.1-10.9-6.6-19.6"/>
	</g>
</g>
</svg>
