<?xml version="1.0" encoding="utf-8"?>
<!-- Generator: Adobe Illustrator 26.0.1, SVG Export Plug-In . SVG Version: 6.00 Build 0)  -->
<svg version="1.1" id="Layer_1" xmlns="http://www.w3.org/2000/svg" xmlns:xlink="http://www.w3.org/1999/xlink" x="0px" y="0px"
	 viewBox="0 0 198.1 101.5" style="enable-background:new 0 0 198.1 101.5;" xml:space="preserve">
<style type="text/css">
	.st0{fill:none;stroke:url(#SVGID_1_);stroke-width:3.79;stroke-linecap:round;stroke-miterlimit:10;}
	
		.st1{fill:none;stroke:url(#SVGID_00000061458438253641857290000011836270500242391992_);stroke-width:3.79;stroke-linecap:round;stroke-miterlimit:10;}
	
		.st2{fill:none;stroke:url(#SVGID_00000096041740176700571960000005213042045070872225_);stroke-width:3.79;stroke-linecap:round;stroke-miterlimit:10;}
	
		.st3{fill:none;stroke:url(#SVGID_00000043418403056766747690000000416964317451982507_);stroke-width:3.79;stroke-linecap:round;stroke-miterlimit:10;}
	
		.st4{fill:none;stroke:url(#SVGID_00000007396233113308376130000011753052778313762200_);stroke-width:3.79;stroke-linecap:round;stroke-miterlimit:10;}
	
		.st5{fill:none;stroke:url(#SVGID_00000064348229253946062780000011224115448607246233_);stroke-width:3.79;stroke-linecap:round;stroke-miterlimit:10;}
	
		.st6{fill:none;stroke:url(#SVGID_00000070090905711277639800000015030787547110113409_);stroke-width:3.79;stroke-linecap:round;stroke-miterlimit:10;}
	
		.st7{fill:none;stroke:url(#SVGID_00000139263048075927228410000001076067893773611395_);stroke-width:3.79;stroke-linecap:round;stroke-miterlimit:10;}
	
		.st8{fill:none;stroke:url(#SVGID_00000124877399185693333110000005022652820967484081_);stroke-width:3.79;stroke-linecap:round;stroke-miterlimit:10;}
	
		.st9{fill:none;stroke:url(#SVGID_00000137829937334689984020000004664881110610278328_);stroke-width:3.79;stroke-linecap:round;stroke-miterlimit:10;}
	
		.st10{fill:none;stroke:url(#SVGID_00000180362893568301537700000000611748500607719818_);stroke-width:3.79;stroke-linecap:round;stroke-miterlimit:10;}
	
		.st11{fill:none;stroke:url(#SVGID_00000173854042776511233500000006534894206909100729_);stroke-width:3.79;stroke-linecap:round;stroke-miterlimit:10;}
</style>
<g id="Layer_2_00000067958072035176759860000017210646685595378599_">
	<g id="Layer_1-2">
		
			<linearGradient id="SVGID_1_" gradientUnits="userSpaceOnUse" x1="-103.0966" y1="-270.9007" x2="-103.0966" y2="-220.8249" gradientTransform="matrix(0.9471 -0.3209 -0.3209 -0.9471 179.3727 -189.3617)">
			<stop  offset="0" style="stop-color:#FAF4F4"/>
			<stop  offset="6.000000e-02" style="stop-color:#DFE8E2"/>
			<stop  offset="0.17" style="stop-color:#B3D5C5"/>
			<stop  offset="0.29" style="stop-color:#8EC5AD"/>
			<stop  offset="0.41" style="stop-color:#6FB798"/>
			<stop  offset="0.54" style="stop-color:#57AD89"/>
			<stop  offset="0.67" style="stop-color:#46A67E"/>
			<stop  offset="0.82" style="stop-color:#3CA177"/>
			<stop  offset="1" style="stop-color:#39A075"/>
		</linearGradient>
		<path class="st0" d="M166.2,99.1c-2.8-1.8-6.4-4.7-6.8-8.8c-0.5-4.9,4.3-6.8,4-12.1c-0.3-5.2-5.2-6.2-6.9-12.1
			c-0.9-3.2-0.8-7.5,2.3-13.5"/>
		
			<linearGradient id="SVGID_00000055697158012904804530000010036745991906312635_" gradientUnits="userSpaceOnUse" x1="-8.8575" y1="-190.9697" x2="-8.8575" y2="-129.5247" gradientTransform="matrix(0.9729 -0.2314 -0.2314 -0.9729 142.0072 -87.4561)">
			<stop  offset="0" style="stop-color:#FAF4F4"/>
			<stop  offset="6.000000e-02" style="stop-color:#DFE8E2"/>
			<stop  offset="0.17" style="stop-color:#B3D5C5"/>
			<stop  offset="0.29" style="stop-color:#8EC5AD"/>
			<stop  offset="0.41" style="stop-color:#6FB798"/>
			<stop  offset="0.54" style="stop-color:#57AD89"/>
			<stop  offset="0.67" style="stop-color:#46A67E"/>
			<stop  offset="0.82" style="stop-color:#3CA177"/>
			<stop  offset="1" style="stop-color:#39A075"/>
		</linearGradient>
		
			<path style="fill:none;stroke:url(#SVGID_00000055697158012904804530000010036745991906312635_);stroke-width:3.79;stroke-linecap:round;stroke-miterlimit:10;" d="
			M174,99.3c-6.2-5.6-7.2-9.7-6.9-12.6c0.6-6.1,7.6-8.4,7-13.8c-0.5-4.3-5.1-5-5.1-9.4c0-3.6,3.2-4.6,4.3-8.5
			c0.8-2.7,0.6-7-4.3-13.7"/>
		
			<linearGradient id="SVGID_00000124150762179681993910000011642178911994549436_" gradientUnits="userSpaceOnUse" x1="190.3589" y1="30.5837" x2="190.3589" y2="71.1637" gradientTransform="matrix(1 0 0 -1 0 132.0676)">
			<stop  offset="0" style="stop-color:#FAF4F4"/>
			<stop  offset="6.000000e-02" style="stop-color:#DFE8E2"/>
			<stop  offset="0.17" style="stop-color:#B3D5C5"/>
			<stop  offset="0.29" style="stop-color:#8EC5AD"/>
			<stop  offset="0.41" style="stop-color:#6FB798"/>
			<stop  offset="0.54" style="stop-color:#57AD89"/>
			<stop  offset="0.67" style="stop-color:#46A67E"/>
			<stop  offset="0.82" style="stop-color:#3CA177"/>
			<stop  offset="1" style="stop-color:#39A075"/>
		</linearGradient>
		
			<path style="fill:none;stroke:url(#SVGID_00000124150762179681993910000011642178911994549436_);stroke-width:3.79;stroke-linecap:round;stroke-miterlimit:10;" d="
			M187.3,99.6c-1.7-2.4-3.4-5.8-2.6-9.2c1.2-5.3,7.2-6.2,10.1-11.5c1.6-3,2.4-7.9-0.9-16.1"/>
		
			<linearGradient id="SVGID_00000150071997032741013960000000383989468551743365_" gradientUnits="userSpaceOnUse" x1="181.5831" y1="30.7837" x2="181.5831" y2="101.0137" gradientTransform="matrix(1 0 0 -1 0 132.0676)">
			<stop  offset="0" style="stop-color:#FAF4F4"/>
			<stop  offset="6.000000e-02" style="stop-color:#DFE8E2"/>
			<stop  offset="0.17" style="stop-color:#B3D5C5"/>
			<stop  offset="0.29" style="stop-color:#8EC5AD"/>
			<stop  offset="0.41" style="stop-color:#6FB798"/>
			<stop  offset="0.54" style="stop-color:#57AD89"/>
			<stop  offset="0.67" style="stop-color:#46A67E"/>
			<stop  offset="0.82" style="stop-color:#3CA177"/>
			<stop  offset="1" style="stop-color:#39A075"/>
		</linearGradient>
		
			<path style="fill:none;stroke:url(#SVGID_00000150071997032741013960000000383989468551743365_);stroke-width:3.79;stroke-linecap:round;stroke-miterlimit:10;" d="
			M180.2,99.4c-3.4-4.5-3.7-8-3.4-10.3c0.6-4.6,4.1-6.2,5.4-11.3c1.2-4.8-2.2-6-1.3-11c0.9-4.6,3.5-4.7,4.1-8.8
			c0.6-4.6-2.4-6.4-3.1-11.3c-0.4-3.1,0.1-7.6,4.6-13.7"/>
	</g>
</g>
<g id="Layer_2_00000163752274581558212600000005641100171292698269_">
	<g id="Layer_1-2_00000142135235254858918010000002972593199211855021_">
		
			<linearGradient id="SVGID_00000041271015828343841920000003182081810252977592_" gradientUnits="userSpaceOnUse" x1="-201.5594" y1="-236.8755" x2="-201.5594" y2="-186.7997" gradientTransform="matrix(-0.9471 -0.3209 0.3209 -0.9471 -84.6493 -189.3617)">
			<stop  offset="0" style="stop-color:#FAF4F4"/>
			<stop  offset="6.000000e-02" style="stop-color:#DFE8E2"/>
			<stop  offset="0.17" style="stop-color:#B3D5C5"/>
			<stop  offset="0.29" style="stop-color:#8EC5AD"/>
			<stop  offset="0.41" style="stop-color:#6FB798"/>
			<stop  offset="0.54" style="stop-color:#57AD89"/>
			<stop  offset="0.67" style="stop-color:#46A67E"/>
			<stop  offset="0.82" style="stop-color:#3CA177"/>
			<stop  offset="1" style="stop-color:#39A075"/>
		</linearGradient>
		
			<path style="fill:none;stroke:url(#SVGID_00000041271015828343841920000003182081810252977592_);stroke-width:3.79;stroke-linecap:round;stroke-miterlimit:10;" d="
			M32.7,98.5c2.8-1.8,6.5-4.7,6.8-8.8c0.5-4.9-4.3-6.8-4-12.1c0.3-5.2,5.2-6.2,6.9-12.1c0.9-3.2,0.8-7.5-2.3-13.5"/>
		
			<linearGradient id="SVGID_00000039114459185945951080000012610954768938869392_" gradientUnits="userSpaceOnUse" x1="-110.0596" y1="-166.2557" x2="-110.0596" y2="-104.8107" gradientTransform="matrix(-0.9729 -0.2314 0.2314 -0.9729 -47.2838 -87.4561)">
			<stop  offset="0" style="stop-color:#FAF4F4"/>
			<stop  offset="6.000000e-02" style="stop-color:#DFE8E2"/>
			<stop  offset="0.17" style="stop-color:#B3D5C5"/>
			<stop  offset="0.29" style="stop-color:#8EC5AD"/>
			<stop  offset="0.41" style="stop-color:#6FB798"/>
			<stop  offset="0.54" style="stop-color:#57AD89"/>
			<stop  offset="0.67" style="stop-color:#46A67E"/>
			<stop  offset="0.82" style="stop-color:#3CA177"/>
			<stop  offset="1" style="stop-color:#39A075"/>
		</linearGradient>
		
			<path style="fill:none;stroke:url(#SVGID_00000039114459185945951080000012610954768938869392_);stroke-width:3.79;stroke-linecap:round;stroke-miterlimit:10;" d="
			M24.9,98.7c6.2-5.6,7.2-9.7,6.9-12.6c-0.6-6.1-7.6-8.4-7-13.8c0.5-4.3,5.1-5,5.1-9.4c0-3.6-3.2-4.6-4.3-8.5
			c-0.8-2.7-0.6-7,4.3-13.7"/>
		
			<linearGradient id="SVGID_00000048472731642736757350000002621676144101904557_" gradientUnits="userSpaceOnUse" x1="86.1848" y1="31.2079" x2="86.1848" y2="71.7879" gradientTransform="matrix(-1 0 0 -1 94.7234 132.0676)">
			<stop  offset="0" style="stop-color:#FAF4F4"/>
			<stop  offset="6.000000e-02" style="stop-color:#DFE8E2"/>
			<stop  offset="0.17" style="stop-color:#B3D5C5"/>
			<stop  offset="0.29" style="stop-color:#8EC5AD"/>
			<stop  offset="0.41" style="stop-color:#6FB798"/>
			<stop  offset="0.54" style="stop-color:#57AD89"/>
			<stop  offset="0.67" style="stop-color:#46A67E"/>
			<stop  offset="0.82" style="stop-color:#3CA177"/>
			<stop  offset="1" style="stop-color:#39A075"/>
		</linearGradient>
		
			<path style="fill:none;stroke:url(#SVGID_00000048472731642736757350000002621676144101904557_);stroke-width:3.79;stroke-linecap:round;stroke-miterlimit:10;" d="
			M11.6,99c1.7-2.4,3.4-5.8,2.6-9.2C13,84.5,7,83.6,4.1,78.2c-1.6-3-2.5-7.9,0.9-16.1"/>
		
			<linearGradient id="SVGID_00000144334922758601972100000009767682998456811701_" gradientUnits="userSpaceOnUse" x1="77.409" y1="31.4079" x2="77.409" y2="101.6379" gradientTransform="matrix(-1 0 0 -1 94.7234 132.0676)">
			<stop  offset="0" style="stop-color:#FAF4F4"/>
			<stop  offset="6.000000e-02" style="stop-color:#DFE8E2"/>
			<stop  offset="0.17" style="stop-color:#B3D5C5"/>
			<stop  offset="0.29" style="stop-color:#8EC5AD"/>
			<stop  offset="0.41" style="stop-color:#6FB798"/>
			<stop  offset="0.54" style="stop-color:#57AD89"/>
			<stop  offset="0.67" style="stop-color:#46A67E"/>
			<stop  offset="0.82" style="stop-color:#3CA177"/>
			<stop  offset="1" style="stop-color:#39A075"/>
		</linearGradient>
		
			<path style="fill:none;stroke:url(#SVGID_00000144334922758601972100000009767682998456811701_);stroke-width:3.79;stroke-linecap:round;stroke-miterlimit:10;" d="
			M18.7,98.8c3.4-4.5,3.7-8,3.4-10.3c-0.6-4.6-4.1-6.2-5.4-11.3c-1.2-4.8,2.2-6,1.3-11c-0.9-4.6-3.5-4.7-4.1-8.8
			c-0.6-4.6,2.4-6.4,3.1-11.3c0.4-3.1-0.1-7.6-4.6-13.7"/>
	</g>
</g>
<g id="Layer_2_00000114070289624948819240000000292664657116715698_">
	<g id="Layer_1-2_00000151510990627270738670000015502863579420957336_">
		
			<linearGradient id="SVGID_00000098214371618383241670000014369763828395721374_" gradientUnits="userSpaceOnUse" x1="-275.2159" y1="-211.5326" x2="-275.2159" y2="-140.8044" gradientTransform="matrix(-0.9471 -0.3209 0.3209 -0.9471 -84.6493 -189.3617)">
			<stop  offset="0" style="stop-color:#FAF4F4"/>
			<stop  offset="6.000000e-02" style="stop-color:#DFE8E2"/>
			<stop  offset="0.17" style="stop-color:#B3D5C5"/>
			<stop  offset="0.29" style="stop-color:#8EC5AD"/>
			<stop  offset="0.41" style="stop-color:#6FB798"/>
			<stop  offset="0.54" style="stop-color:#57AD89"/>
			<stop  offset="0.67" style="stop-color:#46A67E"/>
			<stop  offset="0.82" style="stop-color:#3CA177"/>
			<stop  offset="1" style="stop-color:#39A075"/>
		</linearGradient>
		
			<path style="fill:none;stroke:url(#SVGID_00000098214371618383241670000014369763828395721374_);stroke-width:3.79;stroke-linecap:round;stroke-miterlimit:10;" d="
			M111.5,98.4c4-2.5,9.3-6.8,9.9-12.7c0.7-7.1-6.2-9.9-5.8-17.5c0.5-7.6,7.5-8.9,10-17.4c1.3-4.6,1.2-10.9-3.3-19.5"/>
		
			<linearGradient id="SVGID_00000146484768481538788670000012592585440138112950_" gradientUnits="userSpaceOnUse" x1="-181.8178" y1="-148.8318" x2="-181.8178" y2="-61.6616" gradientTransform="matrix(-0.9729 -0.2314 0.2314 -0.9729 -47.2838 -87.4561)">
			<stop  offset="0" style="stop-color:#FAF4F4"/>
			<stop  offset="6.000000e-02" style="stop-color:#DFE8E2"/>
			<stop  offset="0.17" style="stop-color:#B3D5C5"/>
			<stop  offset="0.29" style="stop-color:#8EC5AD"/>
			<stop  offset="0.41" style="stop-color:#6FB798"/>
			<stop  offset="0.54" style="stop-color:#57AD89"/>
			<stop  offset="0.67" style="stop-color:#46A67E"/>
			<stop  offset="0.82" style="stop-color:#3CA177"/>
			<stop  offset="1" style="stop-color:#39A075"/>
		</linearGradient>
		
			<path style="fill:none;stroke:url(#SVGID_00000146484768481538788670000012592585440138112950_);stroke-width:3.79;stroke-linecap:round;stroke-miterlimit:10;" d="
			M100.1,98.6c9-8,10.5-14.1,10-18.2c-0.9-8.8-11-12.1-10.1-20c0.7-6.2,7.4-7.2,7.4-13.6c0-5.2-4.6-6.7-6.2-12.4
			c-1.1-3.9-0.9-10.1,6.2-19.8"/>
		
			<linearGradient id="SVGID_00000130629001777367231350000001322333805521931149_" gradientUnits="userSpaceOnUse" x1="18.2388" y1="31.0837" x2="18.2388" y2="88.0791" gradientTransform="matrix(-1 0 0 -1 94.7234 132.0676)">
			<stop  offset="0" style="stop-color:#FAF4F4"/>
			<stop  offset="6.000000e-02" style="stop-color:#DFE8E2"/>
			<stop  offset="0.17" style="stop-color:#B3D5C5"/>
			<stop  offset="0.29" style="stop-color:#8EC5AD"/>
			<stop  offset="0.41" style="stop-color:#6FB798"/>
			<stop  offset="0.54" style="stop-color:#57AD89"/>
			<stop  offset="0.67" style="stop-color:#46A67E"/>
			<stop  offset="0.82" style="stop-color:#3CA177"/>
			<stop  offset="1" style="stop-color:#39A075"/>
		</linearGradient>
		
			<path style="fill:none;stroke:url(#SVGID_00000130629001777367231350000001322333805521931149_);stroke-width:3.79;stroke-linecap:round;stroke-miterlimit:10;" d="
			M80.8,99.1c2.4-3.5,4.9-8.3,3.8-13.3c-1.7-7.7-10.4-8.9-14.6-16.7c-2.3-4.3-3.5-11.4,1.3-23.2"/>
		
			<linearGradient id="SVGID_00000120525105011752192620000006117626923037333166_" gradientUnits="userSpaceOnUse" x1="5.5474" y1="31.373" x2="5.5474" y2="131.248" gradientTransform="matrix(-1 0 0 -1 94.7234 132.0676)">
			<stop  offset="0" style="stop-color:#FAF4F4"/>
			<stop  offset="6.000000e-02" style="stop-color:#DFE8E2"/>
			<stop  offset="0.17" style="stop-color:#B3D5C5"/>
			<stop  offset="0.29" style="stop-color:#8EC5AD"/>
			<stop  offset="0.41" style="stop-color:#6FB798"/>
			<stop  offset="0.54" style="stop-color:#57AD89"/>
			<stop  offset="0.67" style="stop-color:#46A67E"/>
			<stop  offset="0.82" style="stop-color:#3CA177"/>
			<stop  offset="1" style="stop-color:#39A075"/>
		</linearGradient>
		
			<path style="fill:none;stroke:url(#SVGID_00000120525105011752192620000006117626923037333166_);stroke-width:3.79;stroke-linecap:round;stroke-miterlimit:10;" d="
			M91.1,98.8c4.8-6.6,5.4-11.6,5-14.9c-0.9-6.7-6-9-7.8-16.3c-1.8-7,3.2-8.7,1.9-15.9c-1.2-6.6-5.1-6.8-5.9-12.8
			c-0.9-6.7,3.5-9.3,4.5-16.3c0.6-4.4-0.1-11-6.6-19.9"/>
	</g>
</g>
</svg>
